<svg width="73" viewBox="0 0 73 91" xmlns="http://www.w3.org/2000/svg"><g fill="#00E676"><path d="M38.505 6.46a.75.75 0 0 1 .759 1.294L21.566 18.127a.75.75 0 1 1-.759-1.294L38.505 6.46z"/><path d="M44.76 2.705a3.325 3.325 0 0 0-2.37-.955 3.31 3.31 0 0 0-3.282 3.327 3.31 3.31 0 0 0 3.33 3.28 3.31 3.31 0 0 0 3.306-3.304c0-.882-.354-1.727-.984-2.348zm-2.317 7.151a4.81 4.81 0 0 1-4.835-4.768A4.81 4.81 0 0 1 42.373.25a4.825 4.825 0 0 1 3.44 1.387 4.796 4.796 0 0 1 1.43 3.416 4.81 4.81 0 0 1-4.8 4.803zM42.381 30.7v-1.5a4.81 4.81 0 0 1 4.818 4.804 4.81 4.81 0 0 1-4.818 4.803v-1.5a3.31 3.31 0 0 0 3.318-3.303 3.31 3.31 0 0 0-3.318-3.303zm2.392 27.03a3.325 3.325 0 0 0-2.347-.968 3.31 3.31 0 0 0-3.318 3.304 3.31 3.31 0 0 0 3.318 3.303 3.31 3.31 0 0 0 3.318-3.303c0-.876-.35-1.716-.971-2.335zm-2.347 7.139a4.81 4.81 0 0 1-4.818-4.803 4.81 4.81 0 0 1 4.818-4.804c1.277 0 2.502.506 3.406 1.406a4.796 4.796 0 0 1 1.412 3.398 4.81 4.81 0 0 1-4.818 4.803zM67.082 16.23a3.31 3.31 0 0 0-3.318 3.303 3.31 3.31 0 0 0 3.318 3.303 3.31 3.31 0 0 0 3.318-3.303 3.31 3.31 0 0 0-3.318-3.303zm0 8.106a4.81 4.81 0 0 1-4.818-4.803 4.81 4.81 0 0 1 4.818-4.803 4.81 4.81 0 0 1 4.818 4.803 4.81 4.81 0 0 1-4.818 4.803zM17.69 16.23a3.31 3.31 0 0 0-3.318 3.303 3.31 3.31 0 0 0 3.318 3.303 3.31 3.31 0 0 0 3.318-3.303 3.31 3.31 0 0 0-3.318-3.303zm0 8.106a4.81 4.81 0 0 1-4.818-4.803 4.81 4.81 0 0 1 4.818-4.803 4.81 4.81 0 0 1 4.818 4.803 4.81 4.81 0 0 1-4.818 4.803zm52.71 21.25a3.31 3.31 0 0 0-3.318-3.303 3.31 3.31 0 0 0-3.318 3.303 3.31 3.31 0 0 0 3.318 3.303 3.31 3.31 0 0 0 3.318-3.303zm1.5 0a4.81 4.81 0 0 1-4.818 4.803 4.81 4.81 0 0 1-4.818-4.803 4.81 4.81 0 0 1 4.818-4.803 4.81 4.81 0 0 1 4.818 4.803zm-50.892 0a3.31 3.31 0 0 0-3.318-3.303 3.31 3.31 0 0 0-3.318 3.303 3.31 3.31 0 0 0 3.318 3.303 3.31 3.31 0 0 0 3.318-3.303zm1.5 0a4.81 4.81 0 0 1-4.818 4.803 4.81 4.81 0 0 1-4.818-4.803 4.81 4.81 0 0 1 4.818-4.803 4.81 4.81 0 0 1 4.818 4.803zm25.332 33.32a.75.75 0 0 1 0 1.5H32.882a.75.75 0 0 1 0-1.5h14.96z"/><path d="M66.994 72.189a4.33 4.33 0 0 1 1.63-.323.75.75 0 0 1 .173.02 4.261 4.261 0 0 1 4.043 3.42 4.253 4.253 0 0 1-2.591 4.775c-.213.082-8.705 3.609-11.78 4.876l-.298.123c-7.437 3.062-11.423 4.653-12.241 4.814a31.145 31.145 0 0 1-17.106-1.015l-3.9-1.369c-2.024-.715-3.637-.93-6.014-.935-.266 0-.476 0-.966.005-.436.003-.637.004-.887.004a.75.75 0 0 1-.75-.75V66.51a.75.75 0 0 1 .75-.75h9.705c4.423 0 6.901 1.047 9.25 3.272.25.236 1.024 1.003 1.085 1.062 1.356 1.316 2.287 1.8 3.937 1.8h6.807a4.263 4.263 0 0 1 4.269 4.256c0 .855-.253 1.65-.688 2.317l15.572-6.278zm.565 1.39L51.706 79.97a6.056 6.056 0 0 1-2.26.436h-1.605c-1 0-1-1.5 0-1.5a2.762 2.762 0 0 0 2.769-2.756 2.763 2.763 0 0 0-2.77-2.757h-6.806c-2.1 0-3.37-.66-4.981-2.222-.072-.07-.837-.828-1.072-1.05-2.078-1.968-4.191-2.861-8.22-2.861h-8.954v17.82c.62-.004.833-.005 1.106-.005 2.533.005 4.306.242 6.51 1.02l3.898 1.37a29.682 29.682 0 0 0 16.304.961c.411-.037 5.141-1.92 11.974-4.733l.298-.123c3.04-1.253 11.58-4.8 11.802-4.884a2.75 2.75 0 0 0 1.67-3.086 2.762 2.762 0 0 0-2.73-2.216c-.468.002-.782.073-1.08.195zM1.214 62.913a.75.75 0 1 1 0-1.5h8.796a2.53 2.53 0 0 1 2.534 2.528v23.67a2.53 2.53 0 0 1-2.534 2.529H1.214a.75.75 0 1 1 0-1.5h8.796a1.03 1.03 0 0 0 1.034-1.028v-23.67a1.03 1.03 0 0 0-1.034-1.029H1.214z"/><path d="M1.214 62.913a.75.75 0 1 1 0-1.5h8.796a2.53 2.53 0 0 1 2.534 2.528v23.67a2.53 2.53 0 0 1-2.534 2.529H1.214a.75.75 0 1 1 0-1.5h8.796a1.03 1.03 0 0 0 1.034-1.028v-23.67a1.03 1.03 0 0 0-1.034-1.029H1.214z"/><path d="M11.767 88.335a.75.75 0 0 1-.75-.75V63.888a.75.75 0 0 1 .75-.75h3.506a2.53 2.53 0 0 1 2.534 2.527v20.142a2.53 2.53 0 0 1-2.534 2.528h-3.506zm.75-1.5h2.756a1.03 1.03 0 0 0 1.034-1.028V65.665a1.03 1.03 0 0 0-1.034-1.027h-2.756v22.197zm51.438-70.011a.75.75 0 0 1-.758 1.294L45.508 7.754a.75.75 0 1 1 .758-1.295l17.69 10.365zm-.767 4.116a.75.75 0 1 1 .759 1.293l-17.68 10.365a.75.75 0 0 1-.76-1.294l17.68-10.365z"/><path d="M46.266 32.598a.75.75 0 0 1-.758-1.294l17.68-10.365a.75.75 0 1 1 .759 1.294l-17.68 10.365zm21.566 8.935a.75.75 0 0 1-1.5 0V23.586a.75.75 0 1 1 1.5 0v17.947zM46.257 58.66a.75.75 0 0 1-.758-1.295l17.707-10.373a.75.75 0 0 1 .758 1.294L46.257 58.66zm-4.626-20.603a.75.75 0 1 1 1.5 0v17.955a.75.75 0 0 1-1.5 0V38.057z"/><path d="M43.131 56.012a.75.75 0 0 1-1.5 0V38.057a.75.75 0 1 1 1.5 0v17.955zm-3.867-24.7a.75.75 0 0 1-.759 1.294L20.816 22.233a.75.75 0 0 1 .759-1.294l17.689 10.373z"/><path d="M20.816 22.233a.75.75 0 0 1 .759-1.294l17.278 10.124a.75.75 0 0 1-.758 1.295L20.816 22.233z"/><path d="M42.381 37.307v1.5a4.81 4.81 0 0 1-4.817-4.803A4.81 4.81 0 0 1 42.38 29.2v1.5a3.31 3.31 0 0 0-3.317 3.303 3.31 3.31 0 0 0 3.317 3.303zM16.94 23.586a.75.75 0 0 1 1.5 0v17.947a.75.75 0 1 1-1.5 0V23.586zm4.153 24.869a.75.75 0 1 1 .758-1.294l17.404 10.195a.75.75 0 0 1-.758 1.295L21.093 48.455z"/></g></svg>