<svg height="98" viewBox="0 0 92 98" xmlns="http://www.w3.org/2000/svg"><g fill="#00E676"><path d="M67.095 92.405a6.6 6.6 0 0 0-.125-6.644L55.358 66.757a12.746 12.746 0 0 1-1.828-6.647V47.75H38.51v12.36a12.75 12.75 0 0 1-1.87 6.652L25.01 85.75a6.6 6.6 0 0 0 5.63 10.039h30.737a6.6 6.6 0 0 0 5.718-3.385zm-5.71 4.885H30.64a8.1 8.1 0 0 1-6.91-12.322L35.36 65.98a11.25 11.25 0 0 0 1.65-5.869V47a.75.75 0 0 1 .75-.75h16.52a.75.75 0 0 1 .75.75v13.114a11.246 11.246 0 0 0 1.61 5.865L68.25 84.98a8.1 8.1 0 0 1-6.865 12.31z"/><path d="M54.28 47.75H37.75a4.425 4.425 0 0 1 0-8.85h16.53a4.425 4.425 0 0 1 0 8.85zm0-1.5a2.925 2.925 0 1 0 0-5.85H37.75a2.925 2.925 0 1 0 0 5.85h16.53zM42.34 66.07a.75.75 0 1 1 0-1.5h7.34a.75.75 0 1 1 0 1.5h-7.34zm0 5.51a.75.75 0 1 1 0-1.5h7.34a.75.75 0 1 1 0 1.5h-7.34zm0 11.02a.75.75 0 1 1 0-1.5h7.34a.75.75 0 1 1 0 1.5h-7.34zm0 5.51a.75.75 0 1 1 0-1.5h7.34a.75.75 0 1 1 0 1.5h-7.34zM29.89 77.09a.75.75 0 1 1 0-1.5h32.24a.75.75 0 1 1 0 1.5H29.89zm49.92-22.33a.75.75 0 1 1-1.5 0v-1.38a.75.75 0 1 1 1.5 0v1.38zm2.7 1.74a.75.75 0 0 1-1.06-1.06l.98-.98a.75.75 0 0 1 1.06 1.06l-.98.98zm.68 3.14a.75.75 0 1 1 0-1.5h1.38a.75.75 0 1 1 0 1.5h-1.38zm-1.74 2.7a.75.75 0 0 1 1.06-1.06l.98.98a.75.75 0 0 1-1.06 1.06l-.98-.98zm-3.14.68a.75.75 0 1 1 1.5 0v1.38a.75.75 0 1 1-1.5 0v-1.38zm-2.703-1.738a.75.75 0 1 1 1.066 1.056l-.97.98a.75.75 0 1 1-1.066-1.056l.97-.98zm-.677-3.142a.75.75 0 1 1 0 1.5h-1.38a.75.75 0 1 1 0-1.5h1.38zm1.743-2.698a.75.75 0 1 1-1.066 1.056l-.97-.98a.75.75 0 1 1 1.066-1.056l.97.98zM66.04 24.91a.75.75 0 1 1-1.5 0v-7.35a.75.75 0 1 1 1.5 0v7.35z"/><path d="M61.61 21.99a.75.75 0 1 1 0-1.5h7.35a.75.75 0 1 1 0 1.5h-7.35zM16.44 62.87a.75.75 0 1 1-1.5 0v-7.35a.75.75 0 1 1 1.5 0v7.35z"/><path d="M12.02 59.95a.75.75 0 1 1 0-1.5h7.35a.75.75 0 1 1 0 1.5h-7.35zm8.1-40.55a.75.75 0 1 1-1.5 0v-3.67a.75.75 0 1 1 1.5 0v3.67z"/><path d="M17.53 18.31a.75.75 0 1 1 0-1.5h3.67a.75.75 0 1 1 0 1.5h-3.67zm72.38 21.3a.75.75 0 1 1-1.5 0v-3.68a.75.75 0 1 1 1.5 0v3.68z"/><path d="M87.33 38.52a.75.75 0 1 1 0-1.5H91a.75.75 0 1 1 0 1.5h-3.67zM3.59 50.93a.75.75 0 1 1-1.5 0v-3.67a.75.75 0 1 1 1.5 0v3.67z"/><path d="M1 49.85a.75.75 0 1 1 0-1.5h3.67a.75.75 0 1 1 0 1.5H1zm70.185-16.747a1.63 1.63 0 0 1 2.888-.004l3.706 6.993A1.63 1.63 0 0 1 76.34 42.5h-7.414a1.63 1.63 0 0 1-1.447-2.404l3.706-6.993zM68.803 40.8a.134.134 0 0 0-.001.136.13.13 0 0 0 .118.063h7.426a.13.13 0 0 0 .112-.063.134.134 0 0 0 0-.136l-3.713-7.004a.13.13 0 0 0-.232.004l-3.71 7zM43.286 30.552a.75.75 0 1 1-.432 1.436 17.18 17.18 0 0 1-11.502-21.404 13.89 13.89 0 0 1 17.326-9.302c5.944 1.809 9.3 8.09 7.5 14.034a9.16 9.16 0 0 1-11.395 6.142 7.48 7.48 0 0 1-5.001-9.314 6.13 6.13 0 0 1 7.645-4.102 5.06 5.06 0 0 1 3.38 6.306 4.2 4.2 0 0 1-5.222 2.8.75.75 0 0 1 .43-1.436 2.7 2.7 0 0 0 3.357-1.799 3.56 3.56 0 0 0-2.38-4.435 4.63 4.63 0 0 0-5.774 3.098 5.98 5.98 0 0 0 3.997 7.445 7.66 7.66 0 0 0 9.527-5.138c1.56-5.154-1.349-10.598-6.5-12.165a12.39 12.39 0 0 0-15.454 8.298 15.68 15.68 0 0 0 10.498 19.536zM7.61 32.42a.75.75 0 1 1 0-1.5h1.68a2.59 2.59 0 0 1 2.59 2.59v1.502A1.09 1.09 0 0 0 13 36.12h1.52a2.59 2.59 0 0 1 2.59 2.59v1.52c0 .602.488 1.09 1.09 1.09h1.52a2.59 2.59 0 0 1 2.59 2.59v1.52c0 .602.488 1.09 1.09 1.09h1.52a.75.75 0 1 1 0 1.5H23.4a2.59 2.59 0 0 1-2.59-2.59v-1.52a1.09 1.09 0 0 0-1.09-1.09H18.2a2.59 2.59 0 0 1-2.59-2.59v-1.52a1.09 1.09 0 0 0-1.09-1.09h-1.508A2.59 2.59 0 0 1 10.38 35v-1.49a1.09 1.09 0 0 0-1.09-1.09H7.61z"/></g></svg>