<svg width="180" height="36" xmlns="http://www.w3.org/2000/svg"><g fill="none" fill-rule="evenodd"><path d="M98.192 5.576h4.907v22.337h-4.907V26.38c-1.043 1.31-2.454 1.965-4.233 1.965-1.007 0-1.933-.189-2.778-.565a6.87 6.87 0 0 1-2.21-1.561 7.142 7.142 0 0 1-1.47-2.342 7.916 7.916 0 0 1-.526-2.906c0-.987.166-1.924.499-2.812a7.043 7.043 0 0 1 1.416-2.328 6.699 6.699 0 0 1 2.197-1.575c.854-.385 1.793-.578 2.818-.578 1.725 0 3.155.6 4.287 1.803V5.576zM92.044 20.97a3.203 3.203 0 0 0 .904 2.26c.278.288.61.512.997.673a3.22 3.22 0 0 0 1.254.243c.431 0 .84-.081 1.227-.243.386-.161.719-.385.998-.672a3.52 3.52 0 0 0 .674-.996c.17-.377.256-.78.256-1.211 0-.43-.086-.839-.256-1.225a3.424 3.424 0 0 0-.674-1.009 2.966 2.966 0 0 0-.998-.673 3.15 3.15 0 0 0-1.227-.242c-.431 0-.84.08-1.227.242a2.966 2.966 0 0 0-.997.673 3.54 3.54 0 0 0-.675.982c-.17.368-.256.767-.256 1.198zm25.076-6.836h4.908V27.94h-4.907v-1.534c-1.043 1.31-2.454 1.965-4.234 1.965-1.006 0-1.932-.184-2.777-.552a6.698 6.698 0 0 1-2.211-1.547 7.142 7.142 0 0 1-1.47-2.342c-.35-.897-.525-1.875-.525-2.933 0-.987.17-1.924.512-2.812a7.229 7.229 0 0 1 1.429-2.328 6.738 6.738 0 0 1 2.184-1.575c.845-.385 1.78-.578 2.804-.578 1.726 0 3.155.6 4.288 1.803v-1.373zm-6.147 6.863a3.203 3.203 0 0 0 .903 2.26c.279.288.611.512.998.673a3.22 3.22 0 0 0 1.254.242c.431 0 .84-.08 1.226-.242.387-.161.72-.385.998-.673.279-.287.503-.619.674-.995.17-.377.256-.78.256-1.211 0-.43-.085-.84-.256-1.225a3.424 3.424 0 0 0-.674-1.009 2.966 2.966 0 0 0-.998-.673 3.15 3.15 0 0 0-1.226-.242c-.45 0-.868.08-1.254.242a2.966 2.966 0 0 0-.998.673 3.316 3.316 0 0 0-.66.982 2.941 2.941 0 0 0-.243 1.198zm57.163 5.059l-6.687-11.922h5.662l3.694 7.078 3.587-7.078H180L168.89 34.83h-5.473zm-13.212-20.48h4.907v22.337h-4.907V26.38c-1.043 1.31-2.454 1.965-4.234 1.965-1.006 0-1.932-.189-2.777-.565a6.87 6.87 0 0 1-2.21-1.561 7.142 7.142 0 0 1-1.47-2.342 7.916 7.916 0 0 1-.526-2.906c0-.987.166-1.924.499-2.812a7.043 7.043 0 0 1 1.415-2.328 6.699 6.699 0 0 1 2.198-1.575c.854-.385 1.793-.578 2.817-.578 1.726 0 3.155.6 4.288 1.803V5.576zm-6.148 15.394a3.203 3.203 0 0 0 .903 2.26c.279.288.611.512.998.673a3.22 3.22 0 0 0 1.254.243c.431 0 .84-.081 1.227-.243.386-.161.719-.385.997-.672a3.48 3.48 0 0 0 .674-.996c.171-.377.256-.78.256-1.211 0-.43-.085-.839-.256-1.225a3.424 3.424 0 0 0-.674-1.009 2.966 2.966 0 0 0-.997-.673 3.15 3.15 0 0 0-1.227-.242c-.432 0-.84.08-1.227.242a2.966 2.966 0 0 0-.998.673 3.54 3.54 0 0 0-.674.982c-.17.368-.256.767-.256 1.198z" fill="#676767"/><path fill="#D6D5D5" d="M64.946 14.134V27.94h-4.88V14.134zm-5.204-5.328c0-.377.072-.731.215-1.063a2.792 2.792 0 0 1 1.47-1.467 2.659 2.659 0 0 1 1.065-.215c.377 0 .733.072 1.065.215a2.797 2.797 0 0 1 1.47 1.467c.143.332.215.686.215 1.063 0 .377-.072.73-.215 1.063a2.792 2.792 0 0 1-1.47 1.466 2.659 2.659 0 0 1-1.065.216 2.65 2.65 0 0 1-1.065-.216 2.797 2.797 0 0 1-1.47-1.466 2.645 2.645 0 0 1-.215-1.063zm13.994 9.392v9.742h-4.88v-9.742h-1.618v-4.064h1.617V9.99h4.88v4.144h2.778v4.064z"/><path d="M129.847 20.97a3.203 3.203 0 0 0 .904 2.26c.278.288.61.512.997.673a3.22 3.22 0 0 0 1.254.243c.432 0 .84-.081 1.227-.243.387-.161.72-.385.998-.672a3.52 3.52 0 0 0 .674-.996c.17-.377.256-.78.256-1.211 0-.43-.085-.839-.256-1.225a3.424 3.424 0 0 0-.674-1.009 2.966 2.966 0 0 0-.998-.673 3.15 3.15 0 0 0-1.227-.242c-.431 0-.84.08-1.227.242a2.966 2.966 0 0 0-.997.673 3.54 3.54 0 0 0-.674.982 2.807 2.807 0 0 0-.257 1.198zm6.148-15.394h4.908v22.337h-4.908V26.38c-1.042 1.31-2.454 1.965-4.233 1.965-1.007 0-1.933-.189-2.777-.565a6.87 6.87 0 0 1-2.211-1.561 7.142 7.142 0 0 1-1.47-2.342 7.916 7.916 0 0 1-.526-2.906c0-.987.167-1.924.5-2.812a7.043 7.043 0 0 1 1.415-2.328 6.699 6.699 0 0 1 2.197-1.575c.854-.385 1.793-.578 2.818-.578 1.726 0 3.155.6 4.287 1.803V5.576z" fill="#676767"/><path fill="#676767" opacity=".607" d="M.013.105h48.705L47.306 20.61 3.41 22.204z"/><path d="M26.112 35.56c-4.717 0-8.873-2.877-10.627-7.194l-.437-1.073h4.587l.226.388c1.3 2.237 3.65 3.636 6.251 3.636 2.602 0 4.952-1.399 6.254-3.636l.227-.388h4.587l-.437 1.074c-1.758 4.317-5.914 7.194-10.63 7.194z" fill="#00E676" fill-rule="nonzero"/><path fill="#00E676" d="M23.57 10.591l-8.095 8.11-3.087-3.097 5.008-5.013-5.008-5.013L15.48 2.48z"/><path fill="#00E676" fill-rule="nonzero" d="M28.313 16.085V12.62h11.031v3.465zm49.375 12.014v-2.96h7.091v2.96z"/></g></svg>