<svg width="184" viewBox="0 0 184 150" xmlns="http://www.w3.org/2000/svg"><g fill="#4A4A4A"><path d="M60.78 114.7h17.46v-9.28H60.78v9.28zm-1.5-12.28h20.46a1.5 1.5 0 0 1 1.5 1.5v12.28a1.5 1.5 0 0 1-1.5 1.5H59.28a1.5 1.5 0 0 1-1.5-1.5v-12.28a1.5 1.5 0 0 1 1.5-1.5z"/><path d="M88 117.7H51.08a6.683 6.683 0 0 0-6.51 5.18h49.76c-.668-2.917-3.243-5.112-6.331-5.18zm8 8.18H42.9a1.5 1.5 0 0 1-1.5-1.5c0-5.346 4.334-9.68 9.68-9.68h36.953a9.68 9.68 0 0 1 9.467 9.68 1.5 1.5 0 0 1-1.5 1.5zm39.5-32.18V11.88a8.72 8.72 0 0 0-8.72-8.72H12.22a8.72 8.72 0 0 0-8.72 8.72V93.7a8.72 8.72 0 0 0 8.72 8.72h114.56a8.72 8.72 0 0 0 8.72-8.72zm3 0c0 6.473-5.247 11.72-11.72 11.72H12.22C5.747 105.42.5 100.173.5 93.7V11.88C.5 5.407 5.747.16 12.22.16h114.56c6.473 0 11.72 5.247 11.72 11.72V93.7z"/><path d="M126.78 105.42H12.22C5.747 105.42.5 100.173.5 93.7v-6.14a1.5 1.5 0 0 1 1.5-1.5h135a1.5 1.5 0 0 1 1.5 1.5v6.14c0 6.473-5.247 11.72-11.72 11.72zM3.5 89.06v4.64a8.72 8.72 0 0 0 8.72 8.72h114.56a8.72 8.72 0 0 0 8.72-8.72v-4.64H3.5zm38.78-57.774c-1.173-.533-1.173-2.2 0-2.732l26.6-12.08a1.5 1.5 0 0 1 1.24 0l26.6 12.08c1.173.533 1.173 2.2 0 2.732l-26.6 12.08a1.5 1.5 0 0 1-1.24 0l-26.6-12.08zm27.22 9.067L92.472 29.92 69.5 19.487 46.528 29.92 69.5 40.353z"/><path d="M68 42a1.5 1.5 0 0 1 .88-1.366l26.6-12.08a1.5 1.5 0 0 1 2.12 1.366v31.42a1.5 1.5 0 0 1-.879 1.365l-26.6 12.1A1.5 1.5 0 0 1 68 73.44V42zm3 29.11l23.6-10.736V32.25L71 42.966V71.11z"/><path d="M41.4 29.92a1.5 1.5 0 0 1 2.12-1.366l26.6 12.08A1.5 1.5 0 0 1 71 42v31.44a1.5 1.5 0 0 1-2.121 1.365l-26.6-12.1a1.5 1.5 0 0 1-.879-1.365V29.92zm3 2.329v28.125L68 71.11V42.966L44.4 32.25zM180.5 145v-25.38a1.918 1.918 0 0 0-1.9-1.92h-25.331a1.92 1.92 0 0 0-1.909 1.92V145c0 1.05.85 1.9 1.9 1.9h25.34a1.9 1.9 0 0 0 1.9-1.9zm3 0a4.9 4.9 0 0 1-4.9 4.9h-25.34a4.9 4.9 0 0 1-4.9-4.9v-25.38a4.922 4.922 0 0 1 4.9-4.92h25.349a4.92 4.92 0 0 1 4.891 4.92V145zm-44.78-11.12a12.96 12.96 0 0 0-12.96-12.96c-7.158 0-12.96 5.802-12.96 12.96 0 7.158 5.802 12.96 12.96 12.96 7.158 0 12.96-5.802 12.96-12.96zm3 0c0 8.814-7.146 15.96-15.96 15.96s-15.96-7.146-15.96-15.96 7.146-15.96 15.96-15.96a15.96 15.96 0 0 1 15.96 15.96z"/><path d="M138.72 133.88a12.96 12.96 0 0 0-12.96-12.96c-7.158 0-12.96 5.802-12.96 12.96 0 7.158 5.802 12.96 12.96 12.96 7.158 0 12.96-5.802 12.96-12.96zm3 0c0 8.814-7.146 15.96-15.96 15.96s-15.96-7.146-15.96-15.96 7.146-15.96 15.96-15.96a15.96 15.96 0 0 1 15.96 15.96zm12.277-33.5h24.026a1.9 1.9 0 0 0 1.642-2.862l-11.999-20.5a1.92 1.92 0 0 0-3.311 0l-12.001 20.5a1.9 1.9 0 0 0 1.643 2.862zm-4.253.54a4.9 4.9 0 0 1 .021-4.918l12.001-20.5a4.92 4.92 0 0 1 8.489 0l11.999 20.5a4.9 4.9 0 0 1-4.234 7.378h-24.019a4.9 4.9 0 0 1-4.257-2.46zM69.5 98.94a3.2 3.2 0 1 1 0-6.4 3.2 3.2 0 0 1 0 6.4zm0-3a.2.2 0 1 0 0-.4.2.2 0 0 0 0 .4z"/></g></svg>