<svg width="182" height="130" xmlns="http://www.w3.org/2000/svg"><g fill="#4A4A4A"><path d="M79.911 59.59v14.822a32.76 32.76 0 0 0 3.717 2.384c.474.292.964.556 1.482.797l.445.212V59.59H79.91zm8.644-1.5v22.007a1.5 1.5 0 0 1-2.021 1.407c-.678-.251-1.285-.52-2.215-.964l-.488-.234a16.605 16.605 0 0 1-1.713-.919 35.116 35.116 0 0 1-4.628-3.047 1.5 1.5 0 0 1-.579-1.184V58.09a1.5 1.5 0 0 1 1.5-1.5h8.644a1.5 1.5 0 0 1 1.5 1.5zm15.689 22.77c1.873 0 2.053 2.742.196 2.987a2.486 2.486 0 0 1-.649 0c-1.857-.245-1.678-2.988.196-2.988h.257zm-.062.012a.514.514 0 0 0-.134 0l.067.51.067-.51z"/><path d="M3.5 55.245v66.802a3.948 3.948 0 0 0 3.94 3.957h111.52c2.18 0 3.952-1.77 3.96-3.957V92.678a1.5 1.5 0 0 1 3 0v29.374c-.014 3.843-3.125 6.952-6.96 6.952H7.44c-3.834 0-6.94-3.116-6.94-6.957V53.745a1.5 1.5 0 0 1 1.5-1.5h46.74a1.5 1.5 0 1 1 0 3H3.5z"/><path d="M54.519 53.982a1.5 1.5 0 0 1 2.962-.474 42.941 42.941 0 0 0 6.54 16.84c13.017 19.926 39.605 25.608 59.586 12.735a1.5 1.5 0 1 1 1.625 2.522c-21.368 13.767-49.804 7.69-63.72-13.613a45.935 45.935 0 0 1-6.993-18.01zm-5.779-1.837a1.5 1.5 0 1 1 0 3H2a1.5 1.5 0 0 1-1.5-1.5V42.33a7.548 7.548 0 0 1 7.434-7.429h41.301a1.5 1.5 0 1 1 0 3H7.96a4.538 4.538 0 0 0-4.46 4.453v9.791h45.24z"/><path d="M57.48 53.5a1.5 1.5 0 1 1-2.96.489 45.97 45.97 0 0 1 .593-17.929 1.5 1.5 0 1 1 2.921.682 42.97 42.97 0 0 0-.554 16.759zm-46.836-4.03a4.393 4.393 0 0 1-4.388-4.397 4.393 4.393 0 0 1 4.388-4.397 4.393 4.393 0 0 1 4.388 4.397 4.393 4.393 0 0 1-4.388 4.397zm0-3c.765 0 1.388-.624 1.388-1.397s-.623-1.397-1.388-1.397c-.765 0-1.388.624-1.388 1.397s.623 1.397 1.388 1.397zm11.512 3a4.393 4.393 0 0 1-4.388-4.397 4.393 4.393 0 0 1 4.388-4.397 4.393 4.393 0 0 1 4.388 4.397 4.393 4.393 0 0 1-4.388 4.397zm0-3c.765 0 1.388-.624 1.388-1.397s-.623-1.397-1.388-1.397c-.765 0-1.388.624-1.388 1.397s.623 1.397 1.388 1.397zm11.532 3a4.393 4.393 0 0 1-4.388-4.397 4.393 4.393 0 0 1 4.388-4.397 4.393 4.393 0 0 1 4.388 4.397 4.393 4.393 0 0 1-4.388 4.397zm0-3c.765 0 1.388-.624 1.388-1.397s-.623-1.397-1.388-1.397c-.766 0-1.388.624-1.388 1.397s.622 1.397 1.388 1.397zm22.245 27.273a1.5 1.5 0 0 1 1.518 2.588 4.234 4.234 0 0 1-2.163.583H16.4a4.395 4.395 0 0 1-4.388-4.377v-2.908a4.415 4.415 0 0 1 4.388-4.387h35.881a1.5 1.5 0 1 1 0 3h-35.87a1.41 1.41 0 0 0-1.399 1.398v2.886a1.393 1.393 0 0 0 1.388 1.388h38.897c.223.001.443-.058.636-.17zm-.645 16.066c.363 0 .712-.146.969-.405.258-.26.402-.614.399-.992v-2.888a1.382 1.382 0 0 0-.399-.982 1.364 1.364 0 0 0-.97-.405H16.4c-.765 0-1.388.625-1.388 1.397v2.878c0 .772.623 1.397 1.388 1.397h38.888zm-38.888 3a4.393 4.393 0 0 1-4.388-4.397v-2.878a4.393 4.393 0 0 1 4.388-4.397h38.888a4.376 4.376 0 0 1 4.368 4.397v2.867a4.382 4.382 0 0 1-1.267 3.113 4.364 4.364 0 0 1-3.101 1.295H16.4zm95.044 24.444a1.37 1.37 0 0 0 1.388-1.378v-11.568a1.37 1.37 0 0 0-1.388-1.377H16.499a1.39 1.39 0 0 0-1.388 1.377v11.558a1.393 1.393 0 0 0 1.388 1.388h94.945zm-94.945 3a4.395 4.395 0 0 1-4.388-4.378v-11.579a4.392 4.392 0 0 1 4.388-4.367h94.935a4.363 4.363 0 0 1 3.11 1.273 4.382 4.382 0 0 1 1.288 3.105v11.568a4.382 4.382 0 0 1-1.288 3.105 4.363 4.363 0 0 1-3.105 1.273H16.5zm120.467-45.36a45.237 45.237 0 0 1-6.16 6.52l7.483 7.567 6.33-6.365-7.653-7.722zm10.83 8.782l-8.447 8.493a1.5 1.5 0 0 1-2.13-.003l-9.692-9.803a1.5 1.5 0 0 1 .126-2.223 42.237 42.237 0 0 0 7.927-8.412 1.5 1.5 0 0 1 2.288-.187l9.93 10.022a1.5 1.5 0 0 1-.003 2.113zM76.832 58.09a1.5 1.5 0 0 1 1.5-1.5h8.644a1.5 1.5 0 0 1 1.5 1.5v22.007a1.5 1.5 0 0 1-2.022 1.407c-.677-.251-1.284-.52-2.214-.964a405.03 405.03 0 0 1-.488-.234 16.605 16.605 0 0 1-1.713-.919 35.116 35.116 0 0 1-4.628-3.047 1.5 1.5 0 0 1-.58-1.184V58.09zm3 16.322a32.76 32.76 0 0 0 3.717 2.384c.474.292.964.556 1.482.797l.445.212V59.59h-5.644v14.822zm24.35 6.46a.514.514 0 0 0-.134 0l.067.51.067-.51zm-.195-.013h.257c1.873 0 2.053 2.743.196 2.988a2.486 2.486 0 0 1-.649 0c-1.857-.245-1.678-2.988.196-2.988z"/><path d="M138.024 73.466a45.198 45.198 0 0 1-8.475 8.998 44.016 44.016 0 0 1-3.95 2.909l-.366.231C103.86 99.385 75.409 93.307 61.49 71.99a46.486 46.486 0 0 1-6.398-35.925C59.268 17.951 73.81 4.08 92.054.807c18.246-3.272 36.679 4.685 46.853 20.226 10.515 15.985 10.166 36.808-.883 52.433zM136.4 22.68C126.883 8.142 109.646.7 92.584 3.76 75.522 6.82 61.921 19.794 58.015 36.739a43.488 43.488 0 0 0 5.986 33.608c13.018 19.939 39.621 25.622 59.616 12.73l.357-.227a41.072 41.072 0 0 0 3.679-2.71 42.23 42.23 0 0 0 7.924-8.41c10.334-14.614 10.66-34.095.823-49.05zm-7.687 4.88c-9.106-13.662-26.564-18.963-41.69-12.661C71.892 21.2 63.31 37.353 66.53 53.469a34.27 34.27 0 0 0 9.49 17.6 29.707 29.707 0 0 0 3.312 2.903 32.566 32.566 0 0 0 4.296 2.824c.474.292.964.556 1.482.797l.5.24c.856.407 1.394.646 2.02.878a31.567 31.567 0 0 0 8.065 2.148h8.47a33.002 33.002 0 0 0 8.236-1.982 15.42 15.42 0 0 0 1.742-.72l1.11-.507c.42-.199.83-.42 1.302-.703a32.264 32.264 0 0 0 4.035-2.542c-.1.081 1.185-.949 1.54-1.24.495-.407.906-.76 1.247-1.071l1.097-1.062c11.562-11.621 13.339-29.82 4.24-43.472zm-3.279 46.717c-.415.38-.866.768-1.4 1.206-.372.305-1.673 1.348-1.609 1.295a34.68 34.68 0 0 1-4.387 2.776 16.53 16.53 0 0 1-1.52.816l-1.098.502c-.664.321-1.347.603-1.998.825a35.865 35.865 0 0 1-9.021 2.154l-8.801.008c-3.256-.396-6.26-1.191-9.066-2.355-.678-.251-1.285-.52-2.215-.964l-.488-.234a16.605 16.605 0 0 1-1.713-.919 35.023 35.023 0 0 1-4.61-3.033 32.518 32.518 0 0 1-3.614-3.168 37.255 37.255 0 0 1-10.306-19.128c-3.499-17.518 5.83-35.076 22.28-41.929 16.453-6.853 35.44-1.088 45.341 13.767 9.9 14.852 7.957 34.652-4.64 47.283-.013.014-.391.38-1.135 1.098z"/><path d="M124.366 71.041c11.588-11.62 13.375-29.837 4.268-43.501-9.106-13.662-26.564-18.963-41.69-12.661-15.13 6.302-23.712 22.455-20.493 38.57a34.27 34.27 0 0 0 9.49 17.6c.29.296.588.586.89.87V58.09a1.5 1.5 0 0 1 1.5-1.5h8.724a1.5 1.5 0 0 1 1.5 1.5v20.988a31.568 31.568 0 0 0 5.545 1.535V46.522a1.5 1.5 0 0 1 1.5-1.5h8.644a1.5 1.5 0 0 1 1.5 1.5v34.144a32.865 32.865 0 0 0 5.644-1.352v-45.79a1.5 1.5 0 0 1 1.5-1.5h8.644a1.5 1.5 0 0 1 1.5 1.5v38.878a27.3 27.3 0 0 0 .345-.308l.726-.703c.068-.123.155-.241.263-.35zm2.204 2.137l-1.136 1.099c-.415.38-.866.768-1.4 1.206-.372.305-1.673 1.348-1.56 1.257-.981.792-2.442.094-2.442-1.167v-40.55h-5.644v45.352a1.5 1.5 0 0 1-.979 1.406 35.864 35.864 0 0 1-9.02 2.071 1.5 1.5 0 0 1-1.645-1.493V48.022H97.1v34.337a1.5 1.5 0 0 1-1.687 1.489 34.567 34.567 0 0 1-8.932-2.365 1.5 1.5 0 0 1-.926-1.386V59.59h-5.723v15.546c0 1.238-1.415 1.943-2.403 1.198a32.518 32.518 0 0 1-3.614-3.168A37.255 37.255 0 0 1 63.509 54.04c-3.499-17.519 5.83-35.077 22.28-41.93 16.453-6.853 35.44-1.088 45.341 13.767 9.798 14.7 7.996 34.247-4.256 46.893a1.53 1.53 0 0 1-.304.41z"/><path d="M79.911 59.59v14.822a32.76 32.76 0 0 0 3.717 2.384c.474.292.964.556 1.482.797l.445.212V59.59H79.91zm8.644-1.5v22.007a1.5 1.5 0 0 1-2.021 1.407c-.678-.251-1.285-.52-2.215-.964l-.488-.234a16.605 16.605 0 0 1-1.713-.919 35.116 35.116 0 0 1-4.628-3.047 1.5 1.5 0 0 1-.579-1.184V58.09a1.5 1.5 0 0 1 1.5-1.5h8.644a1.5 1.5 0 0 1 1.5 1.5zm87.873 52.336l-26.66-26.745a1.4 1.4 0 0 0-1.973-.006l-8.446 8.493-.17.152c-.511.555-.5 1.422.03 1.958l26.689 26.754a7.09 7.09 0 0 0 5.045 2.11c1.894 0 3.71-.759 5.101-2.164l.407-.37c2.776-2.824 2.768-7.37-.023-10.182zm-30.754-28.872a4.402 4.402 0 0 1 6.215.004l26.666 26.752c3.963 3.992 3.963 10.445 0 14.437l-.433.394a10.086 10.086 0 0 1-14.353.005L137.08 96.392a4.424 4.424 0 0 1 0-6.217l.183-.164 8.411-8.457zm-31.286-46.53v43.022l.865-.396c.42-.199.83-.42 1.302-.703a32.285 32.285 0 0 0 3.477-2.14V35.024h-5.644zm8.644-1.5v42.049a1.5 1.5 0 0 1-.607 1.205 34.68 34.68 0 0 1-4.387 2.776 16.53 16.53 0 0 1-1.52.816l-1.098.502a18.52 18.52 0 0 1-2.045.842 1.5 1.5 0 0 1-1.987-1.418V33.524a1.5 1.5 0 0 1 1.5-1.5h8.644a1.5 1.5 0 0 1 1.5 1.5zM97.1 48.12v32.74h5.644V48.041l-5.644.078zm7.082 32.752a.514.514 0 0 0-.067-.004l.067.004zM95.6 83.86a1.5 1.5 0 0 1-1.5-1.5V46.641a1.5 1.5 0 0 1 1.48-1.5l8.643-.12a1.5 1.5 0 0 1 1.521 1.5V82.36a1.5 1.5 0 0 1-1.304 1.488 2.486 2.486 0 0 1-.529.012H95.6z"/><path d="M104.244 80.86c1.873 0 2.053 2.742.196 2.987a2.486 2.486 0 0 1-.649 0c-1.857-.245-1.678-2.988.196-2.988h.257zm-.062.012a.514.514 0 0 0-.134 0l.067.51.067-.51zM79.911 59.59v14.822a32.76 32.76 0 0 0 3.717 2.384c.474.292.964.556 1.482.797l.445.212V59.59H79.91zm8.644-1.5v22.007a1.5 1.5 0 0 1-2.021 1.407c-.678-.251-1.285-.52-2.215-.964l-.488-.234a16.605 16.605 0 0 1-1.713-.919 35.116 35.116 0 0 1-4.628-3.047 1.5 1.5 0 0 1-.579-1.184V58.09a1.5 1.5 0 0 1 1.5-1.5h8.644a1.5 1.5 0 0 1 1.5 1.5z"/></g></svg>