<svg width="184" height="170" xmlns="http://www.w3.org/2000/svg"><g fill="#4A4A4A"><path d="M144.65 3.879a.06.06 0 0 0-.05.014.073.073 0 0 0-.021.031l.518 13.967c.003.044.034.08.027.08.018.004.036-.005.046-.025l6.164-12.728c.001-.028-.02-.043-.043-.05l-6.642-1.29zm7.236-1.652c.928.2 1.694.782 2.14 1.63a3.04 3.04 0 0 1 .004 2.677l-6.158 12.717c-.606 1.257-1.99 1.94-3.406 1.647a3.11 3.11 0 0 1-2.365-2.862l-.52-14.016a3.06 3.06 0 0 1 1.052-2.393 3.08 3.08 0 0 1 2.553-.7l6.7 1.3zm-25.503-.734a2.927 2.927 0 0 1 2.633.555 3.119 3.119 0 0 1 1.164 2.324l.26 14.007a3.04 3.04 0 0 1-5.69 1.531l-6.88-12.34-.051-.1a3.096 3.096 0 0 1-.018-2.58 3.02 3.02 0 0 1 2.057-1.746l6.525-1.65zm-5.795 4.561c-.021.005-.026.01-.047.056a.12.12 0 0 0-.007.077l6.831 12.254a.04.04 0 0 0 .046.019c.017-.005.03-.021.03-.032l-.26-13.962c0-.023-.01-.045-.036-.071l-6.557 1.66zM88.183 70.647c-.007.014 3.28 3.32 9.861 9.916.007.006.017.008.041-.007.016-.01.023-.029.02-.039l-4.114-13.501a.04.04 0 0 0-.057-.023l-5.751 3.654zm4.153-6.193a3.047 3.047 0 0 1 2.668-.279 3.05 3.05 0 0 1 1.85 1.948l4.123 13.527a3.034 3.034 0 0 1-1.326 3.464 3.02 3.02 0 0 1-3.733-.434l-9.857-9.878a3.02 3.02 0 0 1 .515-4.688l5.76-3.66zM69.458 86.869l3.763-5.624a2.984 2.984 0 0 1 2.248-1.357 3.042 3.042 0 0 1 2.49.91l9.65 9.99a3.015 3.015 0 0 1 .407 3.721 3.014 3.014 0 0 1-3.519 1.278l-13.48-4.374a3.083 3.083 0 0 1-1.872-1.877 3.06 3.06 0 0 1 .313-2.667zm2.515 1.669c.009.023.026.04.01.035L85.44 92.94c.009.003.019 0 .032-.022.005-.008.004-.018-.012-.035l-9.658-9.998c-.008-.008-.02-.013-.064-.009l-3.76 5.62a.057.057 0 0 0-.006.043zm-6.109-78.72l5.303 4.339a3.01 3.01 0 0 1 1.113 2.363c0 .946-.452 1.835-1.17 2.357l-10.952 8.65a3.04 3.04 0 0 1-4.652-3.61l5.686-12.952c.382-.85 1.127-1.48 2.076-1.728a3.1 3.1 0 0 1 2.596.581zm-1.883 2.333c-.024.006-.043.022-.047.032L58.26 25.107a.04.04 0 0 0 .012.047c.014.011.034.011.037.009L69.28 16.5c0-.006-1.756-1.447-5.27-4.323-.022-.016-.047-.022-.03-.027zm5.313 4.339c-.008.007-.013.015-.014.01l.014-.01zm.002-.002l-.002.002.002-.002zM45.645.56c.93.028 1.794.483 2.324 1.206.568.739.76 1.7.523 2.59l-3.5 13.503a3.04 3.04 0 0 1-2.942 2.272 3.048 3.048 0 0 1-2.949-2.3L35.814 4.143A3.02 3.02 0 0 1 38.882.242l6.763.319zm-6.916 2.678l-.027-.001c-.02.013-.022.02-.02.026l.037.127L42.01 17.1a.04.04 0 0 0 .039.03c.018 0 .034-.012.038-.026l3.503-13.51-.02-.027c-.004-.004-.01-.007-.042-.009l-6.8-.32zm8.523 47.087a1.5 1.5 0 1 1-.424-2.97l3.64-.52a1.5 1.5 0 1 1 .424 2.97l-3.64.52zm19.6 16.432a1.5 1.5 0 1 1 .456 2.966l-1.82.28a1.5 1.5 0 1 1-.456-2.966l1.82-.28zm.776-7.542a1.5 1.5 0 1 1 .424 2.97l-1.82.26a1.5 1.5 0 1 1-.424-2.97l1.82-.26zm.76-7.56a1.5 1.5 0 1 1 .424 2.97l-1.82.26a1.5 1.5 0 1 1-.424-2.97l1.82-.26zM2.217 57.844a1.5 1.5 0 1 1-.434-2.968l20.571-3.009c1.804-.176 3.444 1.054 3.79 2.895l3.5 23.843a4.04 4.04 0 0 1-3.426 4.58l-20 2.94a1.5 1.5 0 0 1-.436-2.97l20.01-2.94a1.04 1.04 0 0 0 .884-1.177l-3.49-23.78c-.048-.255-.282-.43-.469-.414l-20.5 3z"/><path d="M28.511 80.979a1.5 1.5 0 0 1-1.735-1.26l-3.6-24.5a1.5 1.5 0 0 1 1.186-1.69l3.04-.613a4.04 4.04 0 0 1 4.582 3.407l2.86 19.582a4.04 4.04 0 0 1-.766 3.004 4.013 4.013 0 0 1-2.627 1.57l-2.94.5zm2.48-3.464a1.04 1.04 0 0 0 .885-1.178l-2.86-19.577c-.084-.567-.612-.959-1.098-.89l-1.567.318 3.17 21.576 1.47-.25z"/><path d="M69.224 44.096a5.188 5.188 0 0 1 3.953 9.213 5.18 5.18 0 0 1 .934 5.42 5.21 5.21 0 0 1-1.711 2.203 5.18 5.18 0 0 1-.792 7.542 5.19 5.19 0 0 1-3.153 8.55l-15.997 2.32c-4.417.649-7.382.43-11.46-.468.06.013-1.175-.262-1.5-.331a26.064 26.064 0 0 0-1.375-.262c-1.222-.194-2.251-.221-3.37-.055l-1.08.14a1.5 1.5 0 0 1-1.677-1.272l-3.04-20.94a1.5 1.5 0 0 1 1.265-1.7c6.624-.978 10.042-10.084 8.495-20.678l-.2-1.357a5.643 5.643 0 0 1 4.73-6.406c3.675-.53 5.907 2.806 7.293 8.646.813 3.42 1.29 7.47 1.553 11.937l17.132-2.502zm-2.284 22.66c-1.972.292-1.544 3.248.43 2.97l1.84-.26a5.168 5.168 0 0 0 2.398-.991 5.186 5.186 0 0 0-4.668-1.719zM38.593 75.32c.469.074.95.167 1.531.29.34.073 1.591.352 1.519.336 3.751.826 6.367 1.019 10.382.43l15.995-2.32a2.19 2.19 0 0 0-.64-4.332l-.43-2.97 1.844-.26a2.18 2.18 0 1 0-.64-4.312L67.92 60.7l-.228-1.483 1.876-.287a2.18 2.18 0 1 0-.628-4.313l-.26-1.477-.212-1.485 1.816-.26a2.188 2.188 0 0 0-.627-4.33l-18.76 2.74a1.5 1.5 0 0 1-1.715-1.416c-.23-4.95-.703-9.422-1.561-13.035-1.053-4.434-2.489-6.58-3.93-6.372a2.64 2.64 0 0 0-2.207 3l.2 1.361c1.653 11.322-1.842 21.543-9.559 23.764l2.627 18.095c1.266-.147 2.482-.097 3.84.118zm97.439-27.965a1.5 1.5 0 1 1-.424 2.97l-3.64-.52a1.5 1.5 0 1 1 .424-2.97l3.64.52zm-20.48 22.368a1.5 1.5 0 1 1 .456-2.966l1.82.28a1.5 1.5 0 1 1-.456 2.966l-1.82-.28zm-.744-7.538a1.5 1.5 0 1 1 .424-2.97l1.82.26a1.5 1.5 0 1 1-.424 2.97l-1.82-.26zm-.76-7.56a1.5 1.5 0 1 1 .424-2.97l1.82.26a1.5 1.5 0 1 1-.424 2.97l-1.82-.26zm68.169.411a1.5 1.5 0 1 1-.434 2.968l-21.566-3.15c-.26-.026-.495.153-.533.364l-3.5 23.817a1.04 1.04 0 0 0 .893 1.18l20 2.92a1.5 1.5 0 1 1-.434 2.97l-19.992-2.92a4.04 4.04 0 0 1-3.435-4.583l3.507-23.865c.32-1.795 1.965-3.044 3.854-2.861l21.64 3.16z"/><path d="M156.51 56.187l-1.487-.303a1.04 1.04 0 0 0-1.179.873l-2.86 19.578c-.04.274.032.552.198.774.166.221.413.367.73.412l1.427.243 3.17-21.577zm-2.161 24.792l-2.898-.494a4.04 4.04 0 0 1-3.435-4.582l2.86-19.583c.328-2.204 2.377-3.727 4.662-3.39l2.96.6a1.5 1.5 0 0 1 1.186 1.688l-3.6 24.5a1.5 1.5 0 0 1-1.735 1.26z"/><path d="M141.216 33.342l.2-1.36a2.64 2.64 0 0 0-2.23-2.997c-1.458-.21-2.894 1.935-3.947 6.37-.858 3.612-1.332 8.083-1.56 13.034a1.5 1.5 0 0 1-1.717 1.415l-18.618-2.74a2.188 2.188 0 0 0-.632 4.331l1.82.26-.212 1.485-.26 1.477a2.18 2.18 0 0 0-2.395 2.974c.301.735.978 1.248 1.823 1.346l1.82.28c1.962.302 1.532 3.242-.434 2.969a2.18 2.18 0 0 0-2.456 1.84 2.177 2.177 0 0 0 1.804 2.47l1.74.26c1.976.296 1.536 3.26-.442 2.968a2.19 2.19 0 0 0-.645 4.332l16.003 2.32c4.012.589 6.628.396 10.38-.43-.073.016 1.177-.263 1.518-.335a28.91 28.91 0 0 1 1.531-.291c1.367-.217 2.588-.266 3.841-.119l2.627-18.094c-7.717-2.221-11.212-12.442-9.559-23.765zm-8.895 1.319c1.386-5.84 3.618-9.176 7.295-8.645a5.64 5.64 0 0 1 4.768 6.402l-.2 1.359c-1.547 10.595 1.87 19.701 8.495 20.68a1.5 1.5 0 0 1 1.265 1.699l-3.04 20.94a1.5 1.5 0 0 1-1.677 1.272l-1.107-.144c-1.092-.162-2.12-.135-3.343.059-.41.065-.842.148-1.375.262-.325.069-1.56.344-1.5.33-4.078.899-7.043 1.118-11.457.47l-16.005-2.321a5.19 5.19 0 0 1-3.085-8.62 5.178 5.178 0 0 1-.706-7.44 5.177 5.177 0 0 1-1.001-7.45c.057-.07.115-.138.175-.205a5.189 5.189 0 0 1 3.956-9.213l16.99 2.5c.261-4.467.74-8.515 1.552-11.935zm-34.916 80.623a1.5 1.5 0 1 1-.53 2.952l-5.02-.9a1.5 1.5 0 1 1 .53-2.952l5.02.9zM68.36 144.137a1.5 1.5 0 1 1 .52-2.954l2.5.44a1.5 1.5 0 1 1-.52 2.954l-2.5-.44zm-.72-10.46a1.5 1.5 0 1 1 .52-2.954l2.5.44a1.5 1.5 0 1 1-.52 2.954l-2.5-.44zm-.73-10.461a1.5 1.5 0 0 1 .54-2.952l2.52.46a1.5 1.5 0 0 1-.54 2.952l-2.52-.46zm96.793 5.187a1.5 1.5 0 0 1-.526 2.954l-32.743-5.84c-.565-.102-1.109.265-1.217.785l-6.003 33.795c-.105.56.26 1.1.79 1.206l30.42 5.42a1.5 1.5 0 0 1-.527 2.954l-30.45-5.426a4.037 4.037 0 0 1-3.184-4.693l6.008-33.822a4.06 4.06 0 0 1 4.692-3.173l32.74 5.84z"/><path d="M126.038 127.37l-3.512-.632c-.571-.098-1.118.271-1.23.785l-5.122 28.794c-.105.56.26 1.1.785 1.206l3.549.622 5.53-30.774zm-4.577 33.987l-5.054-.886a4.037 4.037 0 0 1-3.184-4.694l5.13-28.832a4.083 4.083 0 0 1 4.693-3.161l5 .9a1.5 1.5 0 0 1 1.21 1.741l-6.06 33.72a1.5 1.5 0 0 1-1.735 1.212z"/><path d="M105.824 95.713l.338-1.872a4.24 4.24 0 0 0-3.423-4.904c-2.422-.428-4.657 2.696-6.379 9.036-1.356 4.993-2.213 11.186-2.745 18.003a1.5 1.5 0 0 1-1.76 1.36l-25.57-4.587a3.6 3.6 0 0 0-1.271 7.047l2.426.427c1.949.343 1.467 3.26-.488 2.96a3.58 3.58 0 0 0-4.069 2.91c-.34 1.915.909 3.751 2.777 4.13l2.5.44-.558 2.947a3.58 3.58 0 0 0-4.066 4.754 3.594 3.594 0 0 0 2.844 2.299l2.5.44-.558 2.947a3.58 3.58 0 0 0-4.066 4.754c.452 1.218 1.528 2.096 2.854 2.3l21.893 4c5.649 1.005 9.308.84 14.693-.178.23-.043 1.008-.192 1.056-.2.418-.08.736-.14 1.044-.195.79-.142 1.453-.246 2.095-.324 1.971-.242 3.712-.23 5.549.096l4.614-25.903c-10.559-3.004-15.011-17.13-12.23-32.687zm-12.36 1.474c2.102-7.735 5.17-12.023 9.801-11.203a7.242 7.242 0 0 1 5.851 8.383l-.34 1.877c-2.652 14.84 1.766 27.843 11.268 29.54a1.5 1.5 0 0 1 1.213 1.739l-5.12 28.78a1.5 1.5 0 0 1-1.737 1.214l-1.482-.26c-1.523-.27-2.97-.28-4.662-.073-1.01.124-.934.11-4.003.69-5.714 1.08-9.721 1.26-15.783.182l-21.858-3.993a6.58 6.58 0 0 1-3.34-11.45 6.578 6.578 0 0 1-.645-10.505 6.581 6.581 0 0 1-.466-10.413 6.602 6.602 0 0 1 4.454-11.929l24.146 4.326c.55-6.34 1.4-12.103 2.704-16.905z"/></g></svg>