<svg width="184" height="162" xmlns="http://www.w3.org/2000/svg"><g fill="#4A4A4A"><path d="M164.54 145.38a1.5 1.5 0 0 1 0 3h-35.82a1.5 1.5 0 0 1 0-3h35.82zm-130.72 0a1.5 1.5 0 0 1 0 3H2a1.5 1.5 0 0 1 0-3h31.82zm66.54 0a1.5 1.5 0 0 1 0 3H62.2a1.5 1.5 0 0 1 0-3h38.16zm-75.38-61.6a33.534 33.534 0 0 0-18.513-8.688 5.194 5.194 0 0 1-4.097-2.798 5.27 5.27 0 0 1 .011-4.889l2.963-5.464a7.985 7.985 0 0 1 9.058-3.886 56.8 56.8 0 0 1 19.063 9.429 1.5 1.5 0 0 1-1.81 2.392 53.777 53.777 0 0 0-18.038-8.926 4.979 4.979 0 0 0-5.638 2.425l-2.95 5.44a2.267 2.267 0 0 0 .007 2.104 2.22 2.22 0 0 0 1.775 1.193 36.594 36.594 0 0 1 20.25 9.507 2.24 2.24 0 0 0 1.892.635l.207-.014h.18a1.5 1.5 0 0 1 0 3c-1.675.187-3.265-.363-4.36-1.46z"/><path d="M20.7 69.68a.78.78 0 0 1 .6.28.76.76 0 0 1 .18.58.7.7 0 0 1-.28.52.78.78 0 0 1-1.1-.1.78.78 0 0 1 0-1.1.74.74 0 0 1 .5-.18h.1zm-.1-2a2.7 2.7 0 0 0-1.76.64 2.78 2.78 0 0 0 1.76 4.92 2.82 2.82 0 0 0 1.78-.64 2.78 2.78 0 0 0 .36-4 2.76 2.76 0 0 0-2.14-1v.08zm88.404 78.672l3.363 8.949a4.96 4.96 0 0 0 6.419 2.917 5 5 0 0 0 2.93-6.45l-1.64-4.36-6.659-17.72a52.4 52.4 0 0 1-8.667 5.32l4.254 11.344zm4.723 14.478a7.955 7.955 0 0 1-4.171-4.482l-3.36-8.941-4.74-12.64a1.5 1.5 0 0 1 .783-1.893 49.4 49.4 0 0 0 10.91-6.793 1.5 1.5 0 0 1 2.355.631l7.38 19.64 1.64 4.359a8 8 0 0 1-4.674 10.312 7.96 7.96 0 0 1-6.123-.193zm-64.604-31.142l-6.657 17.714-1.64 4.41a5 5 0 0 0 5.487 6.829c1.796-.315 3.278-1.582 3.883-3.349l3.36-8.939 4.253-11.343a52.06 52.06 0 0 1-8.686-5.322zm11.981 5.079l-4.74 12.64-3.345 8.899a8 8 0 0 1-13.806 2.42c-1.826-2.273-2.27-5.36-1.18-8.008l1.623-4.366 7.38-19.64a1.5 1.5 0 0 1 2.356-.631 49.06 49.06 0 0 0 10.926 6.792 1.5 1.5 0 0 1 .786 1.894zM29.609 85.16a1.5 1.5 0 0 1-.498-2.96 2.08 2.08 0 0 0 1.476-1.046l3.738-6.755c.493-.899.3-2.018-.494-2.728-.536-.505-1.029-.906-2.19-1.805a1.5 1.5 0 1 1 1.838-2.372c1.239.96 1.78 1.4 2.38 1.967a5.201 5.201 0 0 1 1.094 6.385l-3.74 6.759a5.08 5.08 0 0 1-3.604 2.554z"/><path d="M27.883 90.621a1.5 1.5 0 0 1 2.994-.202 50.266 50.266 0 0 0 18.515 35.662 49.07 49.07 0 0 0 10.93 6.794 50.501 50.501 0 0 0 41.917 0 49.415 49.415 0 0 0 10.915-6.799 50.38 50.38 0 0 0 18.567-37.134 1.5 1.5 0 0 1 2.998.116 53.376 53.376 0 0 1-19.667 39.341 52.396 52.396 0 0 1-11.57 7.206 53.497 53.497 0 0 1-44.4.002 52.04 52.04 0 0 1-11.586-7.201A53.26 53.26 0 0 1 27.883 90.62z"/><path d="M37.727 82.51a1.5 1.5 0 0 1 2.986.3 41.242 41.242 0 0 0-.213 4.11 40.66 40.66 0 0 0 17.09 33.138 38.41 38.41 0 0 0 6.192 3.586 40.858 40.858 0 0 0 34.993.002 39.226 39.226 0 0 0 6.118-3.63 40.5 40.5 0 0 0 16.971-29.97 1.5 1.5 0 1 1 2.992.228 43.492 43.492 0 0 1-18.217 32.182 42.188 42.188 0 0 1-6.577 3.9 43.852 43.852 0 0 1-37.55.006 41.36 41.36 0 0 1-6.662-3.86A43.66 43.66 0 0 1 37.5 86.92c0-1.444.077-2.908.227-4.41zm6.072-11.66a1.5 1.5 0 0 1-2.758-1.18 43.8 43.8 0 0 1 78.488-4.142 1.5 1.5 0 0 1-2.618 1.464 40.8 40.8 0 0 0-73.112 3.859z"/><path d="M36.742 63.069a1.5 1.5 0 1 1-2.644-1.418 53.5 53.5 0 0 1 93.851-.823 1.5 1.5 0 0 1-2.618 1.464 50.5 50.5 0 0 0-88.589.777z"/><path d="M111.013 70.494a1.5 1.5 0 1 1-2.626 1.452c-7.352-13.29-23.255-19.291-37.554-14.17-14.3 5.121-22.777 19.853-20.02 34.79 2.758 14.936 15.937 25.67 31.122 25.349 15.185-.322 27.898-11.605 30.02-26.645a1.5 1.5 0 0 1 2.97.42c-2.327 16.496-16.271 28.871-32.927 29.224-16.655.353-31.11-11.421-34.135-27.804-3.024-16.382 6.275-32.541 21.959-38.158 15.683-5.618 33.127.964 41.19 15.542zM133.5 75.5a1.5 1.5 0 0 1-3 0c0-.017-.013-.087-.047-.208a7.456 7.456 0 0 0-.082-.262 12.251 12.251 0 0 1-.108-.339 1.5 1.5 0 1 1 2.874-.862c.019.064.026.085.087.273.05.155.081.254.113.366.105.366.163.688.163 1.032z"/><path d="M111.013 70.494a1.5 1.5 0 1 1-2.626 1.452c-7.352-13.29-23.255-19.291-37.554-14.17-14.3 5.121-22.777 19.853-20.02 34.79 2.758 14.936 15.937 25.67 31.122 25.349 15.185-.322 27.898-11.605 30.02-26.645a1.5 1.5 0 0 1 2.97.42c-2.327 16.496-16.271 28.871-32.927 29.224-16.655.353-31.11-11.421-34.135-27.804-3.024-16.382 6.275-32.541 21.959-38.158 15.683-5.618 33.127.964 41.19 15.542z"/><path d="M43.799 70.85a1.5 1.5 0 0 1-2.758-1.18 43.8 43.8 0 0 1 78.488-4.142 1.5 1.5 0 0 1-2.618 1.464 40.8 40.8 0 0 0-73.112 3.859zm-6.072 11.66a1.5 1.5 0 0 1 2.986.3 41.242 41.242 0 0 0-.213 4.11 40.66 40.66 0 0 0 17.09 33.138 38.41 38.41 0 0 0 6.192 3.586 40.858 40.858 0 0 0 34.993.002 39.226 39.226 0 0 0 6.118-3.63 40.5 40.5 0 0 0 16.971-29.97 1.5 1.5 0 1 1 2.992.228 43.492 43.492 0 0 1-18.217 32.182 42.188 42.188 0 0 1-6.577 3.9 43.852 43.852 0 0 1-37.55.006 41.36 41.36 0 0 1-6.662-3.86A43.66 43.66 0 0 1 37.5 86.92c0-1.444.077-2.908.227-4.41z"/><path d="M111.013 70.494a1.5 1.5 0 1 1-2.626 1.452c-7.352-13.29-23.255-19.291-37.554-14.17-14.3 5.121-22.777 19.853-20.02 34.79 2.758 14.936 15.937 25.67 31.122 25.349 15.185-.322 27.898-11.605 30.02-26.645a1.5 1.5 0 0 1 2.97.42c-2.327 16.496-16.271 28.871-32.927 29.224-16.655.353-31.11-11.421-34.135-27.804-3.024-16.382 6.275-32.541 21.959-38.158 15.683-5.618 33.127.964 41.19 15.542z"/><path d="M111.013 70.494a1.5 1.5 0 1 1-2.626 1.452c-7.352-13.29-23.255-19.291-37.554-14.17-14.3 5.121-22.777 19.853-20.02 34.79 2.758 14.936 15.937 25.67 31.122 25.349 15.185-.322 27.898-11.605 30.02-26.645a1.5 1.5 0 0 1 2.97.42c-2.327 16.496-16.271 28.871-32.927 29.224-16.655.353-31.11-11.421-34.135-27.804-3.024-16.382 6.275-32.541 21.959-38.158 15.683-5.618 33.127.964 41.19 15.542z"/><path d="M101.81 92.396a1.5 1.5 0 1 1 2.9.768c-2.991 11.301-13.589 18.884-25.25 18.067-11.663-.816-21.1-9.802-22.487-21.41-1.387-11.608 5.668-22.565 16.81-26.106 11.14-3.54 23.226 1.332 28.796 11.61a1.5 1.5 0 0 1-2.638 1.43c-4.883-9.013-15.48-13.286-25.25-10.18-9.77 3.104-15.955 12.711-14.74 22.89 1.217 10.178 9.492 18.057 19.718 18.774 10.225.716 19.518-5.933 22.14-15.843zM89.644 3.722l2.39 5.782a7.984 7.984 0 0 1-2.796 9.466 55.884 55.884 0 0 1-22.445 9.232 5.177 5.177 0 0 1-5.627-3.229l-2.843-7.166a5.22 5.22 0 0 1 .418-4.643c.86-1.396 2.327-2.306 3.905-2.451a33.59 33.59 0 0 0 18.579-8.759 5.22 5.22 0 0 1 8.42 1.768zm-4.36-.162a2.227 2.227 0 0 0-2 .576 36.634 36.634 0 0 1-20.305 9.558 2.22 2.22 0 0 0-1.865 3.013l2.844 7.169a2.174 2.174 0 0 0 2.346 1.366 52.845 52.845 0 0 0 21.206-8.724 4.975 4.975 0 0 0 1.744-5.885l-2.38-5.757a2.22 2.22 0 0 0-1.59-1.316z"/><path d="M75.6 15.1c.43 0 .78.35.78.78a.76.76 0 0 1-.78.78.78.78 0 0 1-.78-.78.8.8 0 0 1 .78-.78zm0-2a2.78 2.78 0 1 0 2.78 2.78 2.8 2.8 0 0 0-2.78-2.78zm96.817 96.901a7.982 7.982 0 0 1-7.394 6.577 55.94 55.94 0 0 1-23.965-3.964 5.227 5.227 0 0 1-3.054-5.639l1.36-7.585a5.22 5.22 0 0 1 2.8-3.73c1.469-.734 3.197-.735 4.615-.026a33.417 33.417 0 0 0 20.389 2.323 5.266 5.266 0 0 1 4.766 1.296 5.22 5.22 0 0 1 1.543 4.686l-1.06 6.062zm-1.895-6.58a2.215 2.215 0 0 0-.646-1.985 2.278 2.278 0 0 0-2.079-.546 36.474 36.474 0 0 1-22.307-2.548 2.22 2.22 0 0 0-3.174 1.583l-1.355 7.554c-.161 1 .374 1.98 1.258 2.37a52.894 52.894 0 0 0 22.633 3.734 4.98 4.98 0 0 0 4.61-4.101l1.06-6.06z"/><path d="M155.12 106.1a.72.72 0 0 1 .4.12.74.74 0 0 1 .36.48.78.78 0 0 1 0 .6.8.8 0 0 1-.66.36.84.84 0 0 1-.42-.12.7.7 0 0 1-.34-.48.8.8 0 0 1 .76-.96h-.1zm.1-2a2.8 2.8 0 0 0-2.36 1.32 2.74 2.74 0 0 0 .9 3.82 2.62 2.62 0 0 0 1.46.42 2.78 2.78 0 0 0 0-5.56zm20.079-53.906a1.5 1.5 0 0 1-.181 2.492l-5.885 3.323a29.82 29.82 0 0 1-22.05 2.843 1.5 1.5 0 0 1-1.075-1.83 28.62 28.62 0 0 1 13.445-17.603l5.86-3.36a1.5 1.5 0 0 1 2.23 1.078l1.211 8.065 6.445 4.992zm-25.852 6.1a26.816 26.816 0 0 0 18.315-2.9l3.915-2.21-5.136-3.978a1.5 1.5 0 0 1-.564-.963l-.975-6.49-3.955 2.268a25.62 25.62 0 0 0-11.6 14.272zm33.856 27.162a1.5 1.5 0 0 1-1.125 2.233l-6.7.8a29.5 29.5 0 0 1-21.472-5.9 1.5 1.5 0 0 1-.28-2.096 28.68 28.68 0 0 1 19.14-11.1l6.618-.783a1.5 1.5 0 0 1 1.636 1.834l-1.865 7.925 4.048 7.087zm-26.223-4.344a26.5 26.5 0 0 0 18.042 4.399l4.453-.532-3.218-5.635a1.5 1.5 0 0 1-.157-1.088l1.51-6.415-4.465.528a25.68 25.68 0 0 0-16.165 8.743zM79.78 97.74a1.5 1.5 0 0 1 3 0v2.7a1.5 1.5 0 0 1-3 0v-2.7zm0-24.38a1.5 1.5 0 0 1 3 0v2.7a1.5 1.5 0 0 1-3 0v-2.7z"/><path d="M74.36 92.292a1.5 1.5 0 1 1 3 .056 3.92 3.92 0 1 0 3.926-3.848 6.92 6.92 0 1 1 6.894-6.92 1.5 1.5 0 0 1-3 0 3.92 3.92 0 1 0-3.9 3.92 6.92 6.92 0 1 1-6.92 6.792zm39.508-6.164a1.5 1.5 0 0 1-.376-2.976l9.68-1.22 9.7-1.22a1.5 1.5 0 0 1 .375 2.976l-9.7 1.22-9.68 1.22zm14.948-19.75a1.5 1.5 0 1 1 1.488 2.604l-8.542 4.881-8.64 4.92a1.5 1.5 0 1 1-1.484-2.606l8.638-4.92 8.54-4.88z"/><path d="M120.278 71.257a1.5 1.5 0 1 1 1.484 2.606l-8.64 4.92a1.5 1.5 0 1 1-1.484-2.606l8.64-4.92zm-6.41 14.871a1.5 1.5 0 0 1-.376-2.976l9.68-1.22a1.5 1.5 0 0 1 .376 2.976l-9.68 1.22zm-10.079-1.736a1.5 1.5 0 0 1 .382 2.976l-8.08 1.04c-1.628.21-2.361-1.973-.937-2.79l7.68-4.4a1.5 1.5 0 0 1 1.492 2.604l-1.13.646.593-.076z"/><path d="M111.635 76.178a1.5 1.5 0 1 1 1.49 2.604l-8.8 5.04a1.5 1.5 0 1 1-1.49-2.604l8.8-5.04zm18.669-7.196a1.5 1.5 0 0 1-1.488-2.604l18.02-10.3 19.88-11.34a1.5 1.5 0 1 1 1.487 2.605l-19.879 11.34-18.02 10.3zm-16.814 14.17a1.5 1.5 0 0 1 .38 2.976l-9.7 1.24a1.5 1.5 0 0 1-.38-2.976l9.7-1.24zm19.57.548a1.5 1.5 0 0 1-1.5-1.5c0-.775.562-1.413 1.31-1.508l21.862-2.78 22.76-2.88a1.5 1.5 0 0 1 .376 2.976l-22.759 2.88-21.619 2.75a1.5 1.5 0 0 1-.43.062z"/></g></svg>