<?xml version="1.0" encoding="UTF-8"?>
<svg width="73px" height="91px" viewBox="0 0 73 91" version="1.1" xmlns="http://www.w3.org/2000/svg" xmlns:xlink="http://www.w3.org/1999/xlink">
    <!-- Generator: Sketch 51.3 (57544) - http://www.bohemiancoding.com/sketch -->
    <title>production</title>
    <desc>Created with Sketch.</desc>
    <defs></defs>
    <g id="website" stroke="none" stroke-width="1" fill="none" fill-rule="evenodd">
        <g id="production" transform="translate(1.000000, 1.000000)" fill="#00E676" fill-rule="nonzero">
            <path d="M37.5054077,5.45950856 C37.8627622,5.25005538 38.3222506,5.36995308 38.5317038,5.72730758 C38.741157,6.08466208 38.6212593,6.5441505 38.2639048,6.75360368 L20.5659632,17.1267492 C20.2086087,17.3362024 19.7491203,17.2163047 19.5396671,16.8589502 C19.3302139,16.5015957 19.4501116,16.0421073 19.8074661,15.8326541 L37.5054077,5.45950856 Z" id="Shape"></path>
            <path d="M43.760098,1.70549293 C43.1300078,1.08444496 42.2763787,0.740265883 41.3896215,0.749955232 C39.5616189,0.769929307 38.0951371,2.2581378 38.1084446,4.07707757 C38.1217524,5.89604765 39.6099005,7.36283988 41.4380315,7.35625463 C43.2661476,7.34966944 44.743591,5.87221795 44.7437007,4.05321471 C44.7437539,3.17138715 44.3896661,2.32602636 43.760098,1.70549293 Z M41.4434347,8.8562449 C38.79024,8.86580217 36.627846,6.73443989 36.6084847,4.08805143 C36.5891233,1.44163266 38.7201494,-0.720965733 41.3732324,-0.749955232 C42.6595168,-0.764010103 43.8981347,-0.264605501 44.8130651,0.637195076 C45.7285175,1.5395102 46.2437781,2.76966031 46.2437007,4.05330521 C46.243541,6.69977916 44.0966444,8.84668758 41.4434347,8.8562449 Z" id="Shape"></path>
            <path d="M41.381427,29.700587 L41.381427,28.200587 C44.041559,28.200587 46.199099,30.3504827 46.199099,33.003847 C46.199099,35.6572113 44.041559,37.807107 41.381427,37.807107 L41.381427,36.307107 C43.2143214,36.307107 44.699099,34.82759 44.699099,33.003847 C44.699099,31.180104 43.2143214,29.700587 41.381427,29.700587 Z" id="Shape"></path>
            <path d="M43.7729191,56.7307802 C43.1507275,56.1107932 42.3064898,55.7623375 41.4260286,55.7623375 C39.5931342,55.7623375 38.1083566,57.2418544 38.1083566,59.0655974 C38.1083566,60.8893405 39.5931342,62.3688574 41.4260286,62.3688574 C43.2589231,62.3688574 44.7437007,60.8893405 44.7437007,59.0655974 C44.7437007,58.1900794 44.3945976,57.3502562 43.7729191,56.7307802 Z M41.4260286,63.8688574 C38.7658966,63.8688574 36.6083566,61.7189617 36.6083566,59.0655974 C36.6083566,56.4122331 38.7658966,54.2623375 41.4260286,54.2623375 C42.7031949,54.2623375 43.9282138,54.7679591 44.8316952,55.6682394 C45.7356896,56.5690309 46.2437007,57.7911327 46.2437007,59.0655974 C46.2437007,61.7189617 44.0861607,63.8688574 41.4260286,63.8688574 Z" id="Shape"></path>
            <path d="M66.0818304,15.2297379 C64.2489359,15.2297379 62.7641583,16.7092548 62.7641583,18.5329978 C62.7641583,20.3567409 64.2489359,21.8362578 66.0818304,21.8362578 C67.9147248,21.8362578 69.3995024,20.3567409 69.3995024,18.5329978 C69.3995024,16.7092548 67.9147248,15.2297379 66.0818304,15.2297379 Z M66.0818304,23.3362578 C63.4216983,23.3362578 61.2641583,21.1863621 61.2641583,18.5329978 C61.2641583,15.8796335 63.4216983,13.7297379 66.0818304,13.7297379 C68.7419624,13.7297379 70.8995024,15.8796335 70.8995024,18.5329978 C70.8995024,21.1863621 68.7419624,23.3362578 66.0818304,23.3362578 Z" id="Shape"></path>
            <path d="M16.6899439,15.2297379 C14.8570495,15.2297379 13.3722719,16.7092548 13.3722719,18.5329978 C13.3722719,20.3567409 14.8570495,21.8362578 16.6899439,21.8362578 C18.5228384,21.8362578 20.007616,20.3567409 20.007616,18.5329978 C20.007616,16.7092548 18.5228384,15.2297379 16.6899439,15.2297379 Z M16.6899439,23.3362578 C14.0298119,23.3362578 11.8722719,21.1863621 11.8722719,18.5329978 C11.8722719,15.8796335 14.0298119,13.7297379 16.6899439,13.7297379 C19.350076,13.7297379 21.507616,15.8796335 21.507616,18.5329978 C21.507616,21.1863621 19.350076,23.3362578 16.6899439,23.3362578 Z" id="Shape"></path>
            <path d="M69.3995024,44.5858596 C69.3995024,42.7621165 67.9147248,41.2825996 66.0818304,41.2825996 C64.2489359,41.2825996 62.7641583,42.7621165 62.7641583,44.5858596 C62.7641583,46.4096026 64.2489359,47.8891195 66.0818304,47.8891195 C67.9147248,47.8891195 69.3995024,46.4096026 69.3995024,44.5858596 Z M70.8995024,44.5858596 C70.8995024,47.2392239 68.7419624,49.3891195 66.0818304,49.3891195 C63.4216983,49.3891195 61.2641583,47.2392239 61.2641583,44.5858596 C61.2641583,41.9324952 63.4216983,39.7825996 66.0818304,39.7825996 C68.7419624,39.7825996 70.8995024,41.9324952 70.8995024,44.5858596 Z" id="Shape"></path>
            <path d="M20.007616,44.5858596 C20.007616,42.7621165 18.5228384,41.2825996 16.6899439,41.2825996 C14.8570495,41.2825996 13.3722719,42.7621165 13.3722719,44.5858596 C13.3722719,46.4096026 14.8570495,47.8891195 16.6899439,47.8891195 C18.5228384,47.8891195 20.007616,46.4096026 20.007616,44.5858596 Z M21.507616,44.5858596 C21.507616,47.2392239 19.350076,49.3891195 16.6899439,49.3891195 C14.0298119,49.3891195 11.8722719,47.2392239 11.8722719,44.5858596 C11.8722719,41.9324952 14.0298119,39.7825996 16.6899439,39.7825996 C19.350076,39.7825996 21.507616,41.9324952 21.507616,44.5858596 Z" id="Shape"></path>
            <path d="M46.8406711,77.9063539 C47.2548846,77.9063539 47.5906711,78.2421403 47.5906711,78.6563539 C47.5906711,79.0705675 47.2548846,79.4063539 46.8406711,79.4063539 L31.8812718,79.4063539 C31.4670583,79.4063539 31.1312718,79.0705675 31.1312718,78.6563539 C31.1312718,78.2421403 31.4670583,77.9063539 31.8812718,77.9063539 L46.8406711,77.9063539 Z" id="Shape"></path>
            <path d="M65.9939614,71.1890409 C66.5109989,70.9774024 67.064314,70.8678617 67.6231987,70.8664836 C67.6824698,70.8663375 67.7406957,70.8731808 67.7968917,70.8864078 C69.7696883,70.9498548 71.451851,72.3607938 71.8402474,74.3061474 C72.2397551,76.307154 71.1575922,78.308513 69.2489234,79.0812919 C69.0361992,79.1626734 60.5441432,82.6897807 57.4680766,83.9572116 C57.3193289,84.0184946 57.3193289,84.0184946 57.1705528,84.079767 C49.733637,87.142326 45.7481217,88.7325833 44.9298315,88.8936836 C39.2608609,90.1618417 33.3250273,89.8114986 27.8237992,87.879394 L23.924254,86.5100511 C21.9002898,85.7949555 20.2872269,85.5798973 17.910078,85.5752678 C17.6439175,85.5747494 17.4335615,85.5758529 16.9438827,85.5795732 C16.5081345,85.5828838 16.3070465,85.5840198 16.0566002,85.5840198 C15.6423867,85.5840198 15.3066002,85.2482334 15.3066002,84.8340198 L15.3066002,65.5099252 C15.3066002,65.0957117 15.6423867,64.7599252 16.0566002,64.7599252 L25.7619231,64.7599252 C30.1852328,64.7599252 32.6634729,65.8069922 35.0128755,68.0319842 C35.262094,68.2680055 36.0361504,69.0353559 36.0968983,69.0942768 C37.4534854,70.4100624 38.3837395,70.8931475 40.0344566,70.8931475 L46.8406711,70.8931475 C49.1978194,70.8931477 51.1097424,72.7982967 51.1097424,75.1497507 C51.1097424,76.0046171 50.857049,76.8004966 50.4221357,77.4672931 L65.9939614,71.1890409 Z M66.5585271,72.5787351 L50.706181,78.9700981 C49.9877861,79.2586454 49.2204364,79.4067495 48.4463311,79.4063539 L46.8406711,79.4063539 C45.8406711,79.4063539 45.840671,77.906354 46.840671,77.9063539 C48.3705817,77.9063538 49.6097424,76.6715835 49.6097424,75.1497507 C49.6097424,73.627918 48.3705817,72.3931476 46.8406711,72.3931475 L40.0344566,72.3931475 C37.9336077,72.3931475 36.6636664,71.7336613 35.0525539,70.1710055 C34.9806617,70.1012756 34.2156776,69.3429188 33.9814437,69.1210886 C31.9030339,67.1527393 29.7898859,66.2599252 25.7619231,66.2599252 L16.8066002,66.2599252 L16.8066002,84.0805595 C17.4269736,84.0758597 17.6404486,84.0747398 17.9129993,84.0752706 C20.4455967,84.0802029 22.2187659,84.3166069 24.422594,85.0952525 L28.320817,86.4641297 C33.5573302,88.3032628 39.2076548,88.6367547 44.6254794,87.4264459 C45.0364944,87.3888908 49.7662009,85.5067069 56.5993803,82.6927695 C56.7480213,82.6315528 56.7480213,82.6315528 56.8966376,82.5703239 C59.9377537,81.3172936 68.4770899,77.7705489 68.699427,77.6856407 C69.9274633,77.1883374 70.6275735,75.8935491 70.3692784,74.5998313 C70.1108509,73.3054506 68.9655436,72.375314 67.6390159,72.3842418 C67.170905,72.3864814 66.8570271,72.4565602 66.5585271,72.5787351 Z" id="Shape"></path>
            <path d="M0.214088003,61.9133372 C-0.200125559,61.9133372 -0.535911997,61.5775508 -0.535911997,61.1633372 C-0.535911997,60.7491237 -0.200125559,60.4133372 0.214088003,60.4133372 L9.00953681,60.4133372 C10.4084685,60.4133372 11.5436035,61.5444504 11.5436035,62.9410828 L11.5436035,86.6117654 C11.5436035,88.0083979 10.4084685,89.139511 9.00953681,89.139511 L0.214088003,89.139511 C-0.200125559,89.139511 -0.535911997,88.8037246 -0.535911997,88.389511 C-0.535911997,87.9752975 -0.200125559,87.639511 0.214088003,87.639511 L9.00953681,87.639511 C9.58123081,87.639511 10.0436035,87.1787766 10.0436035,86.6117654 L10.0436035,62.9410828 C10.0436035,62.3740717 9.58123081,61.9133372 9.00953681,61.9133372 L0.214088003,61.9133372 Z" id="Shape"></path>
            <path d="M0.214088003,61.9133372 C-0.200125559,61.9133372 -0.535911997,61.5775508 -0.535911997,61.1633372 C-0.535911997,60.7491237 -0.200125559,60.4133372 0.214088003,60.4133372 L9.00953681,60.4133372 C10.4084685,60.4133372 11.5436035,61.5444504 11.5436035,62.9410828 L11.5436035,86.6117654 C11.5436035,88.0083979 10.4084685,89.139511 9.00953681,89.139511 L0.214088003,89.139511 C-0.200125559,89.139511 -0.535911997,88.8037246 -0.535911997,88.389511 C-0.535911997,87.9752975 -0.200125559,87.639511 0.214088003,87.639511 L9.00953681,87.639511 C9.58123081,87.639511 10.0436035,87.1787766 10.0436035,86.6117654 L10.0436035,62.9410828 C10.0436035,62.3740717 9.58123081,61.9133372 9.00953681,61.9133372 L0.214088003,61.9133372 Z" id="Shape"></path>
            <path d="M10.7668425,87.3350993 C10.3526289,87.3350993 10.0168425,86.9993128 10.0168425,86.5850993 L10.0168425,62.8877505 C10.0168425,62.4735369 10.3526289,62.1377505 10.7668425,62.1377505 L14.2725336,62.1377505 C15.6714652,62.1377505 16.8066002,63.2688636 16.8066002,64.6654961 L16.8066002,84.8073537 C16.8066002,86.2039861 15.6714652,87.3350993 14.2725336,87.3350993 L10.7668425,87.3350993 Z M11.5168425,85.8350993 L14.2725336,85.8350993 C14.8442276,85.8350993 15.3066002,85.3743648 15.3066002,84.8073537 L15.3066002,64.6654961 C15.3066002,64.0984849 14.8442276,63.6377505 14.2725336,63.6377505 L11.5168425,63.6377505 L11.5168425,85.8350993 Z" id="Shape"></path>
            <path d="M62.9552882,15.823707 C63.3126749,16.0331051 63.4326434,16.4925751 63.2232453,16.8499618 C63.0138471,17.2073486 62.5543772,17.3273171 62.1969904,17.1179189 L44.5079692,6.75366209 C44.1505824,6.54426395 44.0306139,6.08479401 44.2400121,5.72740725 C44.4494102,5.37002049 44.9088801,5.25005202 45.2662669,5.45945016 L62.9552882,15.823707 Z" id="Shape"></path>
            <path d="M62.1879277,19.9392715 C62.5452684,19.7297947 63.0047647,19.8496621 63.2142415,20.2070028 C63.4237183,20.5643434 63.3038509,21.0238398 62.9465102,21.2333165 L45.2664093,31.5975734 C44.9090686,31.8070501 44.4495723,31.6871828 44.2400955,31.3298421 C44.0306187,30.9725014 44.1504861,30.5130051 44.5078268,30.3035283 L62.1879277,19.9392715 Z" id="Shape"></path>
            <path d="M45.2664093,31.5975734 C44.9090686,31.8070501 44.4495723,31.6871828 44.2400955,31.3298421 C44.0306187,30.9725014 44.1504861,30.5130051 44.5078268,30.3035283 L62.1879277,19.9392715 C62.5452684,19.7297947 63.0047647,19.8496621 63.2142415,20.2070028 C63.4237183,20.5643434 63.3038509,21.0238398 62.9465102,21.2333165 L45.2664093,31.5975734 Z" id="Shape"></path>
            <path d="M66.8318304,40.5325996 C66.8318304,40.9468132 66.4960439,41.2825996 66.0818304,41.2825996 C65.6676168,41.2825996 65.3318304,40.9468132 65.3318304,40.5325996 L65.3318304,22.5862578 C65.3318304,22.1720442 65.6676168,21.8362578 66.0818304,21.8362578 C66.4960439,21.8362578 66.8318304,22.1720442 66.8318304,22.5862578 L66.8318304,40.5325996 Z" id="Shape"></path>
            <path d="M45.257304,57.6594322 C44.8999035,57.8688068 44.4404414,57.7488081 44.2310668,57.3914076 C44.0216922,57.034007 44.1416909,56.574545 44.4990914,56.3651704 L62.2059533,45.9920248 C62.5633539,45.7826502 63.0228159,45.9026489 63.2321905,46.2600494 C63.4415652,46.6174499 63.3215665,47.076912 62.9641659,47.2862866 L45.257304,57.6594322 Z" id="Shape"></path>
            <path d="M40.631427,37.057107 C40.631427,36.6428934 40.9672134,36.307107 41.381427,36.307107 C41.7956405,36.307107 42.131427,36.6428934 42.131427,37.057107 L42.131427,55.0123375 C42.131427,55.426551 41.7956405,55.7623375 41.381427,55.7623375 C40.9672134,55.7623375 40.631427,55.426551 40.631427,55.0123375 L40.631427,37.057107 Z" id="Shape"></path>
            <path d="M42.131427,55.0123375 C42.131427,55.426551 41.7956405,55.7623375 41.381427,55.7623375 C40.9672134,55.7623375 40.631427,55.426551 40.631427,55.0123375 L40.631427,37.057107 C40.631427,36.6428934 40.9672134,36.307107 41.381427,36.307107 C41.7956405,36.307107 42.131427,36.6428934 42.131427,37.057107 L42.131427,55.0123375 Z" id="Shape"></path>
            <path d="M38.2640471,30.3124754 C38.6213555,30.5220072 38.7411522,30.981522 38.5316204,31.3388304 C38.3220886,31.6961388 37.8625738,31.8159355 37.5052654,31.6064037 L19.8162441,21.2332581 C19.4589357,21.0237263 19.3391391,20.5642116 19.5486709,20.2069031 C19.7582026,19.8495947 20.2177174,19.7297981 20.5750258,19.9393299 L38.2640471,30.3124754 Z" id="Shape"></path>
            <path d="M19.8164742,21.233393 C19.4590913,21.0239883 19.3391313,20.5645162 19.548536,20.2071333 C19.7579407,19.8497503 20.2174128,19.7297903 20.5747957,19.939195 L37.8534817,30.0634562 C38.2108646,30.2728609 38.3308246,30.732333 38.1214199,31.0897159 C37.9120152,31.4470988 37.4525431,31.5670589 37.0951602,31.3576542 L19.8164742,21.233393 Z" id="Shape"></path>
            <path d="M41.381427,36.307107 L41.381427,37.807107 C38.7212949,37.807107 36.5637549,35.6572113 36.5637549,33.003847 C36.5637549,30.3504827 38.7212949,28.200587 41.381427,28.200587 L41.381427,29.700587 C39.5485325,29.700587 38.0637549,31.180104 38.0637549,33.003847 C38.0637549,34.82759 39.5485325,36.307107 41.381427,36.307107 Z" id="Shape"></path>
            <path d="M15.9399439,22.5862578 C15.9399439,22.1720442 16.2757304,21.8362578 16.6899439,21.8362578 C17.1041575,21.8362578 17.4399439,22.1720442 17.4399439,22.5862578 L17.4399439,40.5325996 C17.4399439,40.9468132 17.1041575,41.2825996 16.6899439,41.2825996 C16.2757304,41.2825996 15.9399439,40.9468132 15.9399439,40.5325996 L15.9399439,22.5862578 Z" id="Shape"></path>
            <path d="M20.0930617,47.455174 C19.7356603,47.2458009 19.6156597,46.7863394 19.8250328,46.428938 C20.0344059,46.0715366 20.4938675,45.9515359 20.8512689,46.160909 L38.2548395,56.35628 C38.6122409,56.5656532 38.7322415,57.0251147 38.5228684,57.3825161 C38.3134953,57.7399175 37.8540337,57.8599182 37.4966323,57.650545 L20.0930617,47.455174 Z" id="Shape"></path>
        </g>
    </g>
</svg>