<?xml version="1.0" encoding="UTF-8"?>
<svg width="92px" height="98px" viewBox="0 0 92 98" version="1.1" xmlns="http://www.w3.org/2000/svg" xmlns:xlink="http://www.w3.org/1999/xlink">
    <!-- Generator: Sketch 51.3 (57544) - http://www.bohemiancoding.com/sketch -->
    <title>design</title>
    <desc>Created with Sketch.</desc>
    <defs></defs>
    <g id="website" stroke="none" stroke-width="1" fill="none" fill-rule="evenodd">
        <g id="design" transform="translate(1.000000, 1.000000)" fill="#00E676" fill-rule="nonzero">
            <path d="M66.0948361,91.4050429 C67.2527447,89.3289852 67.2047777,86.7906419 65.970022,84.7610603 L54.3575125,65.7569235 C53.1488046,63.7498608 52.5164969,61.4485548 52.53,59.11 L52.53,46.75 L37.51,46.75 L37.51,59.1097744 C37.5107061,61.4567105 36.8636123,63.7583055 35.6395864,65.7617004 L24.010127,84.7508164 C22.7666157,86.7875914 22.719432,89.3369948 23.8867252,91.4183885 C25.0540184,93.4997821 27.253959,94.7889467 29.64,94.79 L60.3774299,94.79 C62.7535541,94.7732057 64.9373244,93.480389 66.0948361,91.4050429 Z M60.3850244,96.2899832 L29.6396689,96.2899999 C26.7109396,96.2887072 24.0110125,94.7065506 22.5784254,92.1521129 C21.1458383,89.5976753 21.2037456,86.4688621 22.7304136,83.9682996 L34.36,64.9789756 C35.4396579,63.2118708 36.0106231,61.1810517 36.01,59.11 L36.01,46 C36.01,45.5857864 36.3457864,45.25 36.76,45.25 L53.28,45.25 C53.6942136,45.25 54.03,45.5857864 54.03,46 L54.0299875,59.1143265 C54.018062,61.1815747 54.5759806,63.2121388 55.639978,64.9789397 L67.2507387,83.9801873 C68.7670542,86.4725685 68.8259228,89.587808 67.4048532,92.135697 C65.9837835,94.6835859 63.3023511,96.2704391 60.3850244,96.2899832 Z" id="Shape"></path>
            <path d="M53.28,46.75 L36.75,46.75 C34.30614,46.75 32.325,44.76886 32.325,42.325 C32.325,39.88114 34.30614,37.9 36.75,37.9 L53.28,37.9 C55.72386,37.9 57.705,39.88114 57.705,42.325 C57.705,44.76886 55.72386,46.75 53.28,46.75 Z M53.28,45.25 C54.8954329,45.25 56.205,43.9404329 56.205,42.325 C56.205,40.7095671 54.8954329,39.4 53.28,39.4 L36.75,39.4 C35.1345671,39.4 33.825,40.7095671 33.825,42.325 C33.825,43.9404329 35.1345671,45.25 36.75,45.25 L53.28,45.25 Z" id="Shape"></path>
            <path d="M41.34,65.07 C40.9257864,65.07 40.59,64.7342136 40.59,64.32 C40.59,63.9057864 40.9257864,63.57 41.34,63.57 L48.68,63.57 C49.0942136,63.57 49.43,63.9057864 49.43,64.32 C49.43,64.7342136 49.0942136,65.07 48.68,65.07 L41.34,65.07 Z" id="Shape"></path>
            <path d="M41.34,70.58 C40.9257864,70.58 40.59,70.2442136 40.59,69.83 C40.59,69.4157864 40.9257864,69.08 41.34,69.08 L48.68,69.08 C49.0942136,69.08 49.43,69.4157864 49.43,69.83 C49.43,70.2442136 49.0942136,70.58 48.68,70.58 L41.34,70.58 Z" id="Shape"></path>
            <path d="M41.34,81.6 C40.9257864,81.6 40.59,81.2642136 40.59,80.85 C40.59,80.4357864 40.9257864,80.1 41.34,80.1 L48.68,80.1 C49.0942136,80.1 49.43,80.4357864 49.43,80.85 C49.43,81.2642136 49.0942136,81.6 48.68,81.6 L41.34,81.6 Z" id="Shape"></path>
            <path d="M41.34,87.11 C40.9257864,87.11 40.59,86.7742136 40.59,86.36 C40.59,85.9457864 40.9257864,85.61 41.34,85.61 L48.68,85.61 C49.0942136,85.61 49.43,85.9457864 49.43,86.36 C49.43,86.7742136 49.0942136,87.11 48.68,87.11 L41.34,87.11 Z" id="Shape"></path>
            <path d="M28.89,76.09 C28.4757864,76.09 28.14,75.7542136 28.14,75.34 C28.14,74.9257864 28.4757864,74.59 28.89,74.59 L61.13,74.59 C61.5442136,74.59 61.88,74.9257864 61.88,75.34 C61.88,75.7542136 61.5442136,76.09 61.13,76.09 L28.89,76.09 Z" id="Shape"></path>
            <path d="M78.81,53.76 C78.81,54.1742136 78.4742136,54.51 78.06,54.51 C77.6457864,54.51 77.31,54.1742136 77.31,53.76 L77.31,52.38 C77.31,51.9657864 77.6457864,51.63 78.06,51.63 C78.4742136,51.63 78.81,51.9657864 78.81,52.38 L78.81,53.76 Z" id="Shape"></path>
            <path d="M81.5103301,55.5003301 C81.2174369,55.7932233 80.7425631,55.7932233 80.4496699,55.5003301 C80.1567767,55.2074369 80.1567767,54.7325631 80.4496699,54.4396699 L81.4296699,53.4596699 C81.7225631,53.1667767 82.1974369,53.1667767 82.4903301,53.4596699 C82.7832233,53.7525631 82.7832233,54.2274369 82.4903301,54.5203301 L81.5103301,55.5003301 Z" id="Shape"></path>
            <path d="M82.19,58.64 C81.7757864,58.64 81.44,58.3042136 81.44,57.89 C81.44,57.4757864 81.7757864,57.14 82.19,57.14 L83.57,57.14 C83.9842136,57.14 84.32,57.4757864 84.32,57.89 C84.32,58.3042136 83.9842136,58.64 83.57,58.64 L82.19,58.64 Z" id="Shape"></path>
            <path d="M80.4496699,61.3403301 C80.1567767,61.0474369 80.1567767,60.5725631 80.4496699,60.2796699 C80.7425631,59.9867767 81.2174369,59.9867767 81.5103301,60.2796699 L82.4903301,61.2596699 C82.7832233,61.5525631 82.7832233,62.0274369 82.4903301,62.3203301 C82.1974369,62.6132233 81.7225631,62.6132233 81.4296699,62.3203301 L80.4496699,61.3403301 Z" id="Shape"></path>
            <path d="M77.31,62.02 C77.31,61.6057864 77.6457864,61.27 78.06,61.27 C78.4742136,61.27 78.81,61.6057864 78.81,62.02 L78.81,63.4 C78.81,63.8142136 78.4742136,64.15 78.06,64.15 C77.6457864,64.15 77.31,63.8142136 77.31,63.4 L77.31,62.02 Z" id="Shape"></path>
            <path d="M74.6069573,60.2823965 C74.8983447,59.9880051 75.3732121,59.9855699 75.6676035,60.2769573 C75.9619949,60.5683447 75.9644301,61.0432121 75.6730427,61.3376035 L74.7030427,62.3176035 C74.4116553,62.6119949 73.9367879,62.6144301 73.6423965,62.3230427 C73.3480051,62.0316553 73.3455699,61.5567879 73.6369573,61.2623965 L74.6069573,60.2823965 Z" id="Shape"></path>
            <path d="M73.93,57.14 C74.3442136,57.14 74.68,57.4757864 74.68,57.89 C74.68,58.3042136 74.3442136,58.64 73.93,58.64 L72.55,58.64 C72.1357864,58.64 71.8,58.3042136 71.8,57.89 C71.8,57.4757864 72.1357864,57.14 72.55,57.14 L73.93,57.14 Z" id="Shape"></path>
            <path d="M75.6730427,54.4423965 C75.9644301,54.7367879 75.9619949,55.2116553 75.6676035,55.5030427 C75.3732121,55.7944301 74.8983447,55.7919949 74.6069573,55.4976035 L73.6369573,54.5176035 C73.3455699,54.2232121 73.3480051,53.7483447 73.6423965,53.4569573 C73.9367879,53.1655699 74.4116553,53.1680051 74.7030427,53.4623965 L75.6730427,54.4423965 Z" id="Shape"></path>
            <path d="M65.04,23.91 C65.04,24.3242136 64.7042136,24.66 64.29,24.66 C63.8757864,24.66 63.54,24.3242136 63.54,23.91 L63.54,16.56 C63.54,16.1457864 63.8757864,15.81 64.29,15.81 C64.7042136,15.81 65.04,16.1457864 65.04,16.56 L65.04,23.91 Z" id="Shape"></path>
            <path d="M60.61,20.99 C60.1957864,20.99 59.86,20.6542136 59.86,20.24 C59.86,19.8257864 60.1957864,19.49 60.61,19.49 L67.96,19.49 C68.3742136,19.49 68.71,19.8257864 68.71,20.24 C68.71,20.6542136 68.3742136,20.99 67.96,20.99 L60.61,20.99 Z" id="Shape"></path>
            <path d="M15.44,61.87 C15.44,62.2842136 15.1042136,62.62 14.69,62.62 C14.2757864,62.62 13.94,62.2842136 13.94,61.87 L13.94,54.52 C13.94,54.1057864 14.2757864,53.77 14.69,53.77 C15.1042136,53.77 15.44,54.1057864 15.44,54.52 L15.44,61.87 Z" id="Shape"></path>
            <path d="M11.02,58.95 C10.6057864,58.95 10.27,58.6142136 10.27,58.2 C10.27,57.7857864 10.6057864,57.45 11.02,57.45 L18.37,57.45 C18.7842136,57.45 19.12,57.7857864 19.12,58.2 C19.12,58.6142136 18.7842136,58.95 18.37,58.95 L11.02,58.95 Z" id="Shape"></path>
            <path d="M19.12,18.4 C19.12,18.8142136 18.7842136,19.15 18.37,19.15 C17.9557864,19.15 17.62,18.8142136 17.62,18.4 L17.62,14.73 C17.62,14.3157864 17.9557864,13.98 18.37,13.98 C18.7842136,13.98 19.12,14.3157864 19.12,14.73 L19.12,18.4 Z" id="Shape"></path>
            <path d="M16.53,17.31 C16.1157864,17.31 15.78,16.9742136 15.78,16.56 C15.78,16.1457864 16.1157864,15.81 16.53,15.81 L20.2,15.81 C20.6142136,15.81 20.95,16.1457864 20.95,16.56 C20.95,16.9742136 20.6142136,17.31 20.2,17.31 L16.53,17.31 Z" id="Shape"></path>
            <path d="M88.91,38.61 C88.91,39.0242136 88.5742136,39.36 88.16,39.36 C87.7457864,39.36 87.41,39.0242136 87.41,38.61 L87.41,34.93 C87.41,34.5157864 87.7457864,34.18 88.16,34.18 C88.5742136,34.18 88.91,34.5157864 88.91,34.93 L88.91,38.61 Z" id="Shape"></path>
            <path d="M86.33,37.52 C85.9157864,37.52 85.58,37.1842136 85.58,36.77 C85.58,36.3557864 85.9157864,36.02 86.33,36.02 L90,36.02 C90.4142136,36.02 90.75,36.3557864 90.75,36.77 C90.75,37.1842136 90.4142136,37.52 90,37.52 L86.33,37.52 Z" id="Shape"></path>
            <path d="M2.59,49.93 C2.59,50.3442136 2.25421356,50.68 1.84,50.68 C1.42578644,50.68 1.09,50.3442136 1.09,49.93 L1.09,46.26 C1.09,45.8457864 1.42578644,45.51 1.84,45.51 C2.25421356,45.51 2.59,45.8457864 2.59,46.26 L2.59,49.93 Z" id="Shape"></path>
            <path d="M-1.11022302e-16,48.85 C-0.414213562,48.85 -0.75,48.5142136 -0.75,48.1 C-0.75,47.6857864 -0.414213562,47.35 -1.11022302e-16,47.35 L3.67,47.35 C4.08421356,47.35 4.42,47.6857864 4.42,48.1 C4.42,48.5142136 4.08421356,48.85 3.67,48.85 L-1.11022302e-16,48.85 Z" id="Shape"></path>
            <path d="M70.1852273,32.1027577 C70.4662657,31.5647279 71.022992,31.227431 71.63,31.227431 C72.237008,31.227431 72.7937343,31.5647279 73.0726797,32.0987798 L76.7790546,39.0920237 C77.0544533,39.5990481 77.041282,40.2138882 76.7444228,40.7086537 C76.4475635,41.2034191 75.9112558,41.5043773 75.34,41.5 L67.9257181,41.4999782 C67.3487442,41.5043773 66.8124365,41.2034191 66.5155772,40.7086537 C66.2194754,40.2151506 66.2056158,39.6021848 66.4788431,39.0959067 L70.1852273,32.1027577 Z M67.8026797,39.8012202 C67.7770903,39.8484139 67.7781407,39.8974502 67.8018166,39.93691 C67.8254925,39.9763698 67.8682655,40.0003726 67.92,40 L75.3457181,40.0000218 C75.3917345,40.0003726 75.4345075,39.9763698 75.4581834,39.93691 C75.4818593,39.8974502 75.4829097,39.8484139 75.4573203,39.8012202 L71.7452273,32.7972423 C71.7228132,32.754332 71.6784117,32.727431 71.63,32.727431 C71.5815883,32.727431 71.5371868,32.754332 71.5126797,32.8012202 L67.8026797,39.8012202 Z" id="Shape"></path>
            <path d="M42.2860308,29.5517865 C42.6826892,29.671097 42.9075241,30.0893724 42.7882135,30.4860308 C42.668903,30.8826892 42.2506276,31.1075241 41.8539692,30.9882135 C37.4899676,29.6755694 33.8262908,26.682839 31.6691426,22.6685824 C29.5119945,18.6543258 29.0381351,13.9474775 30.3516543,9.58440914 C31.4121039,6.05100594 33.8346198,3.08460537 37.0848686,1.33950533 C40.3351175,-0.40559471 44.1460739,-0.786024926 47.6783066,0.282474936 C53.6218564,2.09079685 56.9778055,8.37121586 55.1783135,14.3156982 C53.7250867,19.1552028 48.6274076,21.9038558 43.7832293,20.4579906 C39.8318897,19.2650296 37.5936426,15.0969161 38.7817789,11.1439942 C39.2505188,9.58542996 40.3198172,8.27724728 41.7539715,7.5078053 C43.1881259,6.73836332 44.8693974,6.57083045 46.4269102,7.04205157 C49.1009803,7.84995526 50.6144696,10.6719822 49.8074717,13.3484818 C49.1339773,15.5601682 46.7996631,16.8116654 44.584863,16.1484818 C44.1880565,16.0296649 43.9627013,15.6116696 44.0815182,15.214863 C44.2003351,14.8180565 44.6183304,14.5927013 45.015137,14.7115182 C46.438937,15.1378505 47.9395675,14.3333166 48.3719297,12.9134937 C48.9392778,11.0318127 47.8744513,9.04635497 45.9928122,8.4778645 C44.8162102,8.12188695 43.5463429,8.24842482 42.4631235,8.82958573 C41.3799041,9.41074664 40.5722612,10.3988194 40.2182566,11.5758876 C39.2684113,14.7360167 41.0578121,18.0682786 44.2145046,19.0213292 C48.2635272,20.2298572 52.5264335,17.9313111 53.7421691,13.8827011 C55.3023603,8.72872501 52.3934737,3.28495152 47.2428434,1.71787396 C44.0930872,0.76507408 40.6936811,1.10442112 37.7944311,2.66106543 C34.8951811,4.21770974 32.7342759,6.86376468 31.7881611,10.0162052 C30.5891578,13.9988911 31.0216441,18.2947806 32.9904499,21.9585492 C34.9592556,25.6223177 38.3030538,28.3537504 42.2860308,29.5517865 Z" id="Shape"></path>
            <path d="M6.61,31.42 C6.19578644,31.42 5.86,31.0842136 5.86,30.67 C5.86,30.2557864 6.19578644,29.92 6.61,29.92 L8.29,29.92 C8.97691071,29.92 9.63568734,30.1928742 10.1214066,30.6785934 C10.6071258,31.1643127 10.88,31.8230893 10.88,32.51 L10.8798986,34.0123296 C10.8750441,34.3075904 10.9901958,34.5921859 11.199005,34.800995 C11.4078141,35.0098042 11.6924096,35.1249559 12,35.12 L13.52,35.12 C14.9504175,35.12 16.11,36.2795825 16.11,37.71 L16.11,39.23 C16.11,39.8319904 16.5980096,40.32 17.2,40.32 L18.72,40.32 C20.1504175,40.32 21.31,41.4795825 21.31,42.91 L21.31,44.43 C21.31,45.0319904 21.7980096,45.52 22.4,45.52 L23.92,45.52 C24.3342136,45.52 24.67,45.8557864 24.67,46.27 C24.67,46.6842136 24.3342136,47.02 23.92,47.02 L22.4,47.02 C20.9695825,47.02 19.81,45.8604175 19.81,44.43 L19.81,42.91 C19.81,42.3080096 19.3219904,41.82 18.72,41.82 L17.2,41.82 C15.7695825,41.82 14.61,40.6604175 14.61,39.23 L14.61,37.71 C14.61,37.1080096 14.1219904,36.62 13.52,36.62 L12.0123296,36.6198986 C11.3107466,36.6314339 10.6345059,36.3578164 10.1383448,35.8616552 C9.64218363,35.3654941 9.36856613,34.6892534 9.38,34 L9.38,32.51 C9.38,32.220914 9.26516104,31.9436683 9.06074639,31.7392536 C8.85633174,31.534839 8.57908597,31.42 8.29,31.42 L6.61,31.42 Z" id="Shape"></path>
        </g>
    </g>
</svg>