<?xml version="1.0" encoding="UTF-8"?>
<svg width="97px" height="69px" viewBox="0 0 97 69" version="1.1" xmlns="http://www.w3.org/2000/svg" xmlns:xlink="http://www.w3.org/1999/xlink">
    <!-- Generator: Sketch 51.2 (57519) - http://www.bohemiancoding.com/sketch -->
    <title>research</title>
    <desc>Created with Sketch.</desc>
    <defs></defs>
    <g id="website" stroke="none" stroke-width="1" fill="none" fill-rule="evenodd">
        <g id="research" transform="translate(1.000000, 1.000000)" fill="#00E676" fill-rule="nonzero">
            <path d="M41.2155046,30.9851552 L41.2155046,39.081672 C41.8567522,39.562345 42.5331772,39.9990697 43.25887,40.3996982 C43.5151718,40.5577225 43.7804107,40.7006285 44.0592101,40.8305089 C44.1924712,40.8943371 44.1924712,40.8943371 44.3249419,40.9577266 C44.3877939,40.9877362 44.44747,41.0160441 44.5044576,41.0428488 L44.5044576,30.9851552 L41.2155046,30.9851552 Z M45.8044576,30.3351552 L45.8044576,42.0284771 C45.8044576,42.4813611 45.3529175,42.7954305 44.9283241,42.6378732 C44.5739588,42.506376 44.2549597,42.3648934 43.7648103,42.1308645 C43.6302186,42.0664604 43.6302186,42.0664604 43.5044027,42.0061556 C43.1857318,41.857743 42.8759414,41.6908336 42.6040603,41.5222907 C41.7505854,41.052041 40.935417,40.5148968 40.1661475,39.9158641 C40.0079911,39.7927072 39.9155046,39.6034675 39.9155046,39.4030153 L39.9155046,30.3351552 C39.9155046,29.9761701 40.2065195,29.6851552 40.5655046,29.6851552 L45.1544576,29.6851552 C45.5134427,29.6851552 45.8044576,29.9761701 45.8044576,30.3351552 Z" id="Shape"></path>
            <path d="M54.2798585,42.5804958 C55.0915817,42.5804958 55.1694776,43.7689866 54.3646985,43.8749352 C54.2630709,43.8883144 54.1601326,43.8883144 54.058505,43.8749352 C53.2537259,43.7689866 53.3316218,42.5804958 54.143345,42.5804958 L54.2798585,42.5804958 Z M54.228185,42.5860563 C54.2171786,42.5846074 54.2060249,42.5846074 54.1950185,42.5860563 L54.2116018,42.7120219 L54.228185,42.5860563 Z" id="Shape"></path>
            <path d="M0.65,28.6760141 L0.65,64.3185425 C0.65,65.5615589 1.65248628,66.5681489 2.88778508,66.5681489 L62.092634,66.5681489 C63.3305573,66.5681571 64.3364253,65.5618309 64.3409159,64.3185425 L64.3409159,48.7133879 C64.3409159,48.3544028 64.6319308,48.0633879 64.9909159,48.0633879 C65.349901,48.0633879 65.6409159,48.3544028 65.6409159,48.7133879 L65.6409117,64.320888 C65.633837,66.2814791 64.0478767,67.8681618 62.0926298,67.8681489 L2.88778508,67.8681489 C0.933324565,67.8681489 -0.65,66.2783429 -0.65,64.3185425 L-0.65,28.0260141 C-0.65,27.667029 -0.358985087,27.3760141 0,27.3760141 L24.8139496,27.3760141 C25.1729347,27.3760141 25.4639496,27.667029 25.4639496,28.0260141 C25.4639496,28.3849992 25.1729347,28.6760141 24.8139496,28.6760141 L0.65,28.6760141 Z" id="Shape"></path>
            <path d="M28.0259689,28.1285532 C27.9693381,27.7740631 28.2108008,27.4407838 28.5652909,27.3841529 C28.919781,27.3275221 29.2530604,27.5689848 29.3096912,27.9234749 C29.8234802,31.1396239 31.014117,34.2088005 32.8035033,36.928396 C39.7583124,47.5840264 53.9635035,50.6224796 64.6386542,43.7386274 C64.9403512,43.5440786 65.3426378,43.6309394 65.5371866,43.9326364 C65.7317354,44.2343334 65.6448746,44.63662 65.3431776,44.8311688 C54.0665814,52.1028621 39.0603033,48.8930585 31.7161804,37.640943 C29.82682,34.7694105 28.5688109,31.5265642 28.0259689,28.1285532 Z" id="Shape"></path>
            <path d="M24.8139496,27.323294 C25.1729347,27.323294 25.4639496,27.6143089 25.4639496,27.973294 C25.4639496,28.3322791 25.1729347,28.623294 24.8139496,28.623294 L0,28.623294 C-0.358985087,28.623294 -0.65,28.3322791 -0.65,27.973294 L-0.649914755,21.963218 C-0.61613883,19.8779068 1.06032487,18.1945804 3.150311,18.1605377 L25.0764755,18.1605377 C25.4354606,18.1605377 25.7264755,18.4515526 25.7264755,18.8105377 C25.7264755,19.1695228 25.4354606,19.4605377 25.0764755,19.4605377 L3.16092405,19.460451 C1.78411005,19.4829343 0.672348081,20.5992474 0.65,21.9737447 L0.65,27.323294 L24.8139496,27.323294 Z" id="Shape"></path>
            <path d="M29.3091965,27.920425 C29.3675118,28.2746419 29.1276361,28.6090653 28.7734192,28.6673806 C28.4192023,28.7256958 28.0847789,28.4858201 28.0264636,28.1316032 C27.5085104,24.9854655 27.614847,21.7675794 28.3393668,18.6628236 C28.4209471,18.313231 28.7704817,18.0959641 29.1200742,18.1775443 C29.4696668,18.2591246 29.6869337,18.6086592 29.6053535,18.9582518 C28.9196034,21.896869 28.8189552,24.9426146 29.3091965,27.920425 Z" id="Shape"></path>
            <path d="M4.58895302,25.6077033 C3.38263605,25.6077033 2.40580167,24.6268702 2.40580167,23.4182759 C2.40580167,22.2096816 3.38263605,21.2288485 4.58895302,21.2288485 C5.79526999,21.2288485 6.77210437,22.2096816 6.77210437,23.4182759 C6.77210437,24.6268702 5.79526999,25.6077033 4.58895302,25.6077033 Z M4.58895302,24.3077033 C5.07610828,24.3077033 5.47210437,23.9100862 5.47210437,23.4182759 C5.47210437,22.9264656 5.07610828,22.5288485 4.58895302,22.5288485 C4.10179776,22.5288485 3.70580167,22.9264656 3.70580167,23.4182759 C3.70580167,23.9100862 4.10179776,24.3077033 4.58895302,24.3077033 Z" id="Oval"></path>
            <path d="M10.7005564,25.6077033 C9.49423939,25.6077033 8.517405,24.6268702 8.517405,23.4182759 C8.517405,22.2096816 9.49423939,21.2288485 10.7005564,21.2288485 C11.9068733,21.2288485 12.8837077,22.2096816 12.8837077,23.4182759 C12.8837077,24.6268702 11.9068733,25.6077033 10.7005564,25.6077033 Z M10.7005564,24.3077033 C11.1877116,24.3077033 11.5837077,23.9100862 11.5837077,23.4182759 C11.5837077,22.9264656 11.1877116,22.5288485 10.7005564,22.5288485 C10.2134011,22.5288485 9.817405,22.9264656 9.817405,23.4182759 C9.817405,23.9100862 10.2134011,24.3077033 10.7005564,24.3077033 Z" id="Oval"></path>
            <path d="M16.8226607,25.6077033 C15.6163438,25.6077033 14.6395094,24.6268702 14.6395094,23.4182759 C14.6395094,22.2096816 15.6163438,21.2288485 16.8226607,21.2288485 C18.0289777,21.2288485 19.0058121,22.2096816 19.0058121,23.4182759 C19.0058121,24.6268702 18.0289777,25.6077033 16.8226607,25.6077033 Z M16.8226607,24.3077033 C17.309816,24.3077033 17.7058121,23.9100862 17.7058121,23.4182759 C17.7058121,22.9264656 17.309816,22.5288485 16.8226607,22.5288485 C16.3355055,22.5288485 15.9395094,22.9264656 15.9395094,23.4182759 C15.9395094,23.9100862 16.3355055,24.3077033 16.8226607,24.3077033 Z" id="Oval"></path>
            <path d="M28.7063077,38.7791975 C29.0158929,38.5974634 29.4141859,38.7011072 29.59592,39.0106925 C29.7776541,39.3202777 29.6740103,39.7185707 29.364425,39.9003048 C29.0373979,40.0922777 28.6648157,40.192391 28.2897928,40.1900876 L7.64477,40.1900876 C6.44426693,40.1901159 5.46982306,39.2183846 5.46160334,38.0112042 L5.46161815,36.4673879 C5.46973954,35.2646204 6.43985183,34.2905369 7.64475469,34.2823494 L26.6936352,34.2823494 C27.0526203,34.2823494 27.3436352,34.5733643 27.3436352,34.9323494 C27.3436352,35.2913345 27.0526203,35.5823494 26.6936352,35.5823494 L7.64917956,35.5823343 C7.1609505,35.585658 6.76491638,35.9833133 6.76160334,36.4717768 L6.76158821,38.0067703 C6.76492679,38.4961872 7.15993825,38.890099 7.64475469,38.8900876 L28.2937639,38.8900997 C28.438619,38.8909847 28.5810922,38.852702 28.7063077,38.7791975 Z" id="Shape"></path>
            <path d="M28.2897928,47.3358503 C28.521735,47.3358558 28.7442421,47.2428661 28.9080682,47.077235 C29.0724061,46.9110864 29.1640705,46.6855948 29.1624431,46.4464229 L29.1624584,44.913075 C29.1640705,44.6783676 29.0724061,44.452876 28.9080682,44.2867274 C28.7442421,44.1210963 28.521735,44.0281066 28.2897928,44.0281121 L7.64475469,44.0281121 C7.15759943,44.0281121 6.76160334,44.4257292 6.76160334,44.9175395 L6.76160334,46.4464229 C6.76160334,46.9382332 7.15759943,47.3358503 7.64475469,47.3358503 L28.2897928,47.3358503 Z M7.64475469,48.6358503 C6.43843772,48.6358503 5.46160334,47.6550172 5.46160334,46.4464229 L5.46160334,44.9175395 C5.46160334,43.7089452 6.43843772,42.7281121 7.64475469,42.7281121 L28.2897772,42.7281121 C28.8691665,42.7280983 29.4244434,42.9601584 29.8323296,43.3725388 C30.2397039,43.7844017 30.4664109,44.3420936 30.4624431,44.9175395 L30.4624277,46.4419584 C30.4664109,47.0218688 30.2397039,47.5795607 29.8323296,47.9914236 C29.4244434,48.403804 28.8691665,48.6358641 28.2897772,48.6358503 L7.64475469,48.6358503 Z" id="Shape"></path>
            <path d="M58.1022358,61.9182346 C58.3386532,61.9198562 58.5617817,61.8284082 58.7267287,61.6639205 C58.8921911,61.4989187 58.9853927,61.2740747 58.9853872,61.0393512 L58.9853872,54.8921702 C58.9853927,54.6574621 58.8921911,54.4326182 58.7267287,54.2676164 C58.5617817,54.1031286 58.3386532,54.0116806 58.1022358,54.0133022 L7.69724456,54.0133022 C7.21244344,54.0132908 6.81743198,54.4072026 6.81410852,54.8921856 L6.8140934,61.0349173 C6.81743198,61.5243342 7.21244344,61.918246 7.69725987,61.9182346 L58.1022358,61.9182346 Z M7.69727518,63.2182346 C6.49677211,63.2182629 5.52232824,62.2465317 5.51410852,61.0393512 L5.51412364,54.8877517 C5.52232824,53.6850052 6.49677211,52.7132739 7.69725987,52.7133022 L58.0977347,52.7133178 C58.6771152,52.7093056 59.2339772,52.9375324 59.6446853,53.3470972 C60.054878,53.756148 60.2854009,54.3122719 60.2853872,54.8921856 L60.2853872,61.0393358 C60.2854009,61.6192649 60.054878,62.1753889 59.6446853,62.5844396 C59.2345562,62.993427 58.678685,63.2215873 58.1001851,63.2182346 L7.69727518,63.2182346 Z" id="Shape"></path>
            <path d="M71.6375558,39.0404539 C70.6136759,40.3864268 69.4502681,41.61948 68.1668977,42.7188226 L72.3534796,46.9568586 L75.920608,43.3667398 L71.6375558,39.0404539 Z M77.2971786,43.8257087 L72.813236,48.3385507 C72.5585428,48.5948854 72.1436745,48.5942848 71.8897246,48.3372138 L66.7442167,43.1284663 C66.4737017,42.8546266 66.499089,42.4070011 66.7988315,42.1655038 C68.4095081,40.8678103 69.834857,39.3538593 71.0348194,37.6661802 C71.2686679,37.3372856 71.7425665,37.2987448 72.0264865,37.5855307 L77.2980069,42.9102625 C77.5491006,43.1638907 77.5487308,43.5725353 77.2971786,43.8257087 Z" id="Shape"></path>
            <path d="M39.8735005,30.3351552 C39.8735005,29.9761701 40.1645154,29.6851552 40.5235005,29.6851552 L45.1124535,29.6851552 C45.4714386,29.6851552 45.7624535,29.9761701 45.7624535,30.3351552 L45.7624535,42.0284771 C45.7624535,42.4813611 45.3109134,42.7954305 44.88632,42.6378732 C44.5319546,42.506376 44.2129555,42.3648934 43.7228061,42.1308645 C43.5882145,42.0664604 43.5882145,42.0664604 43.4623986,42.0061556 C43.1437276,41.857743 42.8339373,41.6908336 42.5620561,41.5222907 C41.7085813,41.052041 40.8934128,40.5148968 40.1241434,39.9158641 C39.965987,39.7927072 39.8735005,39.6034675 39.8735005,39.4030153 L39.8735005,30.3351552 Z M41.1735005,39.081672 C41.8147481,39.562345 42.491173,39.9990697 43.2168658,40.3996982 C43.4731676,40.5577225 43.7384066,40.7006285 44.017206,40.8305089 C44.150467,40.8943371 44.150467,40.8943371 44.2829378,40.9577266 C44.3457897,40.9877362 44.4054659,41.0160441 44.4624535,41.0428488 L44.4624535,30.9851552 L41.1735005,30.9851552 L41.1735005,39.081672 Z M54.228185,42.5860563 C54.2171786,42.5846074 54.2060249,42.5846074 54.1950185,42.5860563 L54.2116018,42.7120219 L54.228185,42.5860563 Z M54.143345,42.5804958 L54.2798585,42.5804958 C55.0915817,42.5804958 55.1694776,43.7689866 54.3646985,43.8749352 C54.2630709,43.8883144 54.1601326,43.8883144 54.058505,43.8749352 C53.2537259,43.7689866 53.3316218,42.5804958 54.143345,42.5804958 Z" id="Shape"></path>
            <path d="M72.0943102,38.4194923 C70.8253255,40.2042475 69.3179201,41.8053557 67.6208655,43.1725745 C66.9581623,43.7205993 66.2656487,44.2312458 65.538545,44.7072959 L65.3433797,44.8310384 C54.064589,52.1100583 39.0502139,48.8995528 31.70478,37.6395723 C28.0431215,32.043739 26.8231063,25.1868173 28.3284418,18.6646526 C30.5319196,9.09738942 38.2057175,1.77069104 47.8343815,0.042227052 C57.4632766,-1.68627841 67.1907051,2.5169851 72.5596863,10.7253633 C78.1090552,19.1686741 77.9247196,30.1667989 72.0943102,38.4194923 Z M71.4729383,11.4387912 C66.3884813,3.66490425 57.1793675,-0.314533265 48.064076,1.32177402 C38.9483117,2.95816618 31.682084,9.89572947 29.5952087,18.9567167 C28.1694365,25.1341581 29.3249202,31.62839 32.7930869,36.9285257 C39.7483665,47.5904289 53.9612227,50.6295466 64.6428065,43.735972 L64.8343469,43.614586 C65.513146,43.1700846 66.1668385,42.688064 66.7988315,42.1655038 C68.4095081,40.8678103 69.834857,39.3538593 71.0336865,37.6677786 C76.5546532,29.8530831 76.7291269,19.4355103 71.4729383,11.4387912 Z M67.3917775,14.0308126 C62.5188291,6.71339118 53.1763154,3.87399293 45.0810171,7.24928347 C36.984574,10.6250513 32.39184,19.2765848 34.114559,27.9084678 C34.8335119,31.4852861 36.5991743,34.765133 39.1916149,37.3343708 C39.7411581,37.8940296 40.3312279,38.412031 40.9648617,38.8901665 C41.6800833,39.4471119 42.4379538,39.9465004 43.25887,40.3996982 C43.5151718,40.5577225 43.7804107,40.7006285 44.0592101,40.8305089 C44.1924712,40.8943371 44.1924712,40.8943371 44.3249419,40.9577266 C44.7824552,41.1761729 45.0716912,41.304455 45.4034659,41.4280648 C46.8016387,42.0079273 48.2708081,42.3972119 49.6909055,42.5804958 L54.143345,42.5804958 C55.7262493,42.4248159 57.2137246,42.0693681 58.6574461,41.5192429 C58.9733181,41.4106254 59.2824655,41.2831927 59.5957435,41.1317354 L60.1869829,40.8609984 C60.4146926,40.753264 60.636687,40.6337362 60.8842844,40.4845641 C61.6462378,40.0792564 62.3769492,39.6172955 63.0493613,39.1187652 C62.9954969,39.1622682 63.6786372,38.6142587 63.8680409,38.4586288 C64.1326521,38.2412023 64.3530154,38.0519769 64.5387735,37.8816362 L65.1223185,37.3166286 C71.3105947,31.0920891 72.2618691,21.3439441 67.3917775,14.0308126 Z M65.4306496,38.8272926 C65.2126533,39.0275525 64.9750079,39.231618 64.6933548,39.4630476 C64.4969903,39.624397 63.8068354,40.1780336 63.8452233,40.146336 C63.0997445,40.6997838 62.3140783,41.1964875 61.5270103,41.6139575 C61.2731113,41.7681943 61.0114078,41.9091025 60.7356356,42.0395209 L60.1495765,42.3077788 C59.8021577,42.4759227 59.4450575,42.6231219 59.1003983,42.741262 C57.571684,43.3241767 55.9742149,43.7059087 54.2798585,43.8804958 L50.3104666,43.8804958 C49.9954355,43.8804958 49.9954355,43.8804958 49.6099811,43.8754386 C47.9934048,43.6725983 46.4111691,43.2533547 44.9283241,42.6378732 C44.5739588,42.506376 44.2549597,42.3648934 43.7648103,42.1308645 C43.6302186,42.0664604 43.6302186,42.0664604 43.5044027,42.0061556 C43.1857318,41.857743 42.8759414,41.6908336 42.6040603,41.5222907 C41.7505854,41.052041 40.935417,40.5148968 40.1740308,39.9219066 C39.4969898,39.411118 38.8585767,38.8506776 38.2702821,38.2514681 C35.5005852,35.5066513 33.6098638,31.9944979 32.8398756,28.1637739 C30.995905,18.9243496 35.9119346,9.66381017 44.580733,6.04940188 C53.2506762,2.43451629 63.2563205,5.47545471 68.4738066,13.3102483 C73.6903988,21.1436995 72.6667444,31.5863572 66.0289343,38.2485556 C66.0228255,38.2546868 65.8233973,38.4475992 65.4306496,38.8272926 Z" id="Shape"></path>
            <path d="M65.0660073,37.3204599 C71.2671218,31.0965616 72.2236157,21.3390323 67.3497733,14.0202685 C62.476825,6.70284715 53.1343113,3.86344891 45.039013,7.23873944 C36.9425699,10.6145073 32.3498358,19.2660408 34.0725549,27.8979238 C34.7915078,31.4747421 36.5571701,34.7545889 39.1496107,37.3238268 C39.3836798,37.5622044 39.6251012,37.7930246 39.8735005,38.0159588 L39.8735005,30.3351552 C39.8735005,29.9761701 40.1645154,29.6851552 40.5235005,29.6851552 L45.1544576,29.6851552 C45.5134427,29.6851552 45.8044576,29.9761701 45.8044576,30.3351552 L45.8044576,41.5883971 C46.8515714,41.9916406 47.9357163,42.2894344 49.0409053,42.4775449 L49.0409055,24.1879896 C49.0409055,23.8290045 49.3319204,23.5379896 49.6909055,23.5379896 L54.2798585,23.5379896 C54.6388436,23.5379896 54.9298585,23.8290045 54.9298585,24.1879896 L54.9298585,42.4999537 C56.0483643,42.3455816 57.1497483,42.0837146 58.2188116,41.7178427 L58.2188115,17.2816543 C58.2188115,16.9226692 58.5098264,16.6316543 58.8688115,16.6316543 L63.4577645,16.6316543 C63.8167496,16.6316543 64.1077645,16.9226692 64.1077645,17.2816543 L64.1077645,38.2591238 C64.2695377,38.1225599 64.4121903,37.9977134 64.5387735,37.8816362 L64.9421166,37.4911061 C64.9724073,37.4308346 65.0134118,37.3732486 65.0660073,37.3204599 Z M66.0311163,38.2462125 L65.4306496,38.8272926 C65.2126533,39.0275525 64.9750079,39.231618 64.6933548,39.4630476 C64.4969903,39.624397 63.8068354,40.1780336 63.8661678,40.1301144 C63.4410639,40.4734454 62.8077645,40.1708732 62.8077645,39.6244398 L62.8077645,17.9316543 L59.5188115,17.9316543 L59.5188115,42.1760934 C59.5188115,42.4478632 59.3497343,42.690945 59.0949406,42.7854912 C57.5642228,43.3534942 55.9668053,43.7205324 54.3423694,43.8774829 C53.9604618,43.9143823 53.6298585,43.6141818 53.6298585,43.2304958 L53.6298585,24.8379896 L50.3409055,24.8379896 L50.3409055,43.2304958 C50.3409055,43.6215915 49.998034,43.9241296 49.6099811,43.8754386 C47.9934048,43.6725983 46.4111691,43.2533547 44.9054494,42.6288894 C44.6627014,42.5282148 44.5044576,42.2912735 44.5044576,42.0284771 L44.5044576,30.9851552 L41.1735005,30.9851552 L41.1735005,39.3924713 C41.1735005,39.9289507 40.5602951,40.2344667 40.1320266,39.9113626 C39.4549857,39.400574 38.8165725,38.8401336 38.228278,38.2409241 C35.4585811,35.4961072 33.5678596,31.9839539 32.7978714,28.1532299 C30.9539008,18.9138056 35.8699304,9.65326614 44.5387289,6.03885785 C53.2086721,2.42397226 63.2143164,5.46491069 68.4318025,13.2997043 C73.5995356,21.0597866 72.6433681,31.3804284 66.1719632,38.0498256 C66.139521,38.1197361 66.0930114,38.1862836 66.0311163,38.2462125 Z" id="Shape"></path>
            <path d="M41.2155046,30.9851552 L41.2155046,39.081672 C41.8567522,39.562345 42.5331772,39.9990697 43.25887,40.3996982 C43.5151718,40.5577225 43.7804107,40.7006285 44.0592101,40.8305089 C44.1924712,40.8943371 44.1924712,40.8943371 44.3249419,40.9577266 C44.3877939,40.9877362 44.44747,41.0160441 44.5044576,41.0428488 L44.5044576,30.9851552 L41.2155046,30.9851552 Z M45.8044576,30.3351552 L45.8044576,42.0284771 C45.8044576,42.4813611 45.3529175,42.7954305 44.9283241,42.6378732 C44.5739588,42.506376 44.2549597,42.3648934 43.7648103,42.1308645 C43.6302186,42.0664604 43.6302186,42.0664604 43.5044027,42.0061556 C43.1857318,41.857743 42.8759414,41.6908336 42.6040603,41.5222907 C41.7505854,41.052041 40.935417,40.5148968 40.1661475,39.9158641 C40.0079911,39.7927072 39.9155046,39.6034675 39.9155046,39.4030153 L39.9155046,30.3351552 C39.9155046,29.9761701 40.2065195,29.6851552 40.5655046,29.6851552 L45.1544576,29.6851552 C45.5134427,29.6851552 45.8044576,29.9761701 45.8044576,30.3351552 Z" id="Shape"></path>
            <path d="M92.70464,58.0395912 L78.5512049,43.8282097 C78.2030596,43.4816113 77.6428255,43.4816113 77.2971786,43.8257087 L72.7761526,48.3730717 C72.3944977,48.751436 72.3944977,49.3185252 72.7390225,49.6674367 L86.9071914,63.8830696 C87.6429561,64.6286592 88.6445776,65.0479494 89.6893541,65.0479494 C90.7341307,65.0479494 91.7357521,64.6286592 92.4959599,63.8595597 L92.7146316,63.6599535 C94.2479879,62.1022526 94.2443521,59.5918454 92.70464,58.0395912 Z M93.626677,64.5865016 L93.3968321,64.7961915 C92.416935,65.7891736 91.0821032,66.3479494 89.6893541,66.3479494 C88.296605,66.3479494 86.9617733,65.7891736 85.9841466,64.7984809 L71.8161242,50.5829964 C70.9695051,49.7256223 70.9695051,48.344339 71.8546253,47.4510126 L76.3774903,42.9069264 C77.2328449,42.0553723 78.6130401,42.0553723 79.4703571,42.9088884 L93.626677,57.12316 C95.6736767,59.1868317 95.6736767,62.5228299 93.626677,64.5865016 Z" id="Shape"></path>
            <path d="M59.5188115,17.9316543 L59.5188115,41.1684852 C59.5444318,41.1563947 59.5700738,41.1441457 59.5957435,41.1317354 L60.1869829,40.8609984 C60.4146926,40.753264 60.636687,40.6337362 60.8842844,40.4845641 C61.5507069,40.1300724 62.1932303,39.7322428 62.8077647,39.2936595 L62.8077647,17.9316543 L59.5188115,17.9316543 Z M64.1077645,17.2816543 L64.1077645,39.6244398 C64.1077645,39.8301482 64.0103901,40.0237152 63.8452233,40.146336 C63.0997445,40.6997838 62.3140783,41.1964875 61.5270103,41.6139575 C61.2731113,41.7681943 61.0114078,41.9091025 60.7356356,42.0395209 L60.1495765,42.3077788 C59.8021577,42.4759227 59.4450575,42.6231219 59.0801769,42.7485918 C58.6581798,42.8937021 58.2188115,42.5801668 58.2188115,42.1339173 L58.2188115,17.2816543 C58.2188115,16.9226692 58.5098264,16.6316543 58.8688115,16.6316543 L63.4577645,16.6316543 C63.8167496,16.6316543 64.1077645,16.9226692 64.1077645,17.2816543 Z" id="Shape"></path>
            <path d="M50.3409055,24.8923545 L50.3409055,42.5804958 L53.6298585,42.5804958 L53.6298585,24.8470124 L50.3409055,24.8923545 Z M54.228185,42.5860563 C54.2192893,42.5848852 54.2102973,42.5846606 54.2013647,42.5853826 L54.228185,42.5860563 Z M54.9298585,24.1879896 L54.9298585,43.2304958 C54.9298585,43.5566868 54.688099,43.8323597 54.3646985,43.8749352 C54.2630709,43.8883144 54.1601326,43.8883144 54.143345,43.8804958 L49.6909055,43.8804958 C49.3319204,43.8804958 49.0409055,43.5894809 49.0409055,43.2304958 L49.0409055,24.2512537 C49.0409055,23.8957629 49.3264883,23.6062159 49.6819453,23.6013155 L54.2708983,23.5380513 C54.6333533,23.5330545 54.9298585,23.8255002 54.9298585,24.1879896 Z" id="Shape"></path>
            <path d="M54.2798585,42.5804958 C55.0915817,42.5804958 55.1694776,43.7689866 54.3646985,43.8749352 C54.2630709,43.8883144 54.1601326,43.8883144 54.058505,43.8749352 C53.2537259,43.7689866 53.3316218,42.5804958 54.143345,42.5804958 L54.2798585,42.5804958 Z M54.228185,42.5860563 C54.2171786,42.5846074 54.2060249,42.5846074 54.1950185,42.5860563 L54.2116018,42.7120219 L54.228185,42.5860563 Z" id="Shape"></path>
            <path d="M41.2155046,30.9851552 L41.2155046,39.081672 C41.8567522,39.562345 42.5331772,39.9990697 43.25887,40.3996982 C43.5151718,40.5577225 43.7804107,40.7006285 44.0592101,40.8305089 C44.1924712,40.8943371 44.1924712,40.8943371 44.3249419,40.9577266 C44.3877939,40.9877362 44.44747,41.0160441 44.5044576,41.0428488 L44.5044576,30.9851552 L41.2155046,30.9851552 Z M45.8044576,30.3351552 L45.8044576,42.0284771 C45.8044576,42.4813611 45.3529175,42.7954305 44.9283241,42.6378732 C44.5739588,42.506376 44.2549597,42.3648934 43.7648103,42.1308645 C43.6302186,42.0664604 43.6302186,42.0664604 43.5044027,42.0061556 C43.1857318,41.857743 42.8759414,41.6908336 42.6040603,41.5222907 C41.7505854,41.052041 40.935417,40.5148968 40.1661475,39.9158641 C40.0079911,39.7927072 39.9155046,39.6034675 39.9155046,39.4030153 L39.9155046,30.3351552 C39.9155046,29.9761701 40.2065195,29.6851552 40.5655046,29.6851552 L45.1544576,29.6851552 C45.5134427,29.6851552 45.8044576,29.9761701 45.8044576,30.3351552 Z" id="Shape"></path>
        </g>
    </g>
</svg>