<?xml version="1.0" encoding="UTF-8"?>
<svg width="498px" height="94px" viewBox="0 0 498 94" version="1.1" xmlns="http://www.w3.org/2000/svg" xmlns:xlink="http://www.w3.org/1999/xlink">
    <!-- Generator: Sketch 51.2 (57519) - http://www.bohemiancoding.com/sketch -->
    <title>logo</title>
    <desc>Created with Sketch.</desc>
    <defs></defs>
    <g id="Page-1" stroke="none" stroke-width="1" fill="none" fill-rule="evenodd">
        <g id="batjko-1" transform="translate(-71.000000, -271.000000)">
            <g id="logo" transform="translate(71.000000, 271.000000)">
                <g id="Group-16">
                    <g id="noun_smirk_191645" transform="translate(0.061881, 0.000000)" fill="#00E676" fill-rule="nonzero">
                        <g id="Group">
                            <polygon id="Shape" points="14.4978784 28.9957567 28.9957567 28.9957567 28.9957567 14.4978784 28.9957567 0 14.4978784 0 0 0 0 14.4978784 14.4978784 14.4978784"></polygon>
                            <polygon id="Shape" points="72.4893918 0 72.4893918 14.4978784 72.4893918 28.9957567 86.9872702 28.9957567 86.9872702 14.4978784 101.485149 14.4978784 101.485149 0 86.9872702 0"></polygon>
                            <polygon id="Shape" points="72.4893918 72.4893918 57.9915134 72.4893918 43.4936351 72.4893918 28.9957567 72.4893918 14.4978784 72.4893918 14.4978784 86.9872702 28.9957567 86.9872702 43.4936351 86.9872702 57.9915134 86.9872702 72.4893918 86.9872702 86.9872702 86.9872702 101.485149 86.9872702 101.485149 72.4893918 86.9872702 72.4893918"></polygon>
                            <rect id="Rectangle-path" x="0" y="57.9915134" width="14.4978784" height="14.4978784"></rect>
                        </g>
                    </g>
                    <g id="Group-15" transform="translate(158.891089, 14.851485)">
                        <path d="M85.3432855,22.0885205 L92.4628201,22.0885205 L92.4628201,14.9689859 L113.821424,14.9689859 L113.821424,0.729916596 L128.060493,0.729916596 L128.060493,57.6861936 L92.4628201,57.6861936 L92.4628201,50.566659 L85.3432855,50.566659 L85.3432855,22.0885205 Z M113.821424,43.4471244 L113.821424,29.2080551 L99.5823547,29.2080551 L99.5823547,43.4471244 L113.821424,43.4471244 Z" id="Shape" fill="#868282" fill-rule="nonzero"></path>
                        <path d="M190.493335,22.0885205 L197.61287,22.0885205 L197.61287,14.9689859 L218.971474,14.9689859 L218.971474,0.729916596 L233.210543,0.729916596 L233.210543,57.6861936 L197.61287,57.6861936 L197.61287,50.566659 L190.493335,50.566659 L190.493335,22.0885205 Z M218.971474,43.4471244 L218.971474,29.2080551 L204.732405,29.2080551 L204.732405,43.4471244 L218.971474,43.4471244 Z" id="Shape" fill="#868282" fill-rule="nonzero"></path>
                        <path d="M243.06836,22.0885205 L250.187895,22.0885205 L250.187895,14.9689859 L271.546499,14.9689859 L271.546499,0.729916596 L285.785568,0.729916596 L285.785568,57.6861936 L250.187895,57.6861936 L250.187895,50.566659 L243.06836,50.566659 L243.06836,22.0885205 Z M271.546499,43.4471244 L271.546499,29.2080551 L257.30743,29.2080551 L257.30743,43.4471244 L271.546499,43.4471244 Z" id="Shape" fill="#868282" fill-rule="nonzero"></path>
                        <path d="M180.561913,14.9689859 L180.561913,57.6861936 L144.965116,57.6861936 L144.965116,50.566659 L137.845582,50.566659 L137.845582,22.0885205 L144.965116,22.0885205 L144.965116,14.9689859 L180.561913,14.9689859 Z M152.083775,43.4471244 L166.322844,43.4471244 L166.322844,29.2080551 L152.083775,29.2080551 L152.083775,43.4471244 Z" id="Shape" fill="#868282" fill-rule="nonzero"></path>
                        <polygon id="Shape" fill="#868282" fill-rule="nonzero" points="324.047919 14.9689859 338.286988 14.9689859 338.286988 71.9252629 331.167453 71.9252629 331.167453 79.0447975 302.689315 79.0447975 302.689315 64.8057282 324.047919 64.8057282 324.047919 57.6861936 302.690191 57.6861936 302.690191 50.566659 295.570656 50.566659 295.570656 14.9689859 309.809726 14.9689859 309.809726 43.4471244 324.048795 43.4471244 324.048795 14.9689859"></polygon>
                        <path d="M0.492452734,7.84945122 L0.492452734,0.729916596 L14.731522,0.729916596 L14.731522,7.84945122 L0.492452734,7.84945122 Z M0.492452734,14.9689859 L14.731522,14.9689859 L14.731522,57.6861936 L0.492452734,57.6861936 L0.492452734,14.9689859 Z" id="Shape" fill="#414141" fill-rule="nonzero"></path>
                        <polygon id="Shape" fill="#414141" fill-rule="nonzero" points="52.8124888 14.9689859 52.8124888 29.2080551 45.6929542 29.2080551 45.6929542 57.6861936 31.4538849 57.6861936 31.4538849 29.2080551 24.3343503 29.2080551 24.3343503 14.9689859 31.4538849 14.9689859 31.4538849 0.729916596 45.6929542 0.729916596 45.6929542 14.9689859"></polygon>
                        <rect id="Rectangle-2" fill="#979797" x="59.5850283" y="43.8125208" width="14.0200067" height="14.0200067"></rect>
                    </g>
                </g>
            </g>
        </g>
    </g>
</svg>