<?xml version="1.0" encoding="UTF-8"?>
<svg width="180px" height="36px" viewBox="0 0 180 36" version="1.1" xmlns="http://www.w3.org/2000/svg" xmlns:xlink="http://www.w3.org/1999/xlink">
    <!-- Generator: Sketch 51.3 (57544) - http://www.bohemiancoding.com/sketch -->
    <title>logo</title>
    <desc>Created with Sketch.</desc>
    <defs></defs>
    <g id="website" stroke="none" stroke-width="1" fill="none" fill-rule="evenodd">
        <g id="daddy-main-page" transform="translate(-110.000000, -36.000000)">
            <g id="logo" transform="translate(110.000000, 36.000000)">
                <g id="Group-12">
                    <path d="M98.1919974,5.57634902 L103.099399,5.57634902 L103.099399,27.9132192 L98.1919974,27.9132192 L98.1919974,26.3792413 C97.149394,27.68896 95.7383054,28.3438094 93.9586894,28.3438094 C92.9520379,28.3438094 92.0262919,28.1554281 91.1814236,27.7786597 C90.3365554,27.4018913 89.5995537,26.8816 88.9703965,26.21777 C88.3412393,25.55394 87.8514029,24.773503 87.5008724,23.8764354 C87.150342,22.9793679 86.9750794,22.0105495 86.9750794,20.9699511 C86.9750794,19.9831768 87.1413542,19.0457553 87.4739087,18.1576584 C87.8064632,17.2695615 88.278324,16.4936098 88.8895053,15.8297798 C89.5006866,15.1659498 90.2331943,14.6411732 91.0870505,14.2554341 C91.9409067,13.8696951 92.8801344,13.6768284 93.9047619,13.6768284 C95.6304502,13.6768284 97.0595144,14.2778547 98.1919974,15.4799252 L98.1919974,5.57634902 Z M92.0442635,20.9699511 C92.0442635,21.4184849 92.1251539,21.835615 92.2869372,22.2213541 C92.4487205,22.6070931 92.6689222,22.9434884 92.9475489,23.23055 C93.2261757,23.5176116 93.5587252,23.7418751 93.9452075,23.9033473 C94.3316898,24.0648195 94.7496236,24.1455543 95.1990216,24.1455543 C95.6304437,24.1455543 96.0393898,24.0648195 96.4258721,23.9033473 C96.8123543,23.7418751 97.1449039,23.5176116 97.4235306,23.23055 C97.7021574,22.9434884 97.926853,22.6115784 98.0976242,22.23481 C98.2683955,21.8580416 98.3537798,21.4543673 98.3537798,21.0237749 C98.3537798,20.5931825 98.2683955,20.1850229 98.0976242,19.7992838 C97.926853,19.4135448 97.7021574,19.0771495 97.4235306,18.7900879 C97.1449039,18.5030263 96.8123543,18.2787627 96.4258721,18.1172906 C96.0393898,17.9558184 95.6304437,17.8750836 95.1990216,17.8750836 C94.7675996,17.8750836 94.3586535,17.9558184 93.9721712,18.1172906 C93.585689,18.2787627 93.2531394,18.5030263 92.9745127,18.7900879 C92.6958859,19.0771495 92.4711903,19.4045742 92.300419,19.7723719 C92.1296478,20.1401696 92.0442635,20.5393587 92.0442635,20.9699511 Z" id="Combined-Shape" fill="#676767"></path>
                    <path d="M117.120546,14.1343306 L122.027948,14.1343306 L122.027948,27.9401311 L117.120546,27.9401311 L117.120546,26.4061532 C116.077943,27.7158719 114.666855,28.3707213 112.887238,28.3707213 C111.880587,28.3707213 110.954841,28.1868252 110.109973,27.8190276 C109.265104,27.4512299 108.528103,26.9354238 107.898946,26.2715938 C107.269788,25.6077638 106.779952,24.8273267 106.429421,23.9302592 C106.078891,23.0331917 105.903628,22.0554027 105.903628,20.996863 C105.903628,20.0100887 106.074397,19.0726672 106.41594,18.1845703 C106.757482,17.2964734 107.233837,16.5205217 107.845018,15.8566917 C108.456199,15.1928617 109.184213,14.668085 110.029081,14.282346 C110.87395,13.896607 111.808684,13.7037403 112.833311,13.7037403 C114.558999,13.7037403 115.988063,14.3047666 117.120546,15.5068371 L117.120546,14.1343306 Z M110.972813,20.996863 C110.972813,21.4453968 111.053703,21.8625269 111.215486,22.248266 C111.37727,22.634005 111.597471,22.9704003 111.876098,23.2574619 C112.154725,23.5445235 112.487274,23.768787 112.873757,23.9302592 C113.260239,24.0917314 113.678173,24.1724662 114.127571,24.1724662 C114.558993,24.1724662 114.967939,24.0917314 115.354421,23.9302592 C115.740903,23.768787 116.073453,23.5445235 116.35208,23.2574619 C116.630706,22.9704003 116.855402,22.6384903 117.026173,22.2617219 C117.196945,21.8849535 117.282329,21.4812792 117.282329,21.0506868 C117.282329,20.6200944 117.196945,20.2119347 117.026173,19.8261957 C116.855402,19.4404567 116.630706,19.1040614 116.35208,18.8169998 C116.073453,18.5299382 115.740903,18.3056746 115.354421,18.1442025 C114.967939,17.9827303 114.558993,17.9019954 114.127571,17.9019954 C113.678173,17.9019954 113.260239,17.9827303 112.873757,18.1442025 C112.487274,18.3056746 112.154725,18.5299382 111.876098,18.8169998 C111.597471,19.1040614 111.37727,19.4314861 111.215486,19.7992838 C111.053703,20.1670815 110.972813,20.5662706 110.972813,20.996863 Z" id="Combined-Shape" fill="#676767"></path>
                    <polygon id="Path" fill="#676767" points="168.135952 26.0562986 161.448943 14.1343306 167.11133 14.1343306 170.805363 21.2121581 174.391541 14.1343306 180 14.1343306 168.890937 34.8295754 163.417297 34.8295754"></polygon>
                    <path d="M154.923717,5.57634902 L159.831119,5.57634902 L159.831119,27.9132192 L154.923717,27.9132192 L154.923717,26.3792413 C153.881114,27.68896 152.470025,28.3438094 150.690409,28.3438094 C149.683758,28.3438094 148.758012,28.1554281 147.913143,27.7786597 C147.068275,27.4018913 146.331273,26.8816 145.702116,26.21777 C145.072959,25.55394 144.583123,24.773503 144.232592,23.8764354 C143.882062,22.9793679 143.706799,22.0105495 143.706799,20.9699511 C143.706799,19.9831768 143.873074,19.0457553 144.205628,18.1576584 C144.538183,17.2695615 145.010044,16.4936098 145.621225,15.8297798 C146.232406,15.1659498 146.964914,14.6411732 147.81877,14.2554341 C148.672626,13.8696951 149.611854,13.6768284 150.636482,13.6768284 C152.36217,13.6768284 153.791234,14.2778547 154.923717,15.4799252 L154.923717,5.57634902 Z M148.775983,20.9699511 C148.775983,21.4184849 148.856874,21.835615 149.018657,22.2213541 C149.18044,22.6070931 149.400642,22.9434884 149.679269,23.23055 C149.957895,23.5176116 150.290445,23.7418751 150.676927,23.9033473 C151.063409,24.0648195 151.481343,24.1455543 151.930741,24.1455543 C152.362163,24.1455543 152.771109,24.0648195 153.157592,23.9033473 C153.544074,23.7418751 153.876624,23.5176116 154.15525,23.23055 C154.433877,22.9434884 154.658573,22.6115784 154.829344,22.23481 C155.000115,21.8580416 155.0855,21.4543673 155.0855,21.0237749 C155.0855,20.5931825 155.000115,20.1850229 154.829344,19.7992838 C154.658573,19.4135448 154.433877,19.0771495 154.15525,18.7900879 C153.876624,18.5030263 153.544074,18.2787627 153.157592,18.1172906 C152.771109,17.9558184 152.362163,17.8750836 151.930741,17.8750836 C151.499319,17.8750836 151.090373,17.9558184 150.703891,18.1172906 C150.317409,18.2787627 149.984859,18.5030263 149.706232,18.7900879 C149.427606,19.0771495 149.20291,19.4045742 149.032139,19.7723719 C148.861368,20.1401696 148.775983,20.5393587 148.775983,20.9699511 Z" id="Combined-Shape" fill="#676767"></path>
                    <polygon id="Path" fill="#D6D5D5" points="64.9456996 14.1343306 64.9456996 27.9401311 60.0652618 27.9401311 60.0652618 14.1343306"></polygon>
                    <path d="M59.7416968,8.80577603 C59.7416968,8.42900767 59.8135994,8.0746713 59.9574068,7.74275631 C60.1012142,7.41084132 60.2989463,7.11929874 60.5506092,6.86811983 C60.8022721,6.61694092 61.0943764,6.41958902 61.4269309,6.27605821 C61.7594854,6.1325274 62.1145045,6.06076308 62.4919988,6.06076308 C62.8694932,6.06076308 63.2245122,6.1325274 63.5570668,6.27605821 C63.8896213,6.41958902 64.1817256,6.61694092 64.4333885,6.86811983 C64.6850514,7.11929874 64.8827835,7.41084132 65.0265909,7.74275631 C65.1703982,8.0746713 65.2423008,8.42900767 65.2423008,8.80577603 C65.2423008,9.1825444 65.1703982,9.53688077 65.0265909,9.86879576 C64.8827835,10.2007107 64.6850514,10.4922533 64.4333885,10.7434322 C64.1817256,10.9946112 63.8896213,11.1919631 63.5570668,11.3354939 C63.2245122,11.4790247 62.8694932,11.550789 62.4919988,11.550789 C62.1145045,11.550789 61.7594854,11.4790247 61.4269309,11.3354939 C61.0943764,11.1919631 60.8022721,10.9946112 60.5506092,10.7434322 C60.2989463,10.4922533 60.1012142,10.2007107 59.9574068,9.86879576 C59.8135994,9.53688077 59.7416968,9.1825444 59.7416968,8.80577603 Z" id="Path" fill="#D6D5D5"></path>
                    <polygon id="Path" fill="#D6D5D5" points="73.7358805 18.1980263 73.7358805 27.9401311 68.8554427 27.9401311 68.8554427 18.1980263 67.237618 18.1980263 67.237618 14.1343306 68.8554427 14.1343306 68.8554427 9.98989927 73.7358805 9.98989927 73.7358805 14.1343306 76.5131463 14.1343306 76.5131463 18.1980263"></polygon>
                    <path d="M129.847434,20.9699511 C129.847434,21.4184849 129.928325,21.835615 130.090108,22.2213541 C130.251891,22.6070931 130.472093,22.9434884 130.75072,23.23055 C131.029346,23.5176116 131.361896,23.7418751 131.748378,23.9033473 C132.13486,24.0648195 132.552794,24.1455543 133.002192,24.1455543 C133.433614,24.1455543 133.84256,24.0648195 134.229043,23.9033473 C134.615525,23.7418751 134.948074,23.5176116 135.226701,23.23055 C135.505328,22.9434884 135.730024,22.6115784 135.900795,22.23481 C136.071566,21.8580416 136.15695,21.4543673 136.15695,21.0237749 C136.15695,20.5931825 136.071566,20.1850229 135.900795,19.7992838 C135.730024,19.4135448 135.505328,19.0771495 135.226701,18.7900879 C134.948074,18.5030263 134.615525,18.2787627 134.229043,18.1172906 C133.84256,17.9558184 133.433614,17.8750836 133.002192,17.8750836 C132.57077,17.8750836 132.161824,17.9558184 131.775342,18.1172906 C131.38886,18.2787627 131.05631,18.5030263 130.777683,18.7900879 C130.499057,19.0771495 130.274361,19.4045742 130.10359,19.7723719 C129.932818,20.1401696 129.847434,20.5393587 129.847434,20.9699511 Z M135.995168,5.57634902 L140.90257,5.57634902 L140.90257,27.9132192 L135.995168,27.9132192 L135.995168,26.3792413 C134.952565,27.68896 133.541476,28.3438094 131.76186,28.3438094 C130.755208,28.3438094 129.829463,28.1554281 128.984594,27.7786597 C128.139726,27.4018913 127.402724,26.8816 126.773567,26.21777 C126.14441,25.55394 125.654573,24.773503 125.304043,23.8764354 C124.953513,22.9793679 124.77825,22.0105495 124.77825,20.9699511 C124.77825,19.9831768 124.944525,19.0457553 125.277079,18.1576584 C125.609634,17.2695615 126.081495,16.4936098 126.692676,15.8297798 C127.303857,15.1659498 128.036365,14.6411732 128.890221,14.2554341 C129.744077,13.8696951 130.683305,13.6768284 131.707933,13.6768284 C133.433621,13.6768284 134.862685,14.2778547 135.995168,15.4799252 L135.995168,5.57634902 Z" id="it.daddy" fill="#676767"></path>
                    <g id="Group-14">
                        <polygon id="Line-4" fill="#676767" opacity="0.606640625" points="0.012843137 0.104553598 48.7175714 0.104553598 47.3064861 20.609682 3.4101822 22.2041509"></polygon>
                        <g id="noun_Smile_1915448" transform="translate(14.915745, 27.104686)" fill="#00E676" fill-rule="nonzero">
                            <path d="M11.1967069,8.45624358 C6.47924952,8.45624358 2.32340303,5.5787712 0.56899586,1.26172112 L0.13262853,0.187956918 L4.71975205,0.187956918 L4.94573932,0.576795813 C6.24554522,2.81327169 8.59480858,4.21241609 11.1967069,4.21241609 C13.7983606,4.21241609 16.1479188,2.81349229 17.4506915,0.576230587 L17.6767859,0.187956918 L22.2642095,0.187956918 L21.8269335,1.26214575 C20.06951,5.57933774 15.913667,8.45624358 11.1967069,8.45624358 Z" id="Shape"></path>
                        </g>
                        <polygon id="Path" fill="#00E676" transform="translate(17.979044, 10.591194) rotate(-270.000000) translate(-17.979044, -10.591194) " points="17.9790441 5.00031025 26.0895254 13.0951946 22.992319 16.1820787 17.9790441 11.1740785 12.9657692 16.1820787 9.86856267 13.0908284"></polygon>
                        <polygon id="Line-5" fill="#00E676" fill-rule="nonzero" points="28.312844 16.084765 28.312844 12.6201081 39.3440117 12.6201081 39.3440117 16.084765"></polygon>
                    </g>
                    <polygon id="Line-5" fill="#00E676" fill-rule="nonzero" points="77.68761 28.0990394 77.68761 25.1387313 84.779075 25.1387313 84.779075 28.0990394"></polygon>
                </g>
            </g>
        </g>
    </g>
</svg>