<?xml version="1.0" encoding="UTF-8"?>
<svg width="840px" height="505px" viewBox="0 0 840 505" version="1.1" xmlns="http://www.w3.org/2000/svg" xmlns:xlink="http://www.w3.org/1999/xlink">
    <!-- Generator: Sketch 50.2 (55047) - http://www.bohemiancoding.com/sketch -->
    <title>logo-3-light</title>
    <desc>Created with Sketch.</desc>
    <defs></defs>
    <g id="Page-1" stroke="none" stroke-width="1" fill="none" fill-rule="evenodd">
        <g id="logo-3-light" fill="#605089">
            <path d="M577.322917,84.791519 C546.852681,101.951797 516.62175,118.901841 485.743948,136.283615 C481.630896,128.32479 477.891758,121.060485 473.84601,113.161727 C494.923532,101.19721 515.417747,89.566814 536.020398,77.8725971 C523.569068,62.48053 500.648152,58.4222801 480.912981,67.5674205 C459.973808,77.2606686 448.647959,102.409805 453.523795,128.362331 C458.074326,152.539139 475.738014,169.342772 500.079803,169.962208 C522.514632,170.536595 547.783727,160.884643 554.488001,121.638626 C563.566628,122.723579 574.148389,123.891124 583.238234,124.979831 C579.474303,164.07096 548.273848,194.79169 509.273165,197.807642 C470.272482,200.823595 434.754458,175.262256 425.072694,137.210893 C414.872325,95.9151031 435.691846,53.9285474 474.118968,40.1770493 C510.706434,27.0825298 555.467655,37.1324234 577.322917,84.791519 Z M379.567383,38.577776 C379.750601,41.8251268 379.567383,44.5544031 379.567383,47.2836794 C379.601036,75.331029 379.705731,103.382133 379.567383,131.433237 C379.346774,170.51407 352.051066,197.881917 313.698727,197.750521 C275.473519,197.619125 248.338594,169.969717 248.207724,130.87762 C248.114245,100.371294 248.207724,69.8687222 248.207724,38.6941551 L276.901869,38.6941551 L276.901869,48.2334825 C276.957956,75.3422915 276.68126,102.458609 276.901869,129.567418 C277.058913,148.766206 287.887457,163.940531 304.115316,168.61071 C328.356148,175.578436 350.884455,157.06666 351.228456,129.390972 C351.561239,102.593759 351.306978,75.7890368 351.310717,48.9918234 L351.310717,38.577776 L379.567383,38.577776 Z M82.3769507,166.850008 L82.3769507,194.060179 C82.3769507,194.060179 45.5352234,194.679616 30.9114544,192.513464 C12.918722,189.694088 0.583305538,174.196904 0,151.150099 L0,0 L27.867796,0 L27.867796,37.6279729 L82.2610374,37.6279729 L82.2610374,66.1108054 L28.1370139,66.1108054 L28.1370139,78.6271838 C28.1370139,101.396181 28.0397964,124.165178 28.1781445,146.934174 C28.2641446,161.260059 33.5438076,166.605987 47.8123584,166.831237 C59.1531642,167.048978 70.4939699,166.850008 82.3769507,166.850008 Z M205.488072,62.7545839 C204.549548,62.687009 203.738155,62.7545839 202.915545,62.7545839 C172.486439,62.3791676 158.640411,83.9430783 158.640411,106.854733 L158.640411,194.060179 L130.675397,194.060179 L130.675397,38.6979092 L157.7318,38.6979092 L157.7318,52.1603367 C164.163164,46.1826585 171.643406,41.4549888 179.792715,38.2173764 C188.071663,35.4296646 196.756355,34.0504164 205.488072,34.1366015 L205.488072,62.7545839 Z M656.338383,90.1074134 C651.797484,90.3139301 647.37761,88.6036721 644.149243,85.3908586 C640.920875,82.1780451 639.178458,77.7557033 639.344,73.1949104 C639.030379,68.494749 640.664374,63.8732631 643.859469,60.4236503 C647.054564,56.9740374 651.526962,55.0027026 656.21873,54.9759588 C660.765572,54.8942951 665.147918,56.6829755 668.348316,59.9267212 C671.548714,63.170467 673.288774,67.5871162 673.164504,72.1512532 C673.332765,82.9519793 666.606056,90.1299384 656.338383,90.1074134 Z M656.732247,143.734091 C665.921504,144.000178 673.218585,151.583004 673.167451,160.812879 C673.116317,170.042754 665.735672,177.54361 656.544035,177.707046 C651.832631,177.853708 647.278492,175.996594 644.003235,172.593081 C640.727977,169.189568 639.035996,164.555973 639.344,159.833477 C639.822767,150.615985 647.54299,143.468004 656.732247,143.734091 Z" id="Logo_copy_5"></path>
            <path d="M585.733226,341.132292 C607.336069,341.096298 628.037019,349.836398 643.136453,365.368373 C658.235887,380.900349 666.452819,401.906518 665.921803,423.617964 C665.251974,469.672402 630.312372,504.538644 585.070882,504.297876 C563.621408,504.38986 543.050055,495.741028 528.051593,480.325207 C513.053132,464.909386 504.907452,444.04208 505.473551,422.485602 C505.716784,376.589168 540.783617,341.030717 585.733226,341.132292 Z M587.54064,369.264548 C557.783789,368.436908 536.255726,389.936754 535.357632,421.360763 C534.470764,452.25433 555.564749,475.966233 584.599382,476.76754 C613.155032,477.550036 634.705549,455.436984 635.697194,424.340269 C636.673872,393.446702 616.238489,370.058331 587.54064,369.264548 Z M811.297042,500.870691 L811.297042,490.735856 C811.297042,490.735856 811.465435,437.029504 811.20349,410.18009 C810.997677,389.583125 798.996895,373.651044 781.701099,370.050807 C757.991415,365.118821 737.084533,383.255437 736.796395,409.472834 C736.523225,436.314724 736.736522,463.175424 736.736522,490.024837 L736.736522,500.611113 L708.442816,500.611113 L708.442816,492.041271 C708.405395,463.946634 708.300618,435.844473 708.442816,407.746075 C708.637403,368.734106 736.321153,340.865189 774.347954,341.158626 C812.03797,341.440776 839.583264,369.114068 839.875144,407.415018 C840.118378,438.255917 839.931275,469.111864 839.931275,500.870691 L811.297042,500.870691 Z M31.6241383,343.995176 L40.3244248,368.579864 C40.3244248,368.579864 63.6860974,431.33007 76.1097324,464.672701 C83.4815881,444.771706 96.8482219,408.709147 96.8482219,408.709147 L117.642842,351.688471 L120.636489,344.111798 L152.017394,344.111798 C152.017394,344.111798 149.749706,349.97676 148.911485,352.196342 C131.890107,397.661399 114.828814,443.110155 97.7276057,488.542608 C92.8629293,501.446278 85.322681,504.34302 76.1209586,504.34302 C67.1895451,504.936061 58.8282841,499.899761 55.1354933,491.702691 C37.0613496,443.646867 19.1231674,395.538376 1.32094673,347.377216 C1.1151335,346.873108 0,344.010224 0,344.010224 L31.6241383,343.995176 Z M465.91999,345.108728 L465.91999,500.460633 L437.966811,500.460633 L437.966811,345.108728 L465.91999,345.108728 Z M187.353654,500.637447 L187.353654,344.9432 L214.524743,344.9432 L214.524743,500.633685 L187.353654,500.637447 Z M213.324595,287.536177 C216.729533,290.772029 218.63284,295.29225 218.57365,300.002315 C218.714352,304.697726 216.930679,309.245166 213.640096,312.580315 C210.349512,315.915465 205.840844,317.745588 201.169335,317.642346 C196.658579,317.835558 192.265531,316.165338 189.010767,313.019706 C185.756002,309.874074 183.922841,305.526848 183.937155,300.98796 C183.486239,296.297905 185.058282,291.638721 188.254475,288.192379 C191.450669,284.746037 195.963887,282.8437 200.649189,282.967967 C205.323555,282.643892 209.919657,284.300325 213.324595,287.536177 Z M460.184154,315.503342 C454.831441,318.536938 448.264088,318.417241 443.024269,315.190582 C437.78445,311.963924 434.694575,306.136742 434.950712,299.964695 C434.641919,295.39601 436.302061,290.91441 439.508178,287.661687 C442.714296,284.408964 447.156818,282.699189 451.703909,282.967967 C456.409103,282.629522 461.023666,284.392114 464.318256,287.786179 C467.612847,291.180244 469.252855,295.86107 468.801375,300.581664 C468.83481,306.758988 465.536867,312.469745 460.184154,315.503342 Z M382.812608,372.371963 L382.812608,346.109421 C382.812608,346.109421 328.077515,345.044774 301.104755,346.109421 C287.752074,346.279962 275.536593,353.701282 269.17751,365.506308 C257.951334,385.821123 264.065858,410.082278 285.230942,420.713698 C301.059851,428.666572 318.572685,433.128307 335.206137,439.471044 C342.491083,441.822655 349.428594,445.147936 355.832364,449.357587 C359.396942,452.593049 361.115955,457.406243 360.412644,462.182255 C359.578688,466.256093 356.912351,469.710651 353.194213,471.534594 C349.004277,472.986957 344.567908,473.58299 340.145654,473.287687 C315.238511,473.377975 290.327626,473.332831 264.855432,473.332831 L264.855432,501.164128 L327.5424,501.164128 C337.671906,501.187774 347.793684,500.599844 357.853076,499.40351 C374.492657,497.422997 387.742956,484.469105 390.176979,467.802687 C393.544832,450.053558 389.103008,434.742207 373.517334,424.505797 C367.089662,420.254197 360.18994,416.772061 352.958463,414.130193 C340.51986,409.660934 327.639694,406.474518 315.118765,402.197121 C310.240632,400.695299 305.584162,398.544437 301.273148,395.801716 C297.360326,393.58033 294.944033,389.409461 294.952811,384.891908 C294.981745,382.935258 295.437793,381.008875 296.288726,379.248904 C298.68868,375.372186 302.747206,372.839819 307.267926,372.398297 L382.812608,372.371963 Z" id="Logo_copy_5"></path>
        </g>
    </g>
</svg>