<?xml version="1.0" encoding="UTF-8"?>
<svg width="184px" height="150px" viewBox="0 0 184 150" version="1.1" xmlns="http://www.w3.org/2000/svg" xmlns:xlink="http://www.w3.org/1999/xlink">
    <!-- Generator: Sketch 51.2 (57519) - http://www.bohemiancoding.com/sketch -->
    <title>design</title>
    <desc>Created with Sketch.</desc>
    <defs></defs>
    <g id="website" stroke="none" stroke-width="1" fill="none" fill-rule="evenodd">
        <g id="design" transform="translate(2.000000, 1.000000)" fill="#4A4A4A" fill-rule="nonzero">
            <path d="M58.78,113.7 L76.24,113.7 L76.24,104.42 L58.78,104.42 L58.78,113.7 Z M57.28,101.42 L77.74,101.42 C78.5684271,101.42 79.24,102.091573 79.24,102.92 L79.24,115.2 C79.24,116.028427 78.5684271,116.7 77.74,116.7 L57.28,116.7 C56.4515729,116.7 55.78,116.028427 55.78,115.2 L55.78,102.92 C55.78,102.091573 56.4515729,101.42 57.28,101.42 Z" id="Rectangle-path"></path>
            <path d="M86,116.7 L49.08,116.7 C45.9064762,116.7 43.2498279,118.913007 42.5690772,121.88 L92.3313698,121.88 C91.6633607,118.963129 89.0881491,116.768282 86,116.7 Z M94.0000002,124.88 L40.9,124.88 C40.0715729,124.88 39.4,124.208427 39.4,123.38 C39.4,118.033884 43.7338836,113.7 49.08,113.7 L86.0330073,113.700363 C91.2957574,113.816197 95.5012745,118.116338 95.5000002,123.380363 C95.4997997,124.208648 94.8282856,124.88 94.0000002,124.88 Z" id="Shape"></path>
            <path d="M133.5,92.7 L133.5,10.88 C133.5,6.06407698 129.595923,2.16 124.78,2.16 L10.22,2.16 C5.40407698,2.16 1.5,6.06407698 1.5,10.88 L1.5,92.7 C1.5,97.515923 5.40407698,101.42 10.22,101.42 L124.78,101.42 C129.595923,101.42 133.5,97.515923 133.5,92.7 Z M136.5,92.7 C136.5,99.1727773 131.252777,104.42 124.78,104.42 L10.22,104.42 C3.74722273,104.42 -1.5,99.1727773 -1.5,92.7 L-1.5,10.88 C-1.5,4.40722273 3.74722273,-0.84 10.22,-0.84 L124.78,-0.84 C131.252777,-0.84 136.5,4.40722273 136.5,10.88 L136.5,92.7 Z" id="Shape"></path>
            <path d="M124.78,104.42 L10.22,104.42 C3.74722273,104.42 -1.5,99.1727773 -1.5,92.7 L-1.5,86.56 C-1.5,85.7315729 -0.828427125,85.06 0,85.06 L135,85.06 C135.828427,85.06 136.5,85.7315729 136.5,86.56 L136.5,92.7 C136.5,99.1727773 131.252777,104.42 124.78,104.42 Z M1.5,88.06 L1.5,92.7 C1.5,97.515923 5.40407698,101.42 10.22,101.42 L124.78,101.42 C129.595923,101.42 133.5,97.515923 133.5,92.7 L133.5,88.06 L1.5,88.06 Z" id="Shape"></path>
            <path d="M40.2797598,30.2857606 C39.1067467,29.7530539 39.1067467,28.0869461 40.2797598,27.5542394 L66.8797598,15.4742394 C67.2738842,15.2952535 67.7261158,15.2952535 68.1202402,15.4742394 L94.7202402,27.5542394 C95.8932533,28.0869461 95.8932533,29.7530539 94.7202402,30.2857606 L68.1202402,42.3657606 C67.7261158,42.5447465 67.2738842,42.5447465 66.8797598,42.3657606 L40.2797598,30.2857606 Z M67.5,39.3525664 L90.472373,28.92 L67.5,18.4874336 L44.527627,28.92 L67.5,39.3525664 Z" id="Shape"></path>
            <path d="M66,41 C66,40.4116001 66.3440175,39.8775389 66.8797598,39.6342394 L93.4797598,27.5542394 C94.4728613,27.1032369 95.6,27.8292875 95.6,28.92 L95.6,60.34 C95.6,60.9280614 95.2563736,61.4618807 94.7210911,61.7053739 L68.1210911,73.8053739 C67.1279029,74.2571625 66,73.5311168 66,72.44 L66,41 Z M69,70.1097689 L92.6,59.3744305 L92.6,31.2486366 L69,41.9662306 L69,70.1097689 Z" id="Shape"></path>
            <path d="M39.4,28.92 C39.4,27.8292875 40.5271387,27.1032369 41.5202402,27.5542394 L68.1202402,39.6342394 C68.6559825,39.8775389 69,40.4116001 69,41 L69,72.44 C69,73.5311168 67.8720971,74.2571625 66.8789089,73.8053739 L40.2789089,61.7053739 C39.7436264,61.4618807 39.4,60.9280614 39.4,60.34 L39.4,28.92 Z M42.4,31.2486366 L42.4,59.3744305 L66,70.1097689 L66,41.9662306 L42.4,31.2486366 Z" id="Shape"></path>
            <path d="M178.5,144 L178.5,118.619974 C178.500018,117.563957 177.647227,116.70615 176.6,116.7 L151.268772,116.699974 C150.212773,116.70615 149.359982,117.563957 149.36,118.62 L149.36,144 C149.36,145.049341 150.210659,145.9 151.26,145.9 L176.6,145.9 C177.649341,145.9 178.5,145.049341 178.5,144 Z M181.5,144 C181.5,146.706195 179.306195,148.9 176.6,148.9 L151.26,148.9 C148.553805,148.9 146.36,146.706195 146.36,144 L146.36,118.620026 C146.359954,115.913981 148.54523,113.71585 151.26,113.7 L176.608772,113.700026 C179.31477,113.71585 181.500046,115.913981 181.5,118.62 L181.5,144 Z" id="Shape"></path>
            <path d="M136.72,132.88 C136.72,129.442794 135.354575,126.146368 132.924104,123.715896 C130.493632,121.285425 127.197206,119.92 123.76,119.92 C116.60239,119.92 110.8,125.72239 110.8,132.88 C110.8,140.03761 116.60239,145.84 123.76,145.84 C130.91761,145.84 136.72,140.03761 136.72,132.88 Z M139.72,132.88 C139.72,141.694465 132.574465,148.84 123.76,148.84 C114.945535,148.84 107.8,141.694465 107.8,132.88 C107.8,124.065535 114.945535,116.92 123.76,116.92 C127.992855,116.92 132.052344,118.601495 135.045424,121.594576 C138.038505,124.587656 139.72,128.647145 139.72,132.88 Z" id="Shape"></path>
            <path d="M136.72,132.88 C136.72,129.442794 135.354575,126.146368 132.924104,123.715896 C130.493632,121.285425 127.197206,119.92 123.76,119.92 C116.60239,119.92 110.8,125.72239 110.8,132.88 C110.8,140.03761 116.60239,145.84 123.76,145.84 C130.91761,145.84 136.72,140.03761 136.72,132.88 Z M139.72,132.88 C139.72,141.694465 132.574465,148.84 123.76,148.84 C114.945535,148.84 107.8,141.694465 107.8,132.88 C107.8,124.065535 114.945535,116.92 123.76,116.92 C127.992855,116.92 132.052344,118.601495 135.045424,121.594576 C138.038505,124.587656 139.72,128.647145 139.72,132.88 Z" id="Shape"></path>
            <path d="M151.996843,99.3800033 L176.023157,99.3800033 C176.704986,99.3814384 177.335308,99.0174179 177.674834,98.4261351 C178.01436,97.8348523 178.011026,97.1069748 177.665478,96.5177688 L165.66614,76.0188987 C165.321477,75.4312761 164.691244,75.070289 164.01,75.070289 C163.328756,75.070289 162.698523,75.4312761 162.354522,76.0177688 L150.353902,96.5188269 C150.008974,97.1069748 150.00564,97.8348523 150.345166,98.4261351 C150.684692,99.0174179 151.315014,99.3814384 151.996843,99.3800033 Z M147.743569,99.9200207 C146.867951,98.3951335 146.876548,96.5179757 147.765478,95.0022312 L159.76614,74.5011013 C160.64934,72.9953184 162.264313,72.070289 164.01,72.070289 C165.755687,72.070289 167.37066,72.9953184 168.254522,74.5022312 L180.253902,95.0011731 C181.143452,96.5179757 181.152049,98.3951335 180.276431,99.9200207 C179.400812,101.444908 177.775244,102.383698 176.02,102.38 L152.001435,102.38 C150.243695,102.383085 148.618902,101.44441 147.743569,99.9200207 Z" id="Shape"></path>
            <path d="M67.5,97.94 C65.7326888,97.94 64.3,96.5073112 64.3,94.74 C64.3,92.9726888 65.7326888,91.54 67.5,91.54 C69.2673112,91.54 70.7,92.9726888 70.7,94.74 C70.7,96.5073112 69.2673112,97.94 67.5,97.94 Z M67.5,94.94 C67.6104569,94.94 67.7,94.8504569 67.7,94.74 C67.7,94.6295431 67.6104569,94.54 67.5,94.54 C67.3895431,94.54 67.3,94.6295431 67.3,94.74 C67.3,94.8504569 67.3895431,94.94 67.5,94.94 Z" id="Oval"></path>
        </g>
    </g>
</svg>