<?xml version="1.0" encoding="UTF-8"?>
<svg width="182px" height="130px" viewBox="0 0 182 130" version="1.1" xmlns="http://www.w3.org/2000/svg" xmlns:xlink="http://www.w3.org/1999/xlink">
    <!-- Generator: Sketch 51.2 (57519) - http://www.bohemiancoding.com/sketch -->
    <title>seo</title>
    <desc>Created with Sketch.</desc>
    <defs></defs>
    <g id="website" stroke="none" stroke-width="1" fill="none" fill-rule="evenodd">
        <g id="seo" transform="translate(2.000000, 1.000000)" fill="#4A4A4A" fill-rule="nonzero">
            <path d="M77.910989,58.5904687 L77.910989,73.4121561 C79.0758918,74.276721 80.3045409,75.0654131 81.6284875,75.7959965 C82.1021553,76.0877826 82.5923398,76.3516533 83.1103236,76.5927638 C83.3185689,76.6924197 83.4570725,76.7587258 83.5549451,76.8054863 L83.5549451,58.5904687 L77.910989,58.5904687 Z M86.5549451,57.0904687 L86.5549451,79.0971875 C86.5549451,80.142122 85.5132654,80.8668854 84.5335013,80.5036357 C83.8563905,80.2525954 83.2492142,79.9835368 82.3190445,79.5398038 C82.217339,79.4912857 82.0650729,79.4183815 81.8309185,79.3062286 C81.2209547,79.0224036 80.6279886,78.7032047 80.1183771,78.3871721 C78.4980212,77.4951683 76.9503905,76.4762736 75.4898998,75.3399834 C75.1246254,75.0557928 74.910989,74.6189001 74.910989,74.1560937 L74.910989,57.0904687 C74.910989,56.2620416 75.5825619,55.5904687 76.410989,55.5904687 L85.0549451,55.5904687 C85.8833722,55.5904687 86.5549451,56.2620416 86.5549451,57.0904687 Z" id="Shape"></path>
            <path d="M102.243956,79.859375 C104.11727,79.859375 104.296888,82.6022654 102.439572,82.8465651 C102.224371,82.8748712 102.006398,82.8748712 101.791198,82.8465651 C99.9338814,82.6022654 100.113499,79.859375 101.986813,79.859375 L102.243956,79.859375 Z M102.182429,79.8721849 C102.137927,79.8663313 102.092843,79.8663313 102.04834,79.8721849 L102.115385,80.3818962 L102.182429,79.8721849 Z" id="Shape"></path>
            <path d="M1.5,54.2446875 L1.5,121.046875 C1.5,123.233358 3.26487995,125.003906 5.43956044,125.003906 L116.960449,125.003906 C119.140463,125.003921 120.911874,123.233259 120.91978,121.046875 L120.91978,91.678125 C120.91978,90.8496979 121.591353,90.178125 122.41978,90.178125 C123.248207,90.178125 123.91978,90.8496979 123.91978,91.678125 L123.91977,121.052292 C123.905894,124.894576 120.795222,128.003932 116.96044,128.003906 L5.43956044,128.003906 C1.60586838,128.003906 -1.5,124.888062 -1.5,121.046875 L-1.5,52.7446875 C-1.5,51.9162604 -0.828427125,51.2446875 0,51.2446875 L46.7406593,51.2446875 C47.5690865,51.2446875 48.2406593,51.9162604 48.2406593,52.7446875 C48.2406593,53.5731146 47.5690865,54.2446875 46.7406593,54.2446875 L1.5,54.2446875 Z" id="Shape"></path>
            <path d="M52.5188144,52.9815191 C52.3880159,52.1634829 52.9451322,51.3943004 53.7631684,51.2635019 C54.5812046,51.1327034 55.3503871,51.6898197 55.4811856,52.5078559 C56.4427694,58.5217659 58.6711114,64.2608541 62.0206253,69.3471396 C75.0381041,89.2740178 101.626389,94.9561879 121.607373,82.0828002 C122.303776,81.63412 123.23205,81.8349394 123.68073,82.5313428 C124.12941,83.2277461 123.928591,84.1560197 123.232187,84.6046998 C101.863885,98.3719117 73.4281464,92.2949231 59.5120812,70.9924895 C55.9315839,65.555472 53.5475477,59.4153942 52.5188144,52.9815191 Z" id="Shape"></path>
            <path d="M46.7406593,51.1454687 C47.5690865,51.1454687 48.2406593,51.8170416 48.2406593,52.6454687 C48.2406593,53.4738959 47.5690865,54.1454687 46.7406593,54.1454687 L0,54.1454687 C-0.828427125,54.1454687 -1.5,53.4738959 -1.5,52.6454687 L-1.49980293,41.3300612 C-1.43376014,37.2561881 1.84411977,33.9677803 5.93406593,33.90125 L47.2351648,33.90125 C48.063592,33.90125 48.7351648,34.5728229 48.7351648,35.40125 C48.7351648,36.2296771 48.063592,36.90125 47.2351648,36.90125 L5.95853609,36.9010504 C3.51378437,36.940938 1.53963839,38.9214246 1.5,41.354375 L1.5,51.1454687 L46.7406593,51.1454687 Z" id="Shape"></path>
            <path d="M55.4800421,52.5008118 C55.6147309,53.3182165 55.0612804,54.0900408 54.2438757,54.2247296 C53.426471,54.3594184 52.6546467,53.8059679 52.5199579,52.9885632 C51.5383874,47.0315701 51.7399055,40.9387256 53.1129389,35.0600872 C53.3013579,34.2533718 54.1080737,33.7521435 54.9147892,33.9405625 C55.7215046,34.1289815 56.2227329,34.9356974 56.0343139,35.7424128 C54.7509003,41.2373442 54.5625325,46.9325937 55.4800421,52.5008118 Z" id="Shape"></path>
            <path d="M8.64395604,48.4701563 C6.21950046,48.4701563 4.25604396,46.5003935 4.25604396,44.0729687 C4.25604396,41.645544 6.21950046,39.6757812 8.64395604,39.6757812 C11.0684116,39.6757812 13.0318681,41.645544 13.0318681,44.0729687 C13.0318681,46.5003935 11.0684116,48.4701563 8.64395604,48.4701563 Z M8.64395604,45.4701563 C9.40940007,45.4701563 10.0318681,44.8456889 10.0318681,44.0729687 C10.0318681,43.3002486 9.40940007,42.6757812 8.64395604,42.6757812 C7.87851202,42.6757812 7.25604396,43.3002486 7.25604396,44.0729687 C7.25604396,44.8456889 7.87851202,45.4701563 8.64395604,45.4701563 Z" id="Oval"></path>
            <path d="M20.156044,48.4701563 C17.7315884,48.4701563 15.7681319,46.5003935 15.7681319,44.0729687 C15.7681319,41.645544 17.7315884,39.6757812 20.156044,39.6757812 C22.5804995,39.6757812 24.543956,41.645544 24.543956,44.0729687 C24.543956,46.5003935 22.5804995,48.4701563 20.156044,48.4701563 Z M20.156044,45.4701563 C20.921488,45.4701563 21.543956,44.8456889 21.543956,44.0729687 C21.543956,43.3002486 20.921488,42.6757812 20.156044,42.6757812 C19.3905999,42.6757812 18.7681319,43.3002486 18.7681319,44.0729687 C18.7681319,44.8456889 19.3905999,45.4701563 20.156044,45.4701563 Z" id="Oval"></path>
            <path d="M31.6879121,48.4701563 C29.2634565,48.4701563 27.3,46.5003935 27.3,44.0729687 C27.3,41.645544 29.2634565,39.6757812 31.6879121,39.6757812 C34.1123677,39.6757812 36.0758242,41.645544 36.0758242,44.0729687 C36.0758242,46.5003935 34.1123677,48.4701563 31.6879121,48.4701563 Z M31.6879121,45.4701563 C32.4533561,45.4701563 33.0758242,44.8456889 33.0758242,44.0729687 C33.0758242,43.3002486 32.4533561,42.6757812 31.6879121,42.6757812 C30.9224681,42.6757812 30.3,43.3002486 30.3,44.0729687 C30.3,44.8456889 30.9224681,45.4701563 31.6879121,45.4701563 Z" id="Oval"></path>
            <path d="M53.9334376,72.7431548 C54.6480258,72.3240425 55.5670717,72.563573 55.9861841,73.2781612 C56.4052965,73.9927494 56.165766,74.9117953 55.4511778,75.3309077 C54.7924905,75.7172336 54.042075,75.918694 53.2879121,75.9140625 L14.4000353,75.9140625 C11.9872654,75.9141193 10.028616,73.9626376 10.0120879,71.5367188 L10.0121222,68.6293942 C10.0284431,66.2144027 11.9778009,64.2587841 14.4,64.2423438 L50.2813187,64.2423438 C51.1097458,64.2423438 51.7813187,64.9139166 51.7813187,65.7423438 C51.7813187,66.5707709 51.1097458,67.2423438 50.2813187,67.2423438 L14.4102023,67.2423091 C13.6412754,67.247539 13.017299,67.8735195 13.0120879,68.6395313 L13.012053,71.5264777 C13.017303,72.295435 13.6382207,72.9140804 14.4,72.9140625 L53.2970683,72.9140904 C53.5204948,72.9154543 53.7402607,72.8564548 53.9334376,72.7431548 Z" id="Shape"></path>
            <path d="M53.2879121,88.8089063 C53.6514237,88.8089149 54.0001771,88.6632926 54.257021,88.4038468 C54.5147925,88.1434639 54.658609,87.7899908 54.656044,87.4117187 L54.6560794,84.5240633 C54.658609,84.156103 54.5147925,83.8026299 54.257021,83.542247 C54.0001771,83.2828011 53.6514237,83.1371788 53.2879121,83.1371875 L14.4,83.1371875 C13.634556,83.1371875 13.0120879,83.7616548 13.0120879,84.534375 L13.0120879,87.4117187 C13.0120879,88.1844389 13.634556,88.8089063 14.4,88.8089063 L53.2879121,88.8089063 Z M14.4,91.8089063 C11.9755444,91.8089063 10.0120879,89.8391435 10.0120879,87.4117187 L10.0120879,84.534375 C10.0120879,82.1069502 11.9755444,80.1371875 14.4,80.1371875 L53.2878763,80.1371875 C54.4526314,80.1371597 55.5689465,80.603278 56.3890052,81.4316443 C57.2081363,82.2590736 57.6640184,83.3795442 57.656044,84.534375 L57.6560085,87.401407 C57.6640184,88.5665496 57.2081363,89.6870201 56.3890052,90.5144494 C55.5689465,91.3428157 54.4526314,91.808934 53.2878763,91.8089062 L14.4,91.8089063 Z" id="Shape"></path>
            <path d="M109.443956,116.252813 C109.817792,116.255363 110.167517,116.112156 110.426116,115.854503 C110.68565,115.59592 110.831877,115.243464 110.831868,114.875469 L110.831868,103.306527 C110.831877,102.938567 110.68565,102.586111 110.426116,102.327528 C110.167517,102.069875 109.817792,101.926668 109.443956,101.929219 L14.4988658,101.929219 C13.7371218,101.929201 13.1162041,102.547846 13.110989,103.306562 L13.1109541,114.865228 C13.1162041,115.634185 13.7371218,116.25283 14.4989011,116.252813 L109.443956,116.252813 Z M14.4989364,119.252812 C12.0861665,119.252869 10.1275171,117.301388 10.110989,114.875469 L10.111024,103.296321 C10.1275171,100.880644 12.0861665,98.929162 14.4989011,98.9292188 L109.433578,98.9292547 C110.598314,98.921196 111.717814,99.3796138 112.543545,100.202322 C113.368341,101.0241 113.831896,102.141419 113.831868,103.306562 L113.831868,114.875433 C113.831896,116.040612 113.368341,117.157931 112.543545,117.979709 C111.719169,118.801068 110.601987,119.25933 109.439311,119.252812 L14.4989364,119.252812 Z" id="Shape"></path>
            <path d="M134.966156,73.8928259 C133.133467,76.2653505 131.070142,78.4493823 128.806595,80.4126307 L136.288798,87.9801404 L142.618307,81.6154315 L134.966156,73.8928259 Z M145.795465,82.6750587 L137.349311,91.1681837 C136.761662,91.7591015 135.804995,91.7577165 135.219059,91.1650998 L125.526751,81.3622873 C124.901843,80.7302541 124.960466,79.6965244 125.652824,79.1391939 C128.667053,76.7128158 131.334456,73.8820899 133.580069,70.7265365 C134.119733,69.9681963 135.212582,69.8793046 135.867707,70.5404613 L145.797378,80.5615551 C146.377443,81.1469614 146.376589,82.090703 145.795465,82.6750587 Z" id="Shape"></path>
            <path d="M74.8318681,57.0904688 C74.8318681,56.2620416 75.503441,55.5904688 76.3318681,55.5904688 L84.9758242,55.5904688 C85.8042513,55.5904688 86.4758242,56.2620416 86.4758242,57.0904688 L86.4758242,79.0971875 C86.4758242,80.142122 85.4341446,80.8668854 84.4543804,80.5036357 C83.7772696,80.2525954 83.1700933,79.9835368 82.2399236,79.5398038 C82.1382181,79.4912857 81.9859521,79.4183815 81.7517976,79.3062286 C81.1418339,79.0224036 80.5488677,78.7032047 80.0392562,78.3871721 C78.4189003,77.4951683 76.8712696,76.4762736 75.4107789,75.3399834 C75.0455045,75.0557928 74.8318681,74.6189001 74.8318681,74.1560937 L74.8318681,57.0904688 Z M77.8318681,73.4121561 C78.9967709,74.276721 80.22542,75.0654131 81.5493666,75.7959965 C82.0230344,76.0877826 82.5132189,76.3516533 83.0312027,76.5927638 C83.2394481,76.6924197 83.3779517,76.7587258 83.4758242,76.8054863 L83.4758242,58.5904688 L77.8318681,58.5904688 L77.8318681,73.4121561 Z M102.182429,79.8721849 C102.137927,79.8663313 102.092843,79.8663313 102.04834,79.8721849 L102.115385,80.3818962 L102.182429,79.8721849 Z M101.986813,79.859375 L102.243956,79.859375 C104.11727,79.859375 104.296888,82.6022654 102.439572,82.8465651 C102.224371,82.8748712 102.006398,82.8748712 101.791198,82.8465651 C99.9338814,82.6022654 100.113499,79.859375 101.986813,79.859375 Z" id="Shape"></path>
            <path d="M136.024326,72.4659635 C133.61932,75.8454977 130.762458,78.877283 127.548825,81.4640191 C126.292649,82.5019066 124.979966,83.4690041 123.59843,84.3726966 L123.232654,84.6043992 C101.860193,98.3854823 73.4091112,92.3071647 59.4902236,70.9893262 C52.5515362,60.3947715 50.2396549,47.4125825 53.0921785,35.0643111 C57.267627,16.9508847 71.8089271,3.07950566 90.0544937,-0.192922394 C108.300358,-3.4654038 126.732957,4.49234541 136.906824,20.0328022 C147.422391,36.0183135 147.07303,56.840735 136.024326,72.4659635 Z M134.399608,21.6801851 C124.882533,7.14182067 107.645523,-0.300085937 90.5841069,2.75995923 C73.5218345,5.8201579 59.9214377,18.7939814 56.0153571,35.7388676 C53.346745,47.2910065 55.5094592,59.4355596 62.0010407,69.3474391 C75.0194002,89.2860477 101.622032,94.9694605 121.616954,82.0766784 L121.974367,81.8504086 C123.244434,81.0194544 124.467525,80.118362 125.652824,79.1391939 C128.667053,76.7128158 131.334456,73.8820899 133.577453,70.7302251 C143.911128,56.1161882 144.237693,36.6346165 134.399608,21.6801851 Z M126.713071,26.5597324 C117.607305,12.8981445 100.149478,7.5969808 85.0222495,13.8986574 C69.8929484,20.2011975 61.3108397,36.3534932 64.529877,52.4686885 C65.873262,59.1462111 69.1724587,65.2693284 74.0192773,70.0685864 C75.044861,71.1121309 76.1460778,72.0780012 77.3320782,72.9722041 C78.667841,74.0114536 80.0832563,74.9433033 81.6284875,75.7959965 C82.1021553,76.0877826 82.5923398,76.3516533 83.1103236,76.5927638 C83.3616523,76.7130373 83.5113968,76.7847341 83.6107314,76.8321212 C84.4656212,77.2399423 85.0041436,77.4785782 85.6291488,77.7114422 C88.2115593,78.7815016 90.923669,79.503717 93.694749,79.859375 L102.164495,79.859375 C104.966708,79.5582614 107.719393,78.8975913 110.400529,77.8770139 C110.985159,77.676156 111.557344,77.4405049 112.142872,77.1577457 L113.253459,76.6496618 C113.673761,76.4509826 114.083514,76.2305546 114.555385,75.9470071 C115.978494,75.1906744 117.343251,74.3286232 118.5899,73.4054666 C118.489599,73.4864025 119.774904,72.4562469 120.130196,72.1645658 C120.625012,71.7583412 121.036429,71.4053686 121.376848,71.0936221 L122.474144,70.0321167 C134.036066,58.4108991 135.812962,40.2125064 126.713071,26.5597324 Z M123.434067,73.2768082 C123.019228,73.6575604 122.56792,74.0447575 122.033768,74.4832757 C121.66241,74.7881464 120.360914,75.8312783 120.425497,75.7775643 C119.010231,76.8273434 117.518672,77.7694897 116.037617,78.5538595 C115.551206,78.8490818 115.049843,79.1187919 114.518667,79.3697543 L113.420029,79.8721246 C112.75575,80.1933403 112.072961,80.4745437 111.421933,80.6973458 C108.520149,81.8028548 105.487857,82.5268163 102.400688,82.8511642 L93.6,82.859375 C90.3439605,82.4629228 87.3397102,81.6675883 84.5335013,80.5036357 C83.8563905,80.2525954 83.2492142,79.9835368 82.3190445,79.5398038 C82.217339,79.4912857 82.0650729,79.4183815 81.8309185,79.3062286 C81.2209547,79.0224036 80.6279886,78.7032047 80.1183771,78.3871721 C78.4980212,77.4951683 76.9503905,76.4762736 75.5080937,75.3539168 C74.2219043,74.3844126 73.0090959,73.320666 71.8940546,72.1858984 C66.6378557,66.98149 63.0497252,60.3221285 61.5883995,53.0583544 C58.0891364,35.540296 67.418158,17.9822436 83.8686116,11.1293398 C100.321138,4.27557254 119.308362,10.0411456 129.209387,24.8958797 C139.108792,39.7481822 137.166223,59.5476094 124.56983,72.1791801 C124.556414,72.1926338 124.177826,72.5585098 123.434067,73.2768082 Z" id="Shape"></path>
            <path d="M122.366433,70.0409761 C133.95401,58.4210378 135.741337,40.2039082 126.63395,26.5398887 C117.528184,12.8783008 100.070357,7.57713705 84.9431286,13.8788136 C69.8138275,20.1813538 61.2317188,36.3336494 64.4507561,52.4488448 C65.7941411,59.1263674 69.0933378,65.2494847 73.9401565,70.0487426 C74.2313648,70.3450508 74.5286711,70.6350967 74.8318681,70.9186986 L74.8318681,57.0904687 C74.8318681,56.2620416 75.503441,55.5904687 76.3318681,55.5904687 L85.0549451,55.5904687 C85.8833722,55.5904687 86.5549451,56.2620416 86.5549451,57.0904687 L86.5549451,78.0780719 C88.3534916,78.7577296 90.209538,79.2714393 92.0999996,79.6130932 L92.1,45.5215625 C92.1,44.6931354 92.7715729,44.0215625 93.6,44.0215625 L102.243956,44.0215625 C103.072383,44.0215625 103.743956,44.6931354 103.743956,45.5215625 L103.743956,79.6656521 C105.66082,79.3824934 107.549481,78.9302192 109.387912,78.3138833 L109.387912,32.5239062 C109.387912,31.6954791 110.059485,31.0239062 110.887912,31.0239062 L119.531868,31.0239062 C120.360295,31.0239062 121.031868,31.6954791 121.031868,32.5239062 L121.031868,71.4024158 C121.154237,71.2951001 121.269099,71.192296 121.376848,71.0936221 L122.10334,70.3908263 C122.170606,70.2676702 122.257822,70.1498911 122.366433,70.0409761 Z M124.570405,72.1782529 L123.434067,73.2768082 C123.019228,73.6575604 122.56792,74.0447575 122.033768,74.4832757 C121.66241,74.7881464 120.360914,75.8312783 120.473836,75.7401584 C119.492721,76.5318512 118.031868,75.8335127 118.031868,74.5728125 L118.031868,34.0239062 L112.387912,34.0239062 L112.387912,79.375 C112.387912,80.0023184 111.997541,80.5633821 111.409346,80.781452 C108.503758,81.8586806 105.471565,82.554775 102.388087,82.8524344 C101.506804,82.9375078 100.743956,82.2447541 100.743956,81.359375 L100.743956,47.0215625 L95.1,47.0215625 L95.1,81.359375 C95.1,82.2618383 94.308867,82.9599835 93.413413,82.8477248 C90.3439605,82.4629228 87.3397102,81.6675883 84.4807413,80.4829328 C83.9203246,80.250716 83.5549451,79.7038105 83.5549451,79.0971875 L83.5549451,58.5904687 L77.8318681,58.5904687 L77.8318681,74.13625 C77.8318681,75.3739873 76.4173663,76.0791045 75.4289728,75.334073 C74.1427834,74.3645688 72.9299751,73.3008222 71.8149338,72.1660547 C66.5587348,66.9616462 62.9706043,60.3022847 61.5092786,53.0385106 C58.0100155,35.5204523 67.3390371,17.9623998 83.7894907,11.1094961 C100.242017,4.25572879 119.229241,10.0213018 129.130266,24.876036 C138.928277,39.5762147 137.125653,59.1226958 124.874409,71.7689593 C124.800894,71.9142612 124.700321,72.0525745 124.570405,72.1782529 Z" id="Shape"></path>
            <path d="M77.910989,58.5904687 L77.910989,73.4121561 C79.0758918,74.276721 80.3045409,75.0654131 81.6284875,75.7959965 C82.1021553,76.0877826 82.5923398,76.3516533 83.1103236,76.5927638 C83.3185689,76.6924197 83.4570725,76.7587258 83.5549451,76.8054863 L83.5549451,58.5904687 L77.910989,58.5904687 Z M86.5549451,57.0904687 L86.5549451,79.0971875 C86.5549451,80.142122 85.5132654,80.8668854 84.5335013,80.5036357 C83.8563905,80.2525954 83.2492142,79.9835368 82.3190445,79.5398038 C82.217339,79.4912857 82.0650729,79.4183815 81.8309185,79.3062286 C81.2209547,79.0224036 80.6279886,78.7032047 80.1183771,78.3871721 C78.4980212,77.4951683 76.9503905,76.4762736 75.4898998,75.3399834 C75.1246254,75.0557928 74.910989,74.6189001 74.910989,74.1560937 L74.910989,57.0904687 C74.910989,56.2620416 75.5825619,55.5904687 76.410989,55.5904687 L85.0549451,55.5904687 C85.8833722,55.5904687 86.5549451,56.2620416 86.5549451,57.0904687 Z" id="Shape"></path>
            <path d="M174.42775,109.425677 L147.768545,82.6808277 C147.220195,82.1353934 146.338047,82.1353934 145.795465,82.6750587 L137.349311,91.1681837 L137.179528,91.3201887 C136.668035,91.8751176 136.679463,92.7417982 137.209219,93.2778354 L163.897978,120.032491 C165.232135,121.383277 167.048369,122.142905 168.942857,122.142905 C170.837345,122.142905 172.653579,121.383277 174.044165,119.978264 L174.450564,119.607625 C177.227261,116.783705 177.218953,112.237146 174.42775,109.425677 Z M143.674039,80.5538598 C145.392655,78.8443826 148.165587,78.8443826 149.888733,80.5583855 L176.554599,107.309901 C180.517626,111.301697 180.517626,117.754709 176.554599,121.746505 L176.122154,122.140634 C174.224614,124.061823 171.639801,125.142905 168.942857,125.142905 C166.245913,125.142905 163.661101,124.061823 161.768803,122.145915 L135.080382,95.3916008 C133.37903,93.6701484 133.37903,90.8965703 135.080382,89.1751179 L135.263369,89.0112729 L143.674039,80.5538598 Z" id="Shape"></path>
            <path d="M112.387912,34.0239062 L112.387912,77.0456419 L113.253459,76.6496618 C113.673761,76.4509826 114.083514,76.2305546 114.555385,75.9470071 C115.758195,75.3077556 116.91932,74.592983 118.031868,73.8070409 L118.031868,34.0239062 L112.387912,34.0239062 Z M121.031868,32.5239062 L121.031868,74.5728125 C121.031868,75.0477462 120.806949,75.4946212 120.425497,75.7775643 C119.010231,76.8273434 117.518672,77.7694897 116.037617,78.5538595 C115.551206,78.8490818 115.049843,79.1187919 114.518667,79.3697543 L113.420029,79.8721246 C112.75575,80.1933403 112.072961,80.4745437 111.375295,80.7142361 C110.401527,81.0487876 109.387912,80.3252606 109.387912,79.295625 L109.387912,32.5239062 C109.387912,31.6954791 110.059485,31.0239062 110.887912,31.0239062 L119.531868,31.0239062 C120.360295,31.0239062 121.031868,31.6954791 121.031868,32.5239062 Z" id="Shape"></path>
            <path d="M95.1,47.1201062 L95.1,79.859375 L100.743956,79.859375 L100.743956,47.0423659 L95.1,47.1201062 Z M102.182429,79.8721849 C102.160179,79.8692582 102.137784,79.8677949 102.115388,79.8677947 L102.182429,79.8721849 Z M93.6,82.859375 C92.7715729,82.859375 92.1,82.1878021 92.1,81.359375 L92.1,45.640625 C92.1,44.8202546 92.7590482,44.152066 93.5793408,44.1407673 L102.223297,44.0217048 C103.059724,44.0101838 103.743956,44.6850557 103.743956,45.5215625 L103.743956,81.359375 C103.743956,82.1121883 103.185956,82.7483904 102.439572,82.8465651 C102.264209,82.8696313 102.087004,82.8739012 101.91096,82.859375 L93.6,82.859375 Z" id="Shape"></path>
            <path d="M102.243956,79.859375 C104.11727,79.859375 104.296888,82.6022654 102.439572,82.8465651 C102.224371,82.8748712 102.006398,82.8748712 101.791198,82.8465651 C99.9338814,82.6022654 100.113499,79.859375 101.986813,79.859375 L102.243956,79.859375 Z M102.182429,79.8721849 C102.137927,79.8663313 102.092843,79.8663313 102.04834,79.8721849 L102.115385,80.3818962 L102.182429,79.8721849 Z" id="Shape"></path>
            <path d="M77.910989,58.5904687 L77.910989,73.4121561 C79.0758918,74.276721 80.3045409,75.0654131 81.6284875,75.7959965 C82.1021553,76.0877826 82.5923398,76.3516533 83.1103236,76.5927638 C83.3185689,76.6924197 83.4570725,76.7587258 83.5549451,76.8054863 L83.5549451,58.5904687 L77.910989,58.5904687 Z M86.5549451,57.0904687 L86.5549451,79.0971875 C86.5549451,80.142122 85.5132654,80.8668854 84.5335013,80.5036357 C83.8563905,80.2525954 83.2492142,79.9835368 82.3190445,79.5398038 C82.217339,79.4912857 82.0650729,79.4183815 81.8309185,79.3062286 C81.2209547,79.0224036 80.6279886,78.7032047 80.1183771,78.3871721 C78.4980212,77.4951683 76.9503905,76.4762736 75.4898998,75.3399834 C75.1246254,75.0557928 74.910989,74.6189001 74.910989,74.1560937 L74.910989,57.0904687 C74.910989,56.2620416 75.5825619,55.5904687 76.410989,55.5904687 L85.0549451,55.5904687 C85.8833722,55.5904687 86.5549451,56.2620416 86.5549451,57.0904687 Z" id="Shape"></path>
        </g>
    </g>
</svg>