<?xml version="1.0" standalone="no"?>
<!DOCTYPE svg PUBLIC "-//W3C//DTD SVG 20010904//EN"
 "http://www.w3.org/TR/2001/REC-SVG-20010904/DTD/svg10.dtd">
<svg version="1.0" xmlns="http://www.w3.org/2000/svg"
 width="1024.000000pt" height="1024.000000pt" viewBox="0 0 1024.000000 1024.000000"
 preserveAspectRatio="xMidYMid meet">
<metadata>
Created by potrace 1.11, written by Peter Selinger 2001-2013
</metadata>
<g transform="translate(0.000000,1024.000000) scale(0.100000,-0.100000)"
fill="#000000" stroke="none">
<path d="M220 8751 c0 -10 29 -207 64 -437 91 -586 387 -2521 506 -3299 55
-357 102 -664 105 -680 l5 -31 68 3 c37 2 258 10 492 18 844 30 4001 145 4265
155 270 10 3388 124 3797 138 119 4 220 11 224 15 7 7 53 656 213 3012 39 567
73 1051 75 1078 l5 47 -4909 0 c-4788 0 -4910 0 -4910 -19z"/>
<path d="M2960 3265 c0 -18 94 -235 155 -360 228 -464 603 -837 1062 -1057
306 -147 582 -214 923 -225 643 -21 1234 212 1690 667 267 266 429 528 596
965 5 13 -52 15 -448 15 l-453 0 -34 -57 c-116 -197 -294 -390 -461 -501 -447
-297 -999 -334 -1467 -98 -249 125 -493 361 -634 613 l-24 43 -452 0 c-249 0
-453 -2 -453 -5z"/>
</g>
</svg>
