<?xml version="1.0" encoding="UTF-8"?>
<svg width="92px" height="76px" viewBox="0 0 92 76" version="1.1" xmlns="http://www.w3.org/2000/svg" xmlns:xlink="http://www.w3.org/1999/xlink">
    <!-- Generator: Sketch 52.5 (67469) - http://www.bohemiancoding.com/sketch -->
    <title>graph</title>
    <desc>Created with Sketch.</desc>
    <g id="deck" stroke="none" stroke-width="1" fill="none" fill-rule="evenodd" stroke-linecap="round" stroke-linejoin="round">
        <g id="it-daddy-04" transform="translate(-299.000000, -685.000000)" stroke="#00E676" stroke-width="2">
            <g id="graph" transform="translate(300.000000, 686.000000)">
                <path d="M24.73,42.93 L9.89,42.93 C8.7854305,42.93 7.89,43.8254305 7.89,44.93 L7.89,73.59 L26.7,73.59 L26.7,44.91 C26.6892691,43.8248353 25.8150964,42.9462252 24.73,42.93 Z" id="Shape"></path>
                <path d="M51.43,12.27 L36.59,12.27 C35.4854305,12.27 34.59,13.1654305 34.59,14.27 L34.59,73.59 L53.41,73.59 L53.41,14.25 C53.3991633,13.1609965 52.5190035,12.2808367 51.43,12.27 Z" id="Shape"></path>
                <path d="M78.13,22.16 L63.3,22.16 C62.1954305,22.16 61.3,23.0554305 61.3,24.16 L61.3,73.59 L80.11,73.59 L80.11,24.14 C80.0991633,23.0509965 79.2190035,22.1708367 78.13,22.16 Z" id="Shape"></path>
                <polyline id="Shape" points="0 0.41 0 73.59 90 73.59"></polyline>
            </g>
        </g>
    </g>
</svg>