<?xml version="1.0" encoding="UTF-8"?>
<svg viewBox="0 0 126 116" version="1.1" xmlns="http://www.w3.org/2000/svg" xmlns:xlink="http://www.w3.org/1999/xlink">
    <!-- Generator: Sketch 52.5 (67469) - http://www.bohemiancoding.com/sketch -->
    <title>graph-up</title>
    <desc>Created with Sketch.</desc>
    <g id="deck" stroke="none" stroke-width="1" fill="none" fill-rule="evenodd">
        <g id="it-daddy-10" transform="translate(-310.000000, -392.000000)" fill="#1ED761" fill-rule="nonzero">
            <g id="graph-up" transform="translate(373.000000, 450.000000) scale(-1, 1) translate(-373.000000, -450.000000) translate(310.000000, 392.000000)">
                <g id="decreasinggraph">
                    <g id="Group">
                        <g id="Group-2" opacity="0.300000012" transform="translate(0.000000, 22.000000)">
                            <polygon id="Shape" opacity="0.200000003" points="5.14285714 88.0681357 72 88.0681357 72 54.6395 77.1428571 54.6395 77.1428571 88.0681357 95.1428571 88.0681357 95.1428571 62.35385 100.285714 62.35385 100.285714 88.0681357 120.857143 88.0681357 120.857143 53.80205 5.14285714 7.02416429"></polygon>
                            <path d="M124.392857,49.6837786 L3.53571429,0.826635714 C2.74467857,0.510221429 1.8432,0.601892857 1.13252143,1.07902143 C0.424414286,1.55737143 0,2.35592857 0,3.21099286 L0,90.6395643 C0,92.0596357 1.15013571,93.2109929 2.57142857,93.2109929 L123.428571,93.2109929 C124.849864,93.2109929 126,92.0596357 126,90.6395643 L126,52.0681357 C126,51.0197 125.364664,50.0767571 124.392857,49.6837786 Z M120.857143,88.0681357 L100.285714,88.0681357 L100.285714,62.35385 L95.1428571,62.35385 L95.1428571,88.0681357 L77.1428571,88.0681357 L77.1428571,54.6395643 L72,54.6395643 L72,88.0681357 L5.14285714,88.0681357 L5.14285714,7.02416429 L120.857143,53.80205 L120.857143,88.0681357 Z" id="Shape"></path>
                        </g>
                        <path d="M24.0948783,4.94970538 L114.656093,42.1290268 L104.057757,45.987134 C102.721835,46.471784 102.033785,47.9483625 102.520943,49.2817768 C102.9001,50.3264197 103.887014,50.9755768 104.936671,50.9755768 C105.22795,50.9755768 105.526814,50.9253697 105.815585,50.8186554 L122.728257,44.6625268 C124.064178,44.1778768 124.752228,42.702584 124.265071,41.367884 L118.110228,24.4527054 C117.625578,23.116784 116.146493,22.4274482 114.815585,22.9146054 C113.479664,23.4005411 112.791614,24.875834 113.278771,26.210534 L117.467693,37.7229482 L26.0485854,0.19101967 C24.742814,-0.342616044 23.2310711,0.278898242 22.6936426,1.59347681 C22.1537711,2.90811967 22.7815211,4.40976967 24.0948783,4.94970538 Z" id="Shape" transform="translate(73.460792, 25.487788) scale(-1, -1) translate(-73.460792, -25.487788) "></path>
                    </g>
                </g>
            </g>
        </g>
    </g>
</svg>