<?xml version="1.0" encoding="UTF-8"?>
<svg width="97px" height="70px" viewBox="0 0 97 70" version="1.1" xmlns="http://www.w3.org/2000/svg" xmlns:xlink="http://www.w3.org/1999/xlink">
    <!-- Generator: Sketch 52.5 (67469) - http://www.bohemiancoding.com/sketch -->
    <title>research</title>
    <desc>Created with Sketch.</desc>
    <g id="deck" stroke="none" stroke-width="1" fill="none" fill-rule="evenodd" stroke-linecap="round" stroke-linejoin="round">
        <g id="it-daddy-04" transform="translate(-299.000000, -355.000000)" stroke="#00E676" stroke-width="2">
            <g id="research" transform="translate(300.000000, 356.000000)">
                <path d="M45.1544576,30.3351552 L45.1544576,42.0284771 C44.6714099,41.8492287 44.2198654,41.6278042 43.7788218,41.4169238 C43.4830712,41.2791858 43.1955566,41.1242781 42.9177368,40.9529867 C42.0942696,40.4992707 41.3077501,39.9810044 40.5655046,39.4030153 L40.5655046,30.3351552 L45.1544576,30.3351552 Z" id="Shape"></path>
                <path d="M54.2798585,43.2304958 L54.143345,43.2304958 C54.1886556,43.2364609 54.2345479,43.2364609 54.2798585,43.2304958 Z" id="Shape"></path>
                <path d="M24.8139496,28.0260141 L0,28.0260141 L0,64.3185425 C0,65.9199509 1.29290542,67.2181489 2.88778508,67.2181489 L62.0926298,67.2181489 C63.689217,67.2181594 64.9851311,65.921655 64.9909159,64.3185425 L64.9909159,48.7133879" id="Shape"></path>
                <path d="M28.6678301,28.0260141 C29.1961456,31.3330941 30.4204685,34.4891055 32.2591846,37.2836666 C39.4093078,48.2385425 54.0150425,51.3626708 64.9909159,44.2848981" id="Shape"></path>
                <path d="M25.0764755,18.8105377 L3.150311,18.8105377 C1.42221746,18.8387573 0.0281046257,20.2385771 0,21.9737447 L0,27.973294 L24.8139496,27.973294" id="Shape"></path>
                <path d="M28.6678301,28.0260141 C28.1637328,24.96404 28.2672252,21.8322242 28.9723601,18.8105377" id="Shape"></path>
                <ellipse id="Oval" cx="4.58895302" cy="23.4182759" rx="1.53315135" ry="1.53942741"></ellipse>
                <ellipse id="Oval" cx="10.7005564" cy="23.4182759" rx="1.53315135" ry="1.53942741"></ellipse>
                <ellipse id="Oval" cx="16.8226607" cy="23.4182759" rx="1.53315135" ry="1.53942741"></ellipse>
                <path d="M29.0353664,39.3397512 C28.8092451,39.4724899 28.5517174,39.5416879 28.2897928,39.5400876 L7.64475469,39.5400876 C6.80210259,39.5401074 6.11737493,38.8572859 6.11160334,38.0112042 L6.11160334,36.4717768 C6.11732796,35.6239669 6.80040116,34.9380975 7.64475469,34.9323494 L26.6936352,34.9323494" id="Shape"></path>
                <path d="M28.2897928,47.9858503 L7.64475469,47.9858503 C6.79801858,47.9858503 6.11160334,47.2966252 6.11160334,46.4464229 L6.11160334,44.9175395 C6.11160334,44.0673372 6.79801858,43.3781121 7.64475469,43.3781121 L28.2897928,43.3781121 C28.6954508,43.3781024 29.0843428,43.5406273 29.3701989,43.8296331 C29.656055,44.1186389 29.8152407,44.5102306 29.8124431,44.9175395 L29.8124431,46.4464229 C29.8152407,46.8537318 29.656055,47.2453235 29.3701989,47.5343293 C29.0843428,47.8233351 28.6954508,47.98586 28.2897928,47.9858503 Z" id="Shape"></path>
                <path d="M58.1022358,62.5682346 L7.69725987,62.5682346 C6.85460778,62.5682545 6.16988011,61.8854329 6.16410852,61.0393512 L6.16410852,54.8921856 C6.16988011,54.0461039 6.85460778,53.3632824 7.69725987,53.3633022 L58.1022358,53.3633022 C58.5078842,53.3604931 58.8978794,53.5203305 59.185707,53.8073568 C59.4735345,54.0943831 59.6353968,54.484867 59.6353872,54.8921856 L59.6353872,61.0393512 C59.6353968,61.4466698 59.4735345,61.8371538 59.185707,62.1241801 C58.8978794,62.4112063 58.5078842,62.5710437 58.1022358,62.5682346 Z" id="Shape"></path>
                <path d="M76.8360852,43.3675681 L72.3521426,47.8804101 L67.2066346,42.6716625 C68.8637141,41.336583 70.3300913,39.7790534 71.5645648,38.0428363 L76.8360852,43.3675681 Z" id="Shape"></path>
                <path d="M40.5235005,30.3351552 L40.5235005,39.4030153 C41.265746,39.9810044 42.0522655,40.4992707 42.8757327,40.9529867 C43.1535524,41.1242781 43.4410671,41.2791858 43.7368177,41.4169238 C44.1778612,41.6278042 44.6294058,41.8492287 45.1124535,42.0284771 L45.1124535,30.3351552 L40.5235005,30.3351552 Z M54.143345,43.2304958 L54.2798585,43.2304958 C54.2345479,43.2364609 54.1886556,43.2364609 54.143345,43.2304958 Z" id="Shape"></path>
                <path d="M72.0161094,11.0817686 C66.7898374,3.09105021 57.3214429,-1.00042753 47.9492288,0.682000538 C38.5770146,2.36442861 31.1070018,9.49655945 28.9618591,18.8105377 C27.4962714,25.1604877 28.6840209,31.8360645 32.2486836,37.2836666 C39.3992902,48.2449908 54.0129059,51.3698024 64.9909159,44.2848981 L65.1904356,44.1583698 C65.8893974,43.7006652 66.5625004,43.2043316 67.2066346,42.6716625 C68.8637141,41.336583 70.3300913,39.7790534 71.5645648,38.0428363 C77.2397574,30.0098404 77.4190955,19.3018241 72.0161094,11.0817686 Z M65.5789739,37.7792357 L64.9909159,38.348613 C64.4973672,38.802006 63.9408122,39.2343109 63.4577645,39.6244398 C62.7383468,40.1585396 61.9801581,40.6378719 61.1895406,41.058427 C60.9548991,41.2009653 60.7130502,41.3311833 60.4649691,41.4485558 L59.86641,41.7227004 C59.5423116,41.8795577 59.2091878,42.0168736 58.8688115,42.1339173 C57.3927043,42.6967724 55.8502321,43.0653623 54.2798585,43.2304958 L54.143345,43.2304958 L54.0068315,43.2304958 L53.2087528,43.2304958 C52.8622185,43.2304958 52.4946823,43.2304958 52.1586491,43.2304958 C51.8226159,43.2304958 51.3290672,43.2304958 50.9300278,43.2304958 C50.5309884,43.2304958 50.0899449,43.2304958 49.6909055,43.2304958 C48.1321065,43.0349051 46.6064039,42.630641 45.1544576,42.0284771 C44.6714099,41.8492287 44.2198654,41.6278042 43.7788218,41.4169238 C43.4830712,41.2791858 43.1955566,41.1242781 42.9177368,40.9529867 C42.0942696,40.4992707 41.3077501,39.9810044 40.5655046,39.4030153 C39.9141089,38.9115745 39.2998674,38.3723536 38.7278232,37.7897797 C36.0498798,35.1358921 34.2216879,31.739892 33.4773049,28.0365581 C31.6938725,19.1004672 36.4482543,10.1444307 44.8308751,6.64934267 C53.2134958,3.15425461 62.8875748,6.09442294 67.9327921,13.6705304 C72.9780093,21.2466379 71.9879352,31.3467314 65.5684729,37.7897797 L65.5789739,37.7792357 Z" id="Shape"></path>
                <path d="M65.5789739,37.7792357 L64.9909159,38.348613 C64.4973672,38.802006 63.9408122,39.2343109 63.4577645,39.6244398 L63.4577645,17.2816543 L58.8688115,17.2816543 L58.8688115,42.1760934 C57.3907728,42.7245488 55.8483529,43.0789502 54.2798585,43.2304958 L54.2798585,24.1879896 L49.6909055,24.1879896 L49.6909055,43.2304958 C48.1321065,43.0349051 46.6064039,42.630641 45.1544576,42.0284771 L45.1544576,30.3351552 L40.5235005,30.3351552 L40.5235005,39.3924713 C39.8721047,38.9010305 39.2578633,38.3618096 38.6858191,37.7792357 C36.0078756,35.1253481 34.1796837,31.729348 33.4353007,28.0260141 C31.6518683,19.0899232 36.4062502,10.1338867 44.7888709,6.63879865 C53.1714917,3.14371059 62.8455707,6.08387892 67.8907879,13.6599864 C72.9360052,21.2360939 71.945931,31.3361874 65.5264688,37.7792357 L65.5789739,37.7792357 Z" id="Shape"></path>
                <path d="M45.1544576,30.3351552 L45.1544576,42.0284771 C44.6714099,41.8492287 44.2198654,41.6278042 43.7788218,41.4169238 C43.4830712,41.2791858 43.1955566,41.1242781 42.9177368,40.9529867 C42.0942696,40.4992707 41.3077501,39.9810044 40.5655046,39.4030153 L40.5655046,30.3351552 L45.1544576,30.3351552 Z" id="Shape"></path>
                <path d="M93.1651972,64.1287501 L92.9341744,64.3396305 C92.0763435,65.2089164 90.9081169,65.6979494 89.6893541,65.6979494 C88.4705913,65.6979494 87.3023647,65.2089164 86.4445338,64.3396305 L72.2786353,50.126287 C71.6820014,49.5220738 71.6820014,48.5478875 72.2786353,47.9436742 L72.3521426,47.8804101 L76.8360852,43.3675681 C77.4378352,42.7684918 78.4080499,42.7684918 79.0097998,43.3675681 L93.1651972,57.5809116 C94.9608366,59.3911756 94.9608366,62.318486 93.1651972,64.1287501 Z" id="Shape"></path>
                <path d="M63.4577645,17.2816543 L63.4577645,39.6244398 C62.7383468,40.1585396 61.9801581,40.6378719 61.1895406,41.058427 C60.9548991,41.2009653 60.7130502,41.3311833 60.4649691,41.4485558 L59.86641,41.7227004 C59.5423116,41.8795577 59.2091878,42.0168736 58.8688115,42.1339173 L58.8688115,17.2816543 L63.4577645,17.2816543 Z" id="Shape"></path>
                <path d="M54.2798585,24.1879896 L54.2798585,43.2304958 C54.2345479,43.2364609 54.1886556,43.2364609 54.143345,43.2304958 L54.0068315,43.2304958 L53.2087528,43.2304958 C52.8622185,43.2304958 52.4946823,43.2304958 52.1586491,43.2304958 C51.8226159,43.2304958 51.3290672,43.2304958 50.9300278,43.2304958 C50.5309884,43.2304958 50.0899449,43.2304958 49.6909055,43.2304958 L49.6909055,24.2512537 L54.2798585,24.1879896 Z" id="Shape"></path>
                <path d="M54.2798585,43.2304958 L54.143345,43.2304958 C54.1886556,43.2364609 54.2345479,43.2364609 54.2798585,43.2304958 Z" id="Shape"></path>
                <path d="M45.1544576,30.3351552 L45.1544576,42.0284771 C44.6714099,41.8492287 44.2198654,41.6278042 43.7788218,41.4169238 C43.4830712,41.2791858 43.1955566,41.1242781 42.9177368,40.9529867 C42.0942696,40.4992707 41.3077501,39.9810044 40.5655046,39.4030153 L40.5655046,30.3351552 L45.1544576,30.3351552 Z" id="Shape"></path>
            </g>
        </g>
    </g>
</svg>