<?xml version="1.0" encoding="UTF-8"?>
<svg width="109px" height="87px" viewBox="0 0 109 87" version="1.1" xmlns="http://www.w3.org/2000/svg" xmlns:xlink="http://www.w3.org/1999/xlink">
    <!-- Generator: Sketch 52.5 (67469) - http://www.bohemiancoding.com/sketch -->
    <title>target</title>
    <desc>Created with Sketch.</desc>
    <g id="deck" stroke="none" stroke-width="1" fill="none" fill-rule="evenodd" stroke-linecap="round" stroke-linejoin="round">
        <g id="it-daddy-04" transform="translate(-1003.000000, -672.000000)" stroke="#00E676" stroke-width="2">
            <g id="target" transform="translate(1004.000000, 673.000000)">
                <path d="M55.5872527,29.1481319 C53.3096439,29.5683052 51.0930918,30.2699476 48.9885714,31.2369231 C46.9369146,32.1579697 45.007453,33.329998 43.2443956,34.7261538 C41.3484498,36.2529278 39.6430161,38.0021928 38.1648352,39.9362637 C35.8509255,43.065848 34.2029553,46.6364503 33.3226374,50.4276923 C32.9890689,51.9119046 32.7708352,53.4197009 32.6698901,54.9375824 C32.6698901,55.5191209 32.6698901,56.1243956 32.6698901,56.7059341 C32.6187065,59.0702049 32.8699738,61.4313201 33.4175824,63.7318681 C33.9917302,65.9925196 34.8532545,68.1702615 35.9810989,70.2118681" id="Shape"></path>
                <path d="M31.4830769,70.9120879 L13.2417582,73.7367033 C11.3396588,73.9941967 9.57581888,72.6975644 9.25406593,70.8052747 L0.186813187,12.6989011 C-0.0771108846,10.7886275 1.22777623,9.01545427 3.13010989,8.69934066 L19.9591209,6.11208791 C19.9240877,6.48313094 19.9240877,6.85664928 19.9591209,7.22769231 L20.1371429,8.41450549 L13.4197802,9.44703297 L14.0962637,13.9450549 L14.4285714,16.1762637 L39.0905495,12.3784615 L38.7463736,10.1353846 L38.1648352,5.58989011 L31.4474725,6.63428571 L31.2694505,5.51868132 C31.2191814,5.14066431 31.1235471,4.77008138 30.9846154,4.41494505 L47.8136264,1.80395604 C49.7239,1.54003197 51.4970732,2.84491909 51.8131868,4.74725275 L54.9226374,24.8518681" id="Shape"></path>
                <path d="M33.4175824,63.7318681 C32.8280076,61.4446941 32.532874,59.0916021 32.5393407,56.7296703 C32.5393407,56.1362637 32.5393407,55.5428571 32.5393407,54.9613187 C32.6402858,53.4434372 32.8585194,51.9356409 33.1920879,50.4514286 C34.1117899,46.6499661 35.8045321,43.0786437 38.1648352,39.96 C39.6540787,38.0238381 41.3715516,36.2744864 43.28,34.7498901 C45.0430574,33.3537343 46.972519,32.1817059 49.0241758,31.2606593" id="Shape"></path>
                <polyline id="Shape" points="29.1213187 64.3964835 15.4017582 66.5208791 7.43824176 14.9538462 14.1793407 13.8975824 14.2030769 13.8975824 14.5353846 16.1287912 39.2092308 12.330989 38.8531868 10.0879121 45.5586813 9.05538462 48.3120879 26.7745055 48.3120879 26.7863736"></polyline>
                <polyline id="Shape" points="22.3327473 26.4421978 22.8668132 29.9076923 15.0813187 31.1063736 13.8826374 23.3208791 18.2026374 22.6443956"></polyline>
                <path d="M26.1186813,22.3120879 L41.7015385,19.9028571" id="Shape"></path>
                <path d="M26.7951648,26.643956 L37.1797802,25.0298901" id="Shape"></path>
                <path d="M35.8268132,35.8773626 L28.3973626,37.0167033" id="Shape"></path>
                <path d="M32.3731868,40.8382418 L29.061978,41.3367033" id="Shape"></path>
                <polyline id="Shape" points="16.8734066 25.5164835 18.8672527 26.9762637 22.3920879 21.1134066"></polyline>
                <polyline id="Shape" points="24.469011 40.2804396 25.0030769 43.7459341 17.2175824 44.9446154 16.0189011 37.1591209 20.3389011 36.4945055"></polyline>
                <polyline id="Shape" points="19.0096703 39.3547253 21.0153846 40.8145055 24.5402198 34.9635165"></polyline>
                <polyline id="Shape" points="26.6052747 54.1305495 27.1393407 57.596044 19.3538462 58.7947253 18.1551648 51.0092308 22.4751648 50.3327473"></polyline>
                <polyline id="Shape" points="21.1459341 53.2048352 23.1516484 54.6646154 26.6764835 48.8017582"></polyline>
                <path d="M39.1973626,12.330989 L14.5353846,16.1287912 L14.2030769,13.8975824 L13.5265934,9.39956044 L20.243956,8.36703297 L20.0659341,7.18021978 C20.0309009,6.80917675 20.0309009,6.43565841 20.0659341,6.06461538 C20.2237573,3.38775732 22.2343195,1.18700055 24.8860535,0.788523757 C27.5377876,0.390046964 30.1063642,1.9026953 31.043956,4.41494505 C31.1828878,4.77008138 31.2785221,5.14066431 31.3287912,5.51868132 L31.5068132,6.63428571 L38.1648352,5.58989011 L38.8531868,10.0879121 L39.1973626,12.330989 Z" id="Shape"></path>
                <path d="M61.4382418,46.5942857 C61.1652747,46.5942857 60.8804396,46.5942857 60.5956044,46.5942857 C59.8322826,46.5904495 59.0712518,46.6781075 58.3287912,46.8553846 C55.7512307,47.4405162 53.5057602,49.0127717 52.0742857,51.2347253 C50.9911314,52.8752675 50.417186,54.7994296 50.4246154,56.7652747 C50.420417,58.2307975 50.7448578,59.6786148 51.3740659,61.0021978 C52.6973143,63.9350125 55.3445141,66.0571843 58.4949451,66.7107692 C59.1837297,66.8690628 59.8889156,66.9447607 60.5956044,66.9362637 C63.2951741,66.9394138 65.885255,65.8692213 67.795253,63.9614493 C69.7052511,62.0536773 70.7784634,59.4648463 70.7784615,56.7652747 C70.7784615,56.4923077 70.7784615,56.2074725 70.7784615,55.9226374" id="Shape"></path>
                <path d="M66.0786813,48.149011 L62.4232967,51.8162637 C61.839527,51.5946102 61.2200349,51.4819752 60.5956044,51.483956 C60.0810115,51.4855415 59.569349,51.5614914 59.0764835,51.7094505 C56.6026152,52.4788356 55.0579599,54.935686 55.4367726,57.4985904 C55.8155852,60.0614947 58.0049395,61.9664361 60.5956044,61.9872527 L60.7142857,61.9872527 C63.59749,61.961167 65.9191688,59.612985 65.9125275,56.7296703 C65.9133263,56.1092036 65.8007064,55.4938162 65.5802198,54.9138462 L69.2356044,51.2465934" id="Shape"></path>
                <path d="M78.7894505,35.4382418 L74.4457143,39.781978" id="Shape"></path>
                <path d="M75.2052747,32.8272527 C70.8088068,30.1338084 65.7515233,28.7123461 60.5956044,28.7208791 C58.9172113,28.7245527 57.2420157,28.8674604 55.5872527,29.1481319 C53.3096439,29.5683052 51.0930918,30.2699476 48.9885714,31.2369231 C46.9369146,32.1579697 45.007453,33.329998 43.2443956,34.7261538 C41.3484498,36.2529278 39.6430161,38.0021928 38.1648352,39.9362637 C35.8509255,43.065848 34.2029553,46.6364503 33.3226374,50.4276923 C32.9890689,51.9119046 32.7708352,53.4197009 32.6698901,54.9375824 C32.6698901,55.5191209 32.6698901,56.1243956 32.6698901,56.7059341 C32.6187065,59.0702049 32.8699738,61.4313201 33.4175824,63.7318681 C33.9917302,65.9925196 34.8532545,68.1702615 35.9810989,70.2118681 C40.8316461,79.1987686 50.1873598,84.8350916 60.3993398,84.9225678 C70.6113198,85.0100439 80.0622153,79.5348189 85.0660036,70.6323311 C90.0697919,61.7298432 89.8339841,50.8100488 84.4505495,42.1318681" id="Shape"></path>
                <path d="M80,46.6298901 C81.6398068,49.743685 82.4953035,53.2104835 82.4923077,56.7296703 C82.4894259,66.3030189 76.2677766,74.764633 67.1307389,77.6218263 C57.9937012,80.4790196 48.0598345,77.0693089 42.6035165,69.2030769 C41.259046,67.2404551 40.2336176,65.0774421 39.5652747,62.7942857 C38.9968104,60.8229582 38.7091437,58.7813236 38.7107692,56.7296703 C38.7097838,55.8168479 38.7692546,54.9049623 38.8887912,54 C39.0756465,52.4372607 39.4379302,50.9005406 39.9687912,49.4189011 C41.7445173,44.3749669 45.3027295,40.1540746 49.9736264,37.5507692 C52.0131871,36.4073291 54.2261921,35.6055157 56.5248352,35.1771429 C57.8659765,34.9170531 59.2294967,34.7898442 60.5956044,34.7973626 C64.1174671,34.7916402 67.5878341,35.6429391 70.7072527,37.2778022" id="Shape"></path>
                <path d="M81.887033,38.5358242 L77.5551648,42.8795604" id="Shape"></path>
                <path d="M73.8167033,46.6061538 L69.1762637,51.2465934" id="Shape"></path>
                <path d="M61.4382418,46.5942857 C61.1652747,46.5942857 60.8804396,46.5942857 60.5956044,46.5942857 C59.8322826,46.5904495 59.0712518,46.6781075 58.3287912,46.8553846 C55.7512307,47.4405162 53.5057602,49.0127717 52.0742857,51.2347253 C50.9911314,52.8752675 50.417186,54.7994296 50.4246154,56.7652747 C50.420417,58.2307975 50.7448578,59.6786148 51.3740659,61.0021978 C52.6973143,63.9350125 55.3445141,66.0571843 58.4949451,66.7107692 C59.1837297,66.8690628 59.8889156,66.9447607 60.5956044,66.9362637 C63.2951741,66.9394138 65.885255,65.8692213 67.795253,63.9614493 C69.7052511,62.0536773 70.7784634,59.4648463 70.7784615,56.7652747 C70.7784615,56.4923077 70.7784615,56.2074725 70.7784615,55.9226374" id="Shape"></path>
                <path d="M70.7191209,43.5085714 L66.0786813,48.149011" id="Shape"></path>
                <path d="M76.0479121,50.581978 C76.8360446,52.5355645 77.2390439,54.623101 77.2347253,56.7296703 C77.2873336,64.9194313 71.3643796,71.9260475 63.2801181,73.2374089 C55.1958566,74.5487702 47.3617766,69.7737051 44.8228571,61.9872527 C44.2530366,60.2930949 43.9643848,58.5170848 43.9683516,56.7296703 C43.9634896,51.390682 46.5245208,46.3745933 50.8518681,43.2474725 C52.7828265,41.854793 54.987483,40.8879804 57.32,40.410989 C58.3989704,40.2000155 59.4962165,40.0966517 60.5956044,40.1024176 C62.7021737,40.0980989 64.7897102,40.5010983 66.7432967,41.2892308" id="Shape"></path>
                <path d="M65.8531868,56.7296703 C65.8602515,59.5902068 63.574238,61.9290151 60.7142857,61.9872527 L60.5956044,61.9872527 C58.0049395,61.9664361 55.8155852,60.0614947 55.4367726,57.4985904 C55.0579599,54.935686 56.6026152,52.4788356 59.0764835,51.7094505 C59.569349,51.5614914 60.0810115,51.4855415 60.5956044,51.483956 C61.2200349,51.4819752 61.839527,51.5946102 62.4232967,51.8162637 L59.7292308,54.5103297 C59.6558611,54.5797888 59.5883771,54.655212 59.5274725,54.7358242 C58.8538451,55.6049746 58.9407067,56.8414748 59.7292308,57.6079121 C59.8200538,57.7001567 59.9193972,57.7836052 60.0259341,57.8571429 C60.8959543,58.4661943 62.0780013,58.3610121 62.8268132,57.6079121 L65.5208791,54.9138462 C65.7413658,55.4938162 65.8539857,56.1092036 65.8531868,56.7296703 Z" id="Shape"></path>
                <path d="M102.49011,17.9446154 L101.303297,19.1314286 L91.3934066,29.0531868 L81.8989011,38.5476923 L77.567033,42.8914286 L73.7692308,46.6061538 L69.1287912,51.2465934 L62.7793407,57.6079121 C62.0305288,58.3610121 60.8484818,58.4661943 59.9784615,57.8571429 C59.8719247,57.7836052 59.7725813,57.7001567 59.6817582,57.6079121 C58.9077305,56.8289558 58.841348,55.5932184 59.5274725,54.7358242 C59.5883771,54.655212 59.6558611,54.5797888 59.7292308,54.5103297 L66.0786813,48.149011 L70.7191209,43.5085714 L74.4457143,39.781978 L78.7894505,35.4382418 L88.283956,25.9437363 L98.1938462,16.0338462 L99.3806593,14.847033 C100.079442,14.1733129 101.186052,14.1733129 101.884835,14.847033 L102.49011,15.4404396 C103.16383,16.1392223 103.16383,17.2458327 102.49011,17.9446154 Z" id="Shape"></path>
                <path d="M98.1582418,16.0694505 L88.2483516,25.9793407 L88.2483516,19.2738462 C88.263486,18.8258464 88.4504795,18.4008611 88.7705495,18.087033 L96.2118681,10.6457143 C96.4478376,10.3948562 96.8099844,10.3075851 97.1343204,10.4234194 C97.4586563,10.5392537 97.6835846,10.8361944 97.7072527,11.1797802 L98.1582418,16.0694505 Z" id="Shape"></path>
                <path d="M106.738901,21.1134066 L99.2975824,28.5547253 C98.9696484,28.8912365 98.5212705,29.0833985 98.0514286,29.0887912 L91.3459341,29.0887912 L101.255824,19.167033 L106.192967,19.6298901 C106.533362,19.6535237 106.828185,19.8747544 106.946026,20.1949745 C107.063867,20.5151946 106.982778,20.874761 106.738901,21.1134066 Z" id="Shape"></path>
            </g>
        </g>
    </g>
</svg>