<?xml version="1.0" encoding="UTF-8"?>
<svg width="101px" height="62px" viewBox="0 0 101 62" version="1.1" xmlns="http://www.w3.org/2000/svg" xmlns:xlink="http://www.w3.org/1999/xlink">
    <!-- Generator: Sketch 52.5 (67469) - http://www.bohemiancoding.com/sketch -->
    <title>wallet</title>
    <desc>Created with Sketch.</desc>
    <g id="deck" stroke="none" stroke-width="1" fill="none" fill-rule="evenodd" stroke-linecap="round" stroke-linejoin="round">
        <g id="it-daddy-04" transform="translate(-1006.000000, -363.000000)" stroke="#00E676" stroke-width="2">
            <g id="wallet" transform="translate(1007.000000, 364.000000)">
                <path d="M74.8351648,49.120029 C75.8396441,49.1226572 76.8039833,48.7614031 77.5152905,48.1159897 C78.2265977,47.4705763 78.6263779,46.59408 78.6263736,45.68 L78.6263736,31.22" id="Shape"></path>
                <path d="M78.6263736,21.58 L78.6263736,19.52 C78.6263736,17.6146176 76.9289916,16.07 74.8351648,16.07" id="Shape"></path>
                <path d="M25.6593407,16.07 C23.5698066,16.0755115 21.8791121,17.618516 21.8791209,19.52 L21.8791209,21.58" id="Shape"></path>
                <path d="M63.032967,8.21 C62.9348382,7.84980469 62.6814277,7.54075349 62.3299297,7.3525987 C61.9784318,7.16444391 61.5584722,7.11304406 61.1648352,7.21 L26.3736264,16.14 L26.8901099,16.27 L54.5054945,24.68" id="Shape"></path>
                <path d="M37.7472527,19.57 L66.6043956,12.19 C66.9980326,12.0930441 67.4179922,12.1444439 67.7694902,12.3325987 C68.1209881,12.5207535 68.3743987,12.8298047 68.4725275,13.19 L71.043956,21.51" id="Shape"></path>
                <path d="M44.7142857,21.58 L78.6263736,21.58" id="Shape"></path>
                <path d="M78.6263736,21.58 L78.6263736,31.22" id="Shape"></path>
                <path d="M21.8791209,33.25 L21.8791209,21.58" id="Shape"></path>
                <path d="M42.2637363,54.38 L58.4505495,59.31 C59.6184383,59.6688463 60.9049123,59.4918094 61.903979,58.8347594 C62.9030457,58.1777095 63.4914561,57.1217029 63.4835165,56 L63.4835165,29.84 C63.4855867,28.3895121 62.4675111,27.1005398 60.956044,26.64 L26.8901099,16.28 C26.4908969,16.1384785 26.0657871,16.0672167 25.6373626,16.07 C24.6328791,16.0699961 23.6696963,16.4337961 22.9604509,17.0810856 C22.2512054,17.7283752 21.8542228,18.6059239 21.8571429,19.52" id="Shape"></path>
                <path d="M25.6593407,22.91 L27.0879121,23.35" id="Shape"></path>
                <path d="M29.9230769,24.21 L56.8461538,32.42" id="Shape"></path>
                <path d="M58.2637363,32.85 L59.7032967,33.29" id="Shape"></path>
                <path d="M43.4945055,49.96 L44.9230769,50.4" id="Shape"></path>
                <path d="M47.5934066,51.22 L56.9340659,54.06" id="Shape"></path>
                <path d="M58.2637363,54.47 L59.7032967,54.9" id="Shape"></path>
                <path d="M12.0879121,57.39 C10.8958232,57.3144642 9.97119565,56.4124275 9.97119565,55.325 C9.97119565,54.2375725 10.8958232,53.3355358 12.0879121,53.26 L21.978022,53.26 C23.1701109,53.3355358 24.0947384,54.2375725 24.0947384,55.325 C24.0947384,56.4124275 23.1701109,57.3144642 21.978022,57.39 L12.0879121,57.39 Z" id="Shape"></path>
                <path d="M26.3736264,57.39 C25.1815375,57.3144642 24.2569099,56.4124275 24.2569099,55.325 C24.2569099,54.2375725 25.1815375,53.3355358 26.3736264,53.26 L36.2637363,53.26 C37.4558252,53.3355358 38.3804527,54.2375725 38.3804527,55.325 C38.3804527,56.4124275 37.4558252,57.3144642 36.2637363,57.39 L26.3736264,57.39 Z" id="Shape"></path>
                <path d="M10.5274725,53.26 C9.27117645,53.26 8.25274725,52.3332294 8.25274725,51.19 C8.25274725,50.0467706 9.27117645,49.12 10.5274725,49.12 L20.4175824,49.12 C21.6738785,49.12 22.6923077,50.0467706 22.6923077,51.19 C22.6923077,52.3332294 21.6738785,53.26 20.4175824,53.26 L10.5274725,53.26 Z" id="Shape"></path>
                <path d="M24.9010989,53.26 C23.6448028,53.26 22.6263736,52.3332294 22.6263736,51.19 C22.6263736,50.0467706 23.6448028,49.12 24.9010989,49.12 L34.7912088,49.12 C36.0475049,49.12 37.0659341,50.0467706 37.0659341,51.19 C37.0659341,52.3332294 36.0475049,53.26 34.7912088,53.26 L24.9010989,53.26 Z" id="Shape"></path>
                <path d="M12.7912088,49.12 C11.5991199,49.0444642 10.6744923,48.1424275 10.6744923,47.055 C10.6744923,45.9675725 11.5991199,45.0655358 12.7912088,44.99 L22.6813187,44.99 C23.5297289,44.9362411 24.3402309,45.3176496 24.7824148,45.9787401 C25.2245988,46.6398306 25.2245988,47.4701694 24.7824148,48.1312599 C24.3402309,48.7923504 23.5297289,49.1737589 22.6813187,49.12 L12.7912088,49.12 Z" id="Shape"></path>
                <path d="M27.1758242,49.12 C26.327414,49.1737589 25.516912,48.7923504 25.074728,48.1312599 C24.6325441,47.4701694 24.6325441,46.6398306 25.074728,45.9787401 C25.516912,45.3176496 26.327414,44.9362411 27.1758242,44.99 L37.0659341,44.99 C38.258023,45.0655358 39.1826505,45.9675725 39.1826505,47.055 C39.1826505,48.1424275 38.258023,49.0444642 37.0659341,49.12 L27.1758242,49.12 Z" id="Shape"></path>
                <path d="M14.2857143,45 C13.4373041,45.0537589 12.6268021,44.6723504 12.1846181,44.0112599 C11.7424342,43.3501694 11.7424342,42.5198306 12.1846181,41.8587401 C12.6268021,41.1976496 13.4373041,40.8162411 14.2857143,40.87 L24.1758242,40.87 C25.3679131,40.9455358 26.2925406,41.8475725 26.2925406,42.935 C26.2925406,44.0224275 25.3679131,44.9244642 24.1758242,45 L14.2857143,45 Z" id="Shape"></path>
                <path d="M12.0879121,40.86 C10.8958232,40.7844642 9.97119565,39.8824275 9.97119565,38.795 C9.97119565,37.7075725 10.8958232,36.8055358 12.0879121,36.73 L21.978022,36.73 C23.1701109,36.8055358 24.0947384,37.7075725 24.0947384,38.795 C24.0947384,39.8824275 23.1701109,40.7844642 21.978022,40.86 L12.0879121,40.86 Z" id="Shape"></path>
                <path d="M90.3626374,13.85 C90.674482,12.6187522 91.7336437,11.6588016 93.0879121,11.38 L98.5824176,10.23 C98.7880036,10.1879063 98.9340659,10.0217603 98.9340659,9.83 C98.9351215,9.63578409 98.7897071,9.46624007 98.5824176,9.42 L93.0879121,8.28 C91.7346284,7.99305967 90.6779564,7.03148817 90.3626374,5.8 L89.1098901,0.8 C89.0556499,0.613404203 88.8714249,0.482559539 88.6593407,0.48 C88.448615,0.48 88.2660371,0.612916768 88.2197802,0.8 L86.956044,5.8 C86.6454992,7.03389684 85.5866998,7.99740431 84.2307692,8.28 L78.7362637,9.42 C78.5289742,9.46624007 78.3835598,9.63578409 78.3846154,9.83 C78.3846154,10.0217603 78.5306778,10.1879063 78.7362637,10.23 L84.2307692,11.38 C85.5863717,11.6565923 86.6466217,12.6175293 86.956044,13.85 L88.2197802,18.85 C88.2703826,19.0331094 88.4518599,19.1610962 88.6593407,19.16 C88.8683341,19.1587088 89.0515698,19.0326337 89.1098901,18.85 L90.3626374,13.85 Z" id="Shape"></path>
                <path d="M8.16483516,20.89 L12.4395604,19.59 C12.6039015,19.5387256 12.7142857,19.3980961 12.7142857,19.24 C12.7110608,19.0828595 12.6018622,18.9437406 12.4395604,18.89 L8.93406593,17.83 C8.45210815,17.6885404 8.07273918,17.3470267 7.91208791,16.91 L6.74725275,13.71 C6.68819718,13.5623054 6.53531924,13.4629347 6.36263736,13.46 C6.18890539,13.46 6.03436748,13.5604496 5.97802198,13.71 L4.81318681,16.91 C4.64950852,17.3453054 4.27130783,17.6857673 3.79120879,17.83 L0.274725275,18.89 C0.112423481,18.9437406 0.00322495778,19.0828595 5.32907052e-15,19.24 C4.35305028e-15,19.3980961 0.110384222,19.5387256 0.274725275,19.59 L3.79120879,20.66 C4.27316657,20.8014596 4.65253554,21.1429733 4.81318681,21.58 L5.97802198,24.78 C6.03436748,24.9295504 6.18890539,25.03 6.36263736,25.03 C6.53531924,25.0270653 6.68819718,24.9276946 6.74725275,24.78 L8.16483516,20.89 Z" id="Shape"></path>
                <path d="M63.4945055,49.12 L74.8351648,49.12" id="Shape"></path>
                <path d="M78.6263736,31.22 L63.4945055,31.22" id="Shape"></path>
                <path d="M78.6263736,27.09 L62.3186813,27.09" id="Shape"></path>
                <path d="M74.8351648,16.07 L69.5164835,16.07" id="Shape"></path>
                <path d="M64.4395604,12.75 L63.032967,8.21" id="Shape"></path>
            </g>
        </g>
    </g>
</svg>