<svg width="240" height="143" xmlns="http://www.w3.org/2000/svg"><g fill="none" fill-rule="evenodd"><circle fill="#FFF" cx="228" cy="79" r="3"/><circle fill="#FFF" cx="228" cy="70" r="3"/><circle fill="#FFF" cx="237" cy="70" r="3"/><circle fill="#FFF" cx="219" cy="79" r="3"/><circle fill="#FFF" cx="13" cy="94" r="3"/><circle fill="#FFF" cx="13" cy="84" r="3"/><circle fill="#FFF" cx="3" cy="84" r="3"/><circle fill="#FFF" cx="13" cy="64" r="3"/><g fill="#12D4A0"><path d="M133.162 63.032h-24.514a2.096 2.096 0 0 1 0-4.193h24.514a2.097 2.097 0 0 1 0 4.193zM91.435 41.633a2.48 2.48 0 0 1 0-3.499 2.468 2.468 0 0 1 3.499.008l4.382 4.319c.004.005.012.008.013.012a4.352 4.352 0 0 0 3.094 1.302c2.402 0 4.36-1.947 4.362-4.346V11.69a2.476 2.476 0 0 1 2.47-2.473c1.36 0 2.468 1.11 2.468 2.473v20.864a1.43 1.43 0 0 0 1.427 1.432c.788 0 1.429-.641 1.429-1.432v-3.278c0-1.409 1.13-2.6 2.467-2.6 1.338 0 2.468 1.191 2.468 2.6v4.426c0 .791.642 1.433 1.429 1.433.79 0 1.43-.642 1.43-1.433v-2.77a2.473 2.473 0 0 1 2.469-2.475 2.472 2.472 0 0 1 2.466 2.475v4.427c0 .79.641 1.432 1.429 1.432.79 0 1.43-.642 1.43-1.432v-2.906a2.476 2.476 0 0 1 2.47-2.469 2.474 2.474 0 0 1 2.465 2.476v19.882a3.631 3.631 0 0 1-3.623 3.631h-22.831a4.9 4.9 0 0 0-2.324.586L91.435 41.633zm44.633 15.292a6.483 6.483 0 0 0 1.892-4.583V32.33c0-.043-.008-.085-.013-.128-.133-2.822-2.461-5.082-5.31-5.082-1.21 0-2.325.413-3.22 1.094a5.317 5.317 0 0 0-4.575-2.622 5.28 5.28 0 0 0-3.156 1.048c-.923-1.672-2.676-2.83-4.64-2.83-.883 0-1.722.237-2.467.648V11.69c0-2.942-2.389-5.338-5.324-5.338-2.938 0-5.327 2.396-5.327 5.338v27.733a1.498 1.498 0 0 1-2.576 1.029l-.015-.015a.056.056 0 0 1-.017-.02l-4.375-4.308a5.32 5.32 0 0 0-7.529 0 5.348 5.348 0 0 0 0 7.55l14.881 14.918c-.38.703-.6 1.505-.6 2.359 0 2.736 2.221 4.962 4.951 4.962h24.514a4.96 4.96 0 1 0 2.906-8.973z"/><path d="M135.102 32.46v19.882a3.631 3.631 0 0 1-3.623 3.631h-22.831a4.9 4.9 0 0 0-2.324.586L91.435 41.633a2.48 2.48 0 0 1 0-3.499 2.468 2.468 0 0 1 3.499.008l4.382 4.319c.004.005.012.008.013.012a4.352 4.352 0 0 0 3.094 1.302c2.402 0 4.36-1.947 4.362-4.346V11.69a2.476 2.476 0 0 1 2.47-2.473c1.36 0 2.468 1.11 2.468 2.473v20.864a1.43 1.43 0 0 0 1.427 1.432c.788 0 1.429-.641 1.429-1.432v-3.278c0-1.409 1.13-2.6 2.467-2.6 1.338 0 2.468 1.191 2.468 2.6v4.426c0 .791.642 1.433 1.429 1.433.79 0 1.43-.642 1.43-1.433v-2.77a2.473 2.473 0 0 1 2.469-2.475 2.472 2.472 0 0 1 2.466 2.475v4.427c0 .79.641 1.432 1.429 1.432.79 0 1.43-.642 1.43-1.432v-2.906a2.476 2.476 0 0 1 2.47-2.469 2.474 2.474 0 0 1 2.465 2.476" opacity=".403"/><path d="M105.31 4.107a1.429 1.429 0 0 0 1.83.856 1.434 1.434 0 0 0 .856-1.835l-.794-2.185a1.43 1.43 0 1 0-2.688.98l.795 2.184M99.94 7.049l2.009 1.164a1.423 1.423 0 0 0 1.951-.525 1.431 1.431 0 0 0-.522-1.956l-2.008-1.164a1.43 1.43 0 0 0-1.954.525 1.435 1.435 0 0 0 .524 1.956m-.466 6.896c.082 0 .166-.006.25-.022l2.285-.403a1.429 1.429 0 0 0 1.157-1.659 1.426 1.426 0 0 0-1.653-1.162l-2.285.404a1.432 1.432 0 0 0 .246 2.842m15.866-2.084a1.43 1.43 0 0 0 1.16 1.659l2.285.403a1.429 1.429 0 0 0 1.653-1.161 1.431 1.431 0 0 0-1.159-1.66l-2.285-.403a1.429 1.429 0 0 0-1.654 1.162m.505-3.456c.242 0 .488-.062.712-.192l2.009-1.163a1.435 1.435 0 0 0 .525-1.957 1.427 1.427 0 0 0-1.954-.525l-2.007 1.163a1.434 1.434 0 0 0 .715 2.674m-4.477-3.442a1.433 1.433 0 0 0 1.833-.855l.792-2.185a1.432 1.432 0 0 0-.855-1.836 1.427 1.427 0 0 0-1.83.856l-.793 2.185a1.43 1.43 0 0 0 .853 1.835M108.53 66.77c-.787 0-1.428.642-1.428 1.433v72.669a1.43 1.43 0 0 0 2.859 0V68.203c0-.79-.64-1.433-1.43-1.433m24.75 0a1.43 1.43 0 0 0-1.427 1.433v72.669a1.43 1.43 0 1 0 2.856 0V68.203a1.43 1.43 0 0 0-1.429-1.433M96.974 95.819h-22.65a1.83 1.83 0 0 1-1.826-1.833 1.83 1.83 0 0 1 1.825-1.83h22.651c1.006 0 1.827.823 1.827 1.83 0 1.01-.821 1.833-1.827 1.833zM58.49 76.074a2.187 2.187 0 0 1 0-3.08 2.176 2.176 0 0 1 3.08.008l4.05 3.99.02.019a4.126 4.126 0 0 0 2.927 1.227 4.14 4.14 0 0 0 4.14-4.129V48.477c0-1.201.976-2.178 2.173-2.178 1.199 0 2.172.977 2.172 2.178v19.28c0 .79.64 1.432 1.428 1.432.79 0 1.431-.642 1.431-1.432v-3.033c.001-1.24.996-2.29 2.171-2.29 1.177 0 2.17 1.052 2.17 2.295v4.093c0 .79.644 1.433 1.43 1.433a1.43 1.43 0 0 0 1.429-1.432v-2.57a2.18 2.18 0 0 1 2.173-2.171c1.196 0 2.172.977 2.172 2.177v4.09a1.428 1.428 0 1 0 2.857.001v-2.696a2.178 2.178 0 0 1 2.171-2.16 2.18 2.18 0 0 1 2.177 2.178v18.372a3.249 3.249 0 0 1-3.24 3.248H74.322c-.77 0-1.49.19-2.13.52L58.49 76.073zm41.327 14.192a6.102 6.102 0 0 0 1.703-4.222v-18.49c0-.04-.01-.08-.016-.12-.122-2.67-2.322-4.805-5.02-4.805a4.983 4.983 0 0 0-2.938.96 5.033 5.033 0 0 0-4.262-2.372 4.98 4.98 0 0 0-2.884.92c-.886-1.522-2.505-2.567-4.318-2.567a4.8 4.8 0 0 0-2.17.532V48.477c0-2.779-2.256-5.043-5.032-5.043-2.775 0-5.03 2.264-5.03 5.043V74.11a1.276 1.276 0 0 1-2.196.873c-.005-.007-.014-.012-.02-.017-.005-.007-.007-.013-.01-.014l-4.042-3.982a5.026 5.026 0 0 0-7.113 0 5.06 5.06 0 0 0 0 7.129L70.168 91.83a4.652 4.652 0 0 0-.53 2.157c0 2.59 2.102 4.697 4.685 4.697h22.651c2.583 0 4.685-2.107 4.685-4.697a4.68 4.68 0 0 0-1.842-3.72z"/><path d="M98.661 67.672v18.372a3.249 3.249 0 0 1-3.24 3.248H74.322c-.77 0-1.49.19-2.13.52L58.49 76.073a2.187 2.187 0 0 1 0-3.08 2.176 2.176 0 0 1 3.08.008l4.05 3.99.02.019a4.126 4.126 0 0 0 2.927 1.227 4.14 4.14 0 0 0 4.14-4.129V48.477c0-1.2.976-2.177 2.173-2.177 1.199 0 2.172.977 2.172 2.177v19.28c0 .79.64 1.432 1.428 1.432.79 0 1.431-.642 1.431-1.432v-3.033c.001-1.24.996-2.29 2.171-2.29 1.177 0 2.17 1.052 2.17 2.295v4.093c0 .79.644 1.433 1.43 1.433a1.43 1.43 0 0 0 1.429-1.432v-2.57a2.178 2.178 0 0 1 2.173-2.17c1.196 0 2.172.976 2.172 2.176v4.092a1.428 1.428 0 1 0 2.857 0v-2.697a2.178 2.178 0 0 1 2.171-2.16 2.18 2.18 0 0 1 2.177 2.178" opacity=".403"/><path d="M74.213 99.271c-.79 0-1.43.641-1.43 1.434v40.167c0 .79.64 1.432 1.43 1.432.788 0 1.429-.641 1.429-1.432v-40.167a1.43 1.43 0 0 0-1.429-1.434m22.871 0c-.787 0-1.43.641-1.43 1.434v40.167a1.43 1.43 0 0 0 2.858 0v-40.167a1.43 1.43 0 0 0-1.428-1.434m82.161-3.452h-22.651a1.833 1.833 0 0 1-1.827-1.833c0-1.007.821-1.83 1.827-1.83h22.653a1.832 1.832 0 0 1-.002 3.663zM140.76 76.074a2.187 2.187 0 0 1 0-3.08 2.168 2.168 0 0 1 3.08.008l4.05 3.99c.007.007.015.01.02.019a4.131 4.131 0 0 0 2.926 1.227c2.285 0 4.143-1.853 4.143-4.129V48.477c0-1.201.974-2.178 2.172-2.178 1.196 0 2.172.977 2.172 2.178v19.28a1.43 1.43 0 0 0 2.859 0V64.73c0-1.243.994-2.295 2.17-2.295 1.18 0 2.175 1.052 2.175 2.295v4.094c0 .79.64 1.432 1.43 1.432a1.43 1.43 0 0 0 1.427-1.432v-2.577a2.178 2.178 0 0 1 2.174-2.164c1.197 0 2.173.977 2.173 2.177v4.09a1.428 1.428 0 1 0 2.857 0v-2.7a2.176 2.176 0 0 1 2.173-2.155c1.197 0 2.17.976 2.17 2.178v18.372a3.248 3.248 0 0 1-3.24 3.248h-21.096c-.767 0-1.489.19-2.13.52l-13.705-13.74zm41.332 14.192a6.108 6.108 0 0 0 1.697-4.222v-18.49c0-.04-.009-.08-.011-.12-.127-2.67-2.328-4.805-5.017-4.805a4.986 4.986 0 0 0-2.943.96 5.03 5.03 0 0 0-4.261-2.372 4.97 4.97 0 0 0-2.886.92c-.887-1.522-2.507-2.567-4.319-2.567-.772 0-1.508.198-2.17.532V48.477c0-2.779-2.259-5.043-5.032-5.043s-5.03 2.264-5.03 5.043V74.11c0 .348-.144.663-.374.893-.235.23-.555.37-.91.37-.35 0-.67-.139-.91-.39-.007-.007-.016-.012-.02-.017-.003-.007-.007-.013-.012-.014l-4.04-3.982a4.987 4.987 0 0 0-3.556-1.479 5.004 5.004 0 0 0-3.559 1.479 5.056 5.056 0 0 0 0 7.129l13.7 13.731a4.68 4.68 0 0 0-.529 2.157c0 2.59 2.1 4.697 4.684 4.697h22.65c2.584 0 4.686-2.107 4.688-4.697a4.691 4.691 0 0 0-1.84-3.72z"/><path d="M180.93 67.672v18.372a3.247 3.247 0 0 1-3.238 3.248h-21.098a4.64 4.64 0 0 0-2.13.52L140.76 76.073a2.187 2.187 0 0 1 0-3.08 2.168 2.168 0 0 1 3.08.008l4.05 3.99c.007.007.015.01.02.02a4.135 4.135 0 0 0 2.926 1.226c2.285 0 4.143-1.853 4.143-4.129V48.477c0-1.201.974-2.178 2.172-2.178 1.196 0 2.172.977 2.172 2.178v19.28a1.43 1.43 0 0 0 2.859 0V64.73c0-1.243.994-2.295 2.17-2.295 1.18 0 2.175 1.052 2.175 2.295v4.094c0 .79.64 1.432 1.43 1.432a1.43 1.43 0 0 0 1.427-1.432v-2.577a2.178 2.178 0 0 1 2.174-2.164c1.197 0 2.173.977 2.173 2.177v4.09a1.428 1.428 0 1 0 2.857 0v-2.7a2.176 2.176 0 0 1 2.173-2.155c1.197 0 2.168.976 2.168 2.178" opacity=".403"/><path d="M156.483 99.271a1.43 1.43 0 0 0-1.428 1.434v40.167a1.429 1.429 0 0 0 2.857 0v-40.167a1.43 1.43 0 0 0-1.429-1.434m22.874 0a1.43 1.43 0 0 0-1.43 1.434v40.167a1.429 1.429 0 1 0 2.857 0v-40.167c0-.793-.637-1.434-1.427-1.434"/><path opacity=".403" d="M75.642 140.767h3.669v-40.062h-3.67zm82.269.053h4.277v-40.065h-4.277zm-47.951-.053h4.645V68.055h-4.644z"/></g></g></svg>