<svg width="498" height="94" xmlns="http://www.w3.org/2000/svg"><g fill="none" fill-rule="evenodd"><path d="M14.56 28.996h14.498V0H.062v14.498H14.56zM72.551 0v28.996H87.05V14.498h14.498V0H87.049zm0 72.49H14.56v14.497h86.987V72.49H87.049zM.062 57.992H14.56V72.49H.062z" fill="#00E676" fill-rule="nonzero"/><path d="M244.234 36.94h7.12v-7.12h21.359V15.581h14.239v56.957h-35.598v-7.12h-7.12V36.94zm28.479 21.359v-14.24h-14.24V58.3h14.24zm76.671-21.359h7.12v-7.12h21.359V15.581h14.239v56.957h-35.598v-7.12h-7.12V36.94zm28.479 21.359v-14.24h-14.24V58.3h14.24zM401.96 36.94h7.119v-7.12h21.359V15.581h14.239v56.957h-35.598v-7.12h-7.12V36.94zm28.478 21.359v-14.24h-14.24V58.3h14.24zM339.453 29.82v42.718h-35.597v-7.12h-7.12V36.94h7.12v-7.12h35.597zM310.975 58.3h14.239V44.06h-14.24V58.3zm171.964-28.48h14.24v56.957h-7.12v7.12H461.58v-14.24h21.359v-7.12h-21.358v-7.119h-7.12V29.82h14.24V58.3h14.239V29.82z" fill="#868282" fill-rule="nonzero"/><path d="M159.384 22.7v-7.119h14.239v7.12h-14.24zm0 7.12h14.239v42.718h-14.24V29.82zm52.32 0v14.24h-7.12v28.478h-14.239V44.06h-7.12V29.82h7.12V15.581h14.239v14.24z" fill="#414141" fill-rule="nonzero"/><path fill="#979797" d="M218.476 58.664h14.02v14.02h-14.02z"/></g></svg>