<svg xmlns="http://www.w3.org/2000/svg" height="335" width="789"><path d="M92.842 329.11c-1.397-1.099-3.804-4.811-5.349-8.25-7.931-17.652-19.048-38.186-25.028-46.232-3.67-4.938-7.765-11.363-9.1-14.277-5.949-12.995-6.786-37.07-1.792-51.54 3.363-9.743 3.322-12.454-.211-13.804-1.513-.578-4.325-.796-6.25-.485-10.57 1.707-12.141 1.77-14.975.596-1.655-.685-3.901-2.69-4.992-4.457-1.092-1.765-3.137-3.735-4.544-4.377-2.42-1.102-2.523-1.455-1.878-6.421.729-5.61 2.68-8.84 7.36-12.177 4.7-3.355 12.068-12.234 13.1-15.791.525-1.808.635-5.313.245-7.788s-.637-4.95-.548-5.5-1.284-1.675-3.053-2.5c-2.243-1.046-5.636-5.035-11.216-13.187-4.4-6.427-9.013-12.757-10.25-14.064-2.982-3.15-2.865-5.556.308-6.352 1.882-.473 4.985.547 11.75 3.862 9.878 4.842 24.465 10.302 25.297 9.47 1.375-1.375-4.077-9.678-8.639-13.157-7.587-5.774-13.63-13.034-15.47-18.577-.907-2.727-2.037-5.199-2.514-5.493-.476-.295-1.183-2.655-1.572-5.246-.388-2.59-1.368-6.292-2.176-8.226-1.748-4.18-2.114-14.542-.76-21.517.938-4.837.987-4.654 1.498 5.598.579 11.585 2.078 15.525 4.63 12.163 1.576-2.078 1.756-1.329.483 2.018-.801 2.108-.3 2.998 4.015 7.12 8.546 8.165 13.54 8.946 15.797 2.473 1.94-5.565 1.237-12.297-2.512-24.04-4.137-12.962-5.385-26.428-3.543-38.24 1.79-11.487 2.826-9.55 2.74 5.128-.063 10.904.3 14.87 1.74 19.001 1.813 5.197 6.823 10.726 9.056 9.993.618-.203 3.472-7.032 6.342-15.176 2.87-8.144 5.52-15.084 5.888-15.422.624-.571.437 1.89-1.244 16.385-.35 3.026-.238 5.473.25 5.44.488-.033 2.913-2.468 5.388-5.412 2.475-2.945 4.645-5.21 4.822-5.035.509.503-4.67 8.442-9.788 15.007-5.4 6.927-6.547 9.562-8.046 18.5-.6 3.575-2.188 10.596-3.53 15.602-2.1 7.832-2.32 10.069-1.571 16.025.478 3.807 2.161 10.025 3.74 13.816 2.357 5.655 3.412 7.07 5.873 7.874 1.65.54 4.073 1.813 5.385 2.831 3.054 2.37 5.271 2.336 9.34-.146 1.801-1.098 3.95-2.004 4.775-2.015 4.122-.052 4.263-1.26 1.56-13.314-2.794-12.438-4.594-33.658-2.857-33.658.555 0 1.305 3.554 1.668 7.899.809 9.702 4.038 22.774 6.422 26.002.976 1.32 2.715 3.025 3.866 3.79 1.867 1.239 2.404 1.127 4.971-1.033 4.301-3.62 11.54-18.377 12.155-24.782.408-4.242.676-4.86 1.334-3.08 1.033 2.792-.252 9.723-3.423 18.46-1.658 4.567-2.06 6.744-1.245 6.744 3.343 0 25.77-10.507 31.308-14.667 6.507-4.89 9.692-15.816 9.095-31.203-.332-8.564.466-11.957 1.619-6.88 2.073 9.13 2.48 11.981 2.502 17.5.014 3.437.4 6.25.857 6.25 1.223 0 6.75-7.138 9.268-11.968 1.808-3.468 2.41-7.315 3.508-22.36.728-9.995 1.452-20.872 1.608-24.172.248-5.242.436-5.735 1.487-3.902 1.907 3.321 3.281 13.99 3.29 25.527.012 17.474 1.181 19.505 8.62 14.969 5.312-3.24 7.27-8.958 8.448-24.68 1.595-21.282 1.898-23.228 3.248-20.874.666 1.16 1.288 9.084 1.525 19.423l.402 17.463 2.382-2.77c1.323-1.538 2.382-4.056 2.382-5.664 0-1.592.51-5.279 1.136-8.192 1.046-4.88 1.211-5.1 2.095-2.8 1.175 3.063.386 16.978-1.123 19.798-.605 1.129-5.939 6.218-11.853 11.31-5.915 5.091-14.355 12.698-18.755 16.903-14.3 13.665-32.348 26.556-44 31.423l-3.444 1.439 2.207 4.813c3.275 7.144 3.181 19.58-.185 24.493-1.332 1.943-3.723 4.385-5.314 5.426s-4.255 3.89-5.92 6.33c-2.786 4.081-2.974 4.881-2.34 10 1.117 9.02 6.193 27.82 9.296 34.432 1.583 3.372 5.092 9.056 7.798 12.63 12.104 15.99 16.274 36.329 11.4 55.59-2.851 11.263-7.06 18.912-15.402 27.992-8.34 9.079-9.096 10.302-10.097 16.334-1.983 11.963-8.67 25.998-13.91 29.193-3.818 2.328-3.763 2.329-6.86-.107zM107.93 113.1c3.474-3.845 5.95-6.981 5.5-6.97-.45.011-4.417 2.208-8.817 4.883-5.362 3.26-8.105 5.56-8.32 6.98-.26 1.733.193 2.115 2.5 2.107 2.217-.008 4.173-1.507 9.137-7zM43.546 89.968c-2.16-4.791-13.435-14.294-13.435-11.324 0 1.735 5.257 10.375 7.657 12.583 6.55 6.027 8.84 5.528 5.778-1.26zm510.06 137.75c-13.807-2.667-22.56-9.257-25.982-19.56-2.377-7.156-1.748-19.841 1.275-25.697 4.464-8.648 14.12-14.233 28.48-16.474 6.804-1.062 21.602-.636 25.144.723 1.276.49 1.583-.143 1.583-3.265 0-5.711-2.92-10.468-8.036-13.091-5.411-2.775-16.572-3.041-28.96-.691-4.52.857-8.324 1.42-8.454 1.25-.796-1.047-3.348-20.406-2.764-20.97 1.163-1.125 16.264-3.696 25.834-4.4 18.078-1.327 33.41 3.105 40.863 11.812 2.063 2.41 4.46 6.923 5.689 10.708 1.952 6.015 2.16 9.333 2.588 41.198l.465 34.656-5.362 1.055c-13.564 2.669-18.277 3.216-31.362 3.643-9.432.307-16.284.015-21-.896zm30.283-31.739c.275-10.328.219-10.642-2-11.236-3.566-.955-15.93-.744-19.699.337-7.078 2.03-10.285 7.853-8.052 14.62 1.85 5.606 6.897 7.46 19.469 7.15l10-.245.283-10.625zm-303.78-33.875v-65h29v24c0 13.2.175 24 .388 24 .685 0 14.898-15.021 30.043-31.75l14.711-16.25h17.051c16.087 0 16.975.099 15.701 1.75-5.093 6.6-23.914 27.282-37.317 41.006l-15.923 16.304 11.305 11.209c6.218 6.165 15.103 15.939 19.745 21.72 7.655 9.533 26.296 36.079 26.296 37.448 0 .31-7.636.563-16.97.563h-16.97l-5.003-7.414c-8.368-12.401-20.92-27.563-31.325-37.836-5.43-5.363-10.293-9.75-10.804-9.75-.55 0-.93 11.222-.93 27.5v27.5h-29v-65zm134.24-5.69l.257-70.688 11-1.746c6.05-.96 12.238-1.988 13.75-2.286l2.75-.54v47.61l6.75-1.42c4.467-.941 9.382-1.213 14.532-.804 14.133 1.12 24.409 6.593 29.665 15.797 5.396 9.448 6.052 15.058 6.052 51.716v33.053h-26.83l-.427-31.75c-.27-20.046-.851-33.061-1.578-35.307-.633-1.957-2.512-4.86-4.175-6.454-2.533-2.426-4.039-2.961-9.272-3.295-3.437-.218-8.154.116-10.483.743l-4.234 1.14v74.922h-28.014l.256-70.69zm229 0l.257-70.688 11-1.746c6.05-.96 12.238-1.988 13.75-2.286l2.75-.54v82.356l4.059-3.953c2.233-2.174 9.32-10.135 15.75-17.69l11.691-13.737 16.405-.013c15.513-.012 16.326.083 14.948 1.738-5.601 6.728-25.86 28.897-31.273 34.22-3.619 3.56-6.58 6.954-6.58 7.542 0 .59 2.063 3.077 4.584 5.53 9.127 8.875 22.721 26.822 31.214 41.207l5.166 8.75h-31.848l-7.564-11.455c-8.292-12.558-20.307-27.5-24.122-30l-2.43-1.592v43.046h-28.012l.256-70.689zm115.76 21.19v-49.5h28v99h-28v-49.5zm8.819-62.481c-7.235-2.183-10.803-7.266-10.812-15.401-.011-9.716 4.903-15.138 14.723-16.246 9.734-1.098 17.699 6.16 17.699 16.128 0 6.608-2.697 11.188-8.349 14.176-4.49 2.374-8.497 2.78-13.261 1.343z"/><path d="M91.839 328.36c-.87-.963-4.767-8.725-8.659-17.25-7.609-16.665-14.328-28.369-22.678-39.5-9.156-12.205-11.817-21.223-11.802-40 .01-12.363 1.246-19.611 4.666-27.342 3.657-8.267-.494-11.471-11.92-9.2-8.146 1.619-10.908.881-15.958-4.26-2.268-2.31-4.804-4.73-5.635-5.38-1.116-.873-1.374-2.396-.987-5.828.48-4.268 1.305-5.443 10.135-14.446 10.162-10.36 12.8-15.1 11.018-19.789-.5-1.312-.907-3.706-.907-5.32 0-1.872-.516-2.935-1.424-2.935-2.27 0-6.773-5.105-13.822-15.672-3.605-5.406-7.725-10.92-9.155-12.253-7.084-6.607.483-8.266 11.901-2.61 8.314 4.12 24.762 10.606 25.364 10.003.234-.234-.348-2.447-1.291-4.918-1.276-3.339-3.355-5.797-8.095-9.569-3.508-2.791-7.585-6.51-9.06-8.262-2.706-3.215-9.418-16.91-9.418-19.215 0-.684-.9-4.062-2-7.505-2.063-6.457-2.616-19.85-1.032-25 .494-1.607.784.654.813 6.333.041 8.085 1.45 14.667 3.14 14.667.373 0 1.274-.563 2.001-1.25 1.095-1.035 1.106-.831.067 1.183-1.1 2.133-.993 2.645.878 4.16 1.173.95 2.133 2.133 2.133 2.629 0 1.672 10.347 8.278 12.965 8.278.585 0 1.956-1.463 3.046-3.25 3.038-4.984 2.66-13.697-1.082-24.963-4.487-13.505-5.543-22.385-4.202-35.321.61-5.887 1.484-11.078 1.941-11.536.458-.458.832 5.558.832 13.369 0 9.399.458 15.498 1.356 18.036 1.57 4.442 6.694 10.664 8.783 10.664 1.649 0 3.75-4.6 8.222-18 3.197-9.58 5.83-15.08 4.787-10-1.264 6.16-1.86 19-.881 19 .563 0 2.904-2.138 5.201-4.75 3.562-4.051 3.909-4.26 2.354-1.423-1.002 1.83-4.195 6.31-7.095 9.957-4.83 6.073-8.227 13.62-8.227 18.277 0 .934-1.397 7.25-3.105 14.034-3.683 14.634-3.472 19.749 1.322 31.997 2.899 7.405 3.339 7.98 6.824 8.919 2.05.551 4.283 1.675 4.965 2.496 1.626 1.96 5.446 1.898 8.554-.139 1.37-.897 3.941-1.933 5.715-2.302 3.927-.817 3.998-2.02.975-16.566-2.6-12.517-3.876-27.5-2.34-27.5.6 0 1.096 1.687 1.103 3.75.023 6.617 3.766 22.198 6.421 26.728 2.628 4.484 5.071 6.032 7.842 4.97 3.574-1.372 12.643-18.499 13.739-25.946l.735-5.002.112 5c.071 3.2-.949 8.046-2.833 13.459-1.62 4.652-2.806 8.597-2.637 8.766.537.537 21.196-8.294 26.035-11.13 8.63-5.057 11.404-8.228 13.642-15.593 1.67-5.497 2-8.894 1.746-17.895-.173-6.111-.014-11.11.353-11.11 1.096.004 2.965 9.92 3.572 18.959l.568 8.455 3.823-4.307c7.136-8.042 8.564-12.585 9.783-31.123.598-9.086 1.087-19.575 1.087-23.31 0-3.765.4-6.541.9-6.233 1.888 1.167 3.443 11.66 4.01 27.062l.59 16 3.795-.118c2.44-.076 4.652-.923 6.194-2.371 5.012-4.709 5.873-8.714 8.07-37.511 1.052-13.81 2.647-7.472 3.207 12.75.256 9.212.837 16.75 1.293 16.75 1.65 0 3.943-4.527 4.037-7.973.053-1.94.637-5.777 1.298-8.527l1.202-5 .71 5.051c.84 5.977-.037 13.857-1.97 17.694-.76 1.51-3.734 4.6-6.61 6.868s-11.751 10.122-19.726 17.455c-16.43 15.105-23.226 20.575-33.396 26.87-5.461 3.382-15.967 8.883-17.266 9.043-.09.01.911 3.17 2.224 7.02 4.286 12.569 2.975 19.257-5.416 27.64-10.587 10.577-10.14 9.571-8.493 19.074 3.685 21.26 7.964 33.017 15.735 43.227 6.406 8.418 8.667 12.733 11.556 22.059 6.788 21.91 1.498 45.686-13.75 61.795-8.408 8.884-8.878 9.734-11.717 21.2-4.926 19.892-14.653 31.498-20.748 24.756zm11.771-210.05c.55-.887 3.25-4.071 6-7.077 5.512-6.025 4.654-6.055-5.397-.185-8.733 5.1-10.208 6.78-7.618 8.674 2.2 1.608 5.56.932 7.015-1.412zm-57.5-22.733c0-1.642-3.41-8.28-5.298-10.31-3.355-3.61-10.702-8.43-10.702-7.021 0 2.964 4.535 10.164 8.725 13.853 4.002 3.523 7.275 5.088 7.275 3.479zm510.82 132.48c-20.297-2.8-30.82-13.366-30.82-30.946 0-15.996 8.561-25.885 26-30.032 6.204-1.475 22.509-1.835 28.384-.626l3.884.8-.494-5.146c-.574-5.973-3.014-9.78-7.845-12.244-4.362-2.224-19.432-2.351-29.36-.248-3.812.807-7.187 1.216-7.5.908-.313-.308-1.303-4.914-2.2-10.236-1.15-6.822-1.312-9.877-.55-10.358 2.847-1.798 20.248-4.095 31.18-4.117 24.384-.048 37.028 7.682 41.14 25.152.966 4.103 1.334 14.859 1.346 39.327l.015 33.679-5.25 1.05c-16.072 3.216-37.015 4.544-47.93 3.038zm27.18-31.839c0-9.01-.273-10.998-1.582-11.5-3.351-1.286-18.383-.605-22.436 1.017-8.9 3.56-9.48 15.355-.968 19.624 2.671 1.34 6 1.749 14.236 1.75l10.75.002v-10.893zm-304-34.107v-65h29v24c0 13.2.376 24 .836 24 .46 0 9.122-9.103 19.25-20.229s19.99-21.942 21.914-24.036l3.5-3.807 16.763.286 16.763.286-13.729 15.5c-7.55 8.525-19.862 21.766-27.358 29.424l-13.629 13.924 9.982 9.576c5.49 5.267 13.514 13.805 17.83 18.974 8.002 9.58 22.957 30.18 27.483 37.852l2.507 4.25h-33.83l-3.797-5.75c-8.317-12.593-19.536-26.322-30.645-37.5-6.423-6.463-12.164-11.75-12.76-11.75-.749 0-1.081 8.45-1.081 27.5v27.5h-29v-65zm135-5.481V86.149l2.25-.51c1.237-.28 7.312-1.344 13.5-2.366l11.25-1.858v23.955c0 21.255.175 23.888 1.554 23.358 8.255-3.167 26.386-2.507 34.93 1.273 6.172 2.73 13.06 9.441 15.873 15.467 3.93 8.412 4.642 16.09 4.642 49.975v31.668h-26.852l-.323-32.25c-.307-30.579-.436-32.492-2.486-36.929-3.063-6.628-6.46-8.17-16.8-7.627-4.462.234-8.658.763-9.325 1.175-.915.565-1.213 9.932-1.213 38.19v37.44h-27v-70.48zm229 0V86.149l2.25-.51c1.237-.28 7.312-1.344 13.5-2.366l11.25-1.858.002 41.598.002 41.598 5.427-6c2.985-3.3 10.072-11.478 15.748-18.173l10.321-12.173 16.437-.076 16.437-.077-2.481 2.75c-1.365 1.512-6.5 7.25-11.41 12.75-4.911 5.5-12.875 14.074-17.698 19.054l-8.77 9.054 4.1 3.946c4.924 4.74 17.75 20.445 24.048 29.446 4.898 7 12.837 20.178 12.837 21.308 0 .38-6.93.691-15.4.691h-15.4l-5.19-8.175c-9.612-15.139-25.506-34.825-28.118-34.825-.495 0-.892 9.564-.892 21.5v21.5h-27v-70.48zm116 20.981v-49.5h27v99h-27v-49.5zm7.578-62.985c-2.157-.769-5.307-2.783-7-4.475-2.894-2.895-3.078-3.53-3.078-10.636 0-7.427.064-7.616 3.67-10.921 7.305-6.696 17.392-6.627 23.973.164 3.194 3.295 3.357 3.822 3.357 10.853 0 7.03-.163 7.557-3.357 10.853-2.062 2.127-5.031 3.885-7.693 4.555-5.26 1.325-5.024 1.334-9.872-.393z"/></svg>