<svg width="840" height="505" xmlns="http://www.w3.org/2000/svg"><path d="M577.323 84.792c-30.47 17.16-60.701 34.11-91.58 51.492a6964.774 6964.774 0 0 1-11.897-23.122c21.078-11.965 41.572-23.595 62.174-35.29-12.45-15.391-35.372-19.45-55.107-10.305-20.94 9.694-32.265 34.843-27.39 60.795 4.551 24.177 22.215 40.98 46.557 41.6 22.435.575 47.704-9.077 54.408-48.323 9.079 1.085 19.66 2.252 28.75 3.34-3.764 39.092-34.964 69.813-73.965 72.829-39 3.016-74.519-22.546-84.2-60.597-10.2-41.296 10.619-83.282 49.046-97.034 36.587-13.094 81.349-3.045 103.204 44.615zM379.567 38.578c.184 3.247 0 5.976 0 8.706.034 28.047.139 56.098 0 84.15-.22 39.08-27.516 66.448-65.868 66.317-38.225-.132-65.36-27.781-65.491-66.873-.094-30.507 0-61.01 0-92.184h28.694v9.54c.056 27.108-.22 54.225 0 81.333.157 19.2 10.985 34.374 27.213 39.044 24.241 6.967 46.77-11.544 47.113-39.22.333-26.797.079-53.602.083-80.4V38.579h28.256zM82.377 166.85v27.21s-36.842.62-51.466-1.547C12.92 189.694.583 174.197 0 151.15V0h27.868v37.628H82.26v28.483H28.137v12.516c0 22.77-.097 45.538.041 68.307.086 14.326 5.366 19.672 19.634 19.897 11.341.218 22.682.019 34.565.019zM205.488 62.755c-.938-.068-1.75 0-2.572 0-30.43-.376-44.276 21.188-44.276 44.1v87.205h-27.965V38.698h27.057V52.16a70.806 70.806 0 0 1 22.06-13.943 78.1 78.1 0 0 1 25.696-4.08v28.618zm450.85 27.352a16.233 16.233 0 0 1-12.189-4.716 16.37 16.37 0 0 1-4.805-12.196 17.119 17.119 0 0 1 4.515-12.771 16.978 16.978 0 0 1 12.36-5.448 16.62 16.62 0 0 1 12.13 4.95 16.761 16.761 0 0 1 4.816 12.225c.168 10.801-6.559 17.979-16.827 17.956zm.394 53.627c9.19.266 16.487 7.849 16.435 17.079-.05 9.23-7.431 16.73-16.623 16.894a16.683 16.683 0 0 1-12.54-5.114 16.824 16.824 0 0 1-4.66-12.76c.479-9.217 8.199-16.365 17.388-16.099zm-70.999 197.398c21.603-.036 42.304 8.704 57.403 24.236 15.1 15.532 23.317 36.539 22.786 58.25-.67 46.054-35.61 80.92-80.851 80.68-21.45.092-42.02-8.557-57.02-23.973-14.998-15.416-23.144-36.283-22.577-57.84.243-45.896 35.31-81.454 80.26-81.353zm1.808 28.133c-29.757-.828-51.285 20.672-52.183 52.096-.887 30.893 20.207 54.605 49.241 55.407 28.556.782 50.107-21.331 51.098-52.428.977-30.893-19.459-54.282-48.156-55.075zM811.297 500.87v-10.135s.168-53.706-.094-80.556c-.205-20.597-12.206-36.529-29.502-40.13-23.71-4.931-44.616 13.205-44.905 39.423-.273 26.842-.06 53.702-.06 80.552v10.586h-28.293v-8.57c-.038-28.094-.142-56.197 0-84.295.194-39.012 27.878-66.88 65.905-66.587 37.69.282 65.235 27.955 65.527 66.256.243 30.84.056 61.697.056 93.456h-28.634zM31.624 343.995l8.7 24.585s23.362 62.75 35.786 96.093a407999.08 407999.08 0 0 1 20.738-55.964l20.795-57.02 2.993-7.577h31.381s-2.267 5.865-3.106 8.084a82022.432 82022.432 0 0 1-51.183 136.347c-4.865 12.903-12.405 15.8-21.607 15.8-8.931.593-17.293-4.443-20.986-12.64A27122.531 27122.531 0 0 1 1.321 347.377 559.733 559.733 0 0 1 0 344.01l31.624-.015zm434.296 1.114V500.46h-27.953V345.109h27.953zM187.354 500.637V344.943h27.17v155.69l-27.17.004zm25.97-213.1a16.905 16.905 0 0 1 5.25 12.465 17.178 17.178 0 0 1-4.934 12.578 16.99 16.99 0 0 1-12.47 5.062 16.48 16.48 0 0 1-12.16-4.622 16.66 16.66 0 0 1-5.073-12.032 16.498 16.498 0 0 1 4.317-12.796 16.314 16.314 0 0 1 12.395-5.224 16.72 16.72 0 0 1 12.676 4.568zm246.86 27.966a16.856 16.856 0 0 1-17.16-.312 17.045 17.045 0 0 1-8.073-15.226 15.992 15.992 0 0 1 4.557-12.303 15.813 15.813 0 0 1 12.196-4.694 15.98 15.98 0 0 1 12.614 4.818 16.164 16.164 0 0 1 4.483 12.796c.034 6.177-3.264 11.888-8.617 14.921zm-77.371 56.869v-26.263s-54.735-1.064-81.708 0c-13.353.171-25.568 7.592-31.927 19.397-11.227 20.315-5.112 44.576 16.053 55.208 15.829 7.953 33.342 12.414 49.975 18.757a85.192 85.192 0 0 1 20.626 9.887 14.475 14.475 0 0 1 4.58 12.824 13.405 13.405 0 0 1-7.218 9.353 33.103 33.103 0 0 1-13.048 1.753c-24.907.09-49.818.045-75.29.045v27.831h62.686c10.13.024 20.252-.564 30.311-1.76 16.64-1.981 29.89-14.935 32.324-31.601 3.368-17.75-1.074-33.06-16.66-43.297a98.586 98.586 0 0 0-20.559-10.376c-12.438-4.47-25.318-7.655-37.84-11.933a57.085 57.085 0 0 1-13.845-6.395 12.513 12.513 0 0 1-6.32-10.91 13.42 13.42 0 0 1 1.336-5.643 14.585 14.585 0 0 1 10.979-6.85l75.545-.027z" fill="#FFF" fill-rule="evenodd"/></svg>