<?xml version="1.0" encoding="UTF-8"?>
<svg width="184px" height="170px" viewBox="0 0 184 170" version="1.1" xmlns="http://www.w3.org/2000/svg" xmlns:xlink="http://www.w3.org/1999/xlink">
    <!-- Generator: Sketch 51.2 (57519) - http://www.bohemiancoding.com/sketch -->
    <title>social</title>
    <desc>Created with Sketch.</desc>
    <defs></defs>
    <g id="website" stroke="none" stroke-width="1" fill="none" fill-rule="evenodd">
        <g id="social" transform="translate(2.000000, 1.000000)" fill="#4A4A4A" fill-rule="nonzero">
            <path d="M142.649458,2.87892831 C142.631763,2.87593064 142.613656,2.88101151 142.600103,2.89277697 C142.58655,2.90454242 142.578976,2.92175689 142.578966,2.92432411 L143.097359,16.8910255 C143.099965,16.9348918 143.130904,16.9719162 143.124296,16.9711896 C143.142278,16.974915 143.160487,16.9659178 143.169976,16.9462148 L149.334151,4.21766234 C149.335336,4.19018828 149.314626,4.17465168 149.290512,4.16792339 L142.649458,2.87892831 Z M149.885716,1.22746265 C150.813871,1.42673815 151.580342,2.00868819 152.025849,2.85766234 C152.4424,3.70408045 152.4424,4.69591955 152.030024,5.53378522 L145.871548,18.2506286 C145.266183,19.5081504 143.88233,20.1919367 142.466391,19.8977245 C141.142531,19.5765879 140.183445,18.4288295 140.101034,17.0356759 L139.580542,3.02030246 C139.555949,2.10532953 139.942233,1.22739156 140.633417,0.627353314 C141.3246,0.0273150639 142.248096,-0.231809312 143.185716,-0.0725373515 L149.885716,1.22746265 Z" id="Shape"></path>
            <path d="M124.383066,0.493471863 C125.308071,0.23964643 126.298739,0.453020972 127.016054,1.04790677 C127.715427,1.60643821 128.139266,2.43998884 128.179741,3.37214766 L128.439856,17.3792398 C128.459074,18.7676424 127.535102,19.9926173 126.194851,20.355602 C124.854599,20.7185867 123.438728,20.1273194 122.749867,18.9104467 L115.869867,6.57044673 L115.818542,6.46962963 C115.434318,5.63881522 115.434318,4.68118478 115.80067,3.89055244 C116.173901,3.01717673 116.936168,2.37043115 117.858269,2.14425572 L124.383066,0.493471863 Z M118.587975,5.05416461 C118.566882,5.05935357 118.56181,5.0636454 118.541458,5.10962963 C118.530114,5.13415849 118.527478,5.1615614 118.533549,5.187426 L125.365338,17.44102 C125.374339,17.4569192 125.392969,17.464699 125.410604,17.4599229 C125.428239,17.4551468 125.440397,17.4390287 125.440259,17.4278523 L125.181446,3.46584323 C125.180429,3.44269434 125.171422,3.4208049 125.145295,3.39484264 L118.587975,5.05416461 Z" id="Shape"></path>
            <path d="M86.1828494,69.6470568 C86.176289,69.6608866 89.4633578,72.9661164 96.0440557,79.5627463 C96.0506212,79.569354 96.0608789,79.5705543 96.0852489,79.5555699 C96.1008747,79.5461446 96.1081407,79.5273386 96.1051435,79.5172492 L91.9909459,66.0158556 C91.9871977,66.0041056 91.9782389,65.9947417 91.966666,65.990478 C91.9557486,65.9864559 91.9436568,65.9873968 91.9335278,65.9929813 L86.1828494,69.6470568 Z M90.3355403,63.453965 C91.1444043,62.9512238 92.1242444,62.8514085 93.0037821,63.1754487 C93.8833197,63.4994889 94.5641959,64.211147 94.8548565,65.1227508 L98.9770888,78.6501444 C99.3745263,79.9788533 98.8223143,81.4081079 97.6512074,82.114359 C96.4562498,82.8562687 94.9073238,82.6750114 93.9182657,81.679585 L84.0605717,71.8018906 C83.4109276,71.1537529 83.0912249,70.245392 83.1917162,69.3332399 C83.2922075,68.4210878 83.8019899,67.6041109 84.5755403,67.113965 L90.3355403,63.453965 Z" id="Shape"></path>
            <path d="M67.4583535,85.8686751 L71.2208952,80.2447361 C71.7280385,79.4614971 72.570751,78.9588265 73.4694295,78.8875763 C74.3937137,78.7943253 75.3099044,79.1288076 75.9588419,79.7978387 L85.6093571,89.7881087 C86.5942306,90.7893353 86.7589132,92.3373516 86.0155942,93.5092144 C85.2761869,94.7043063 83.8101429,95.2314233 82.4971391,94.7868005 L69.017917,90.4134754 C68.1442496,90.1031385 67.4568615,89.4157504 67.1445074,88.5363674 C66.8323864,87.6462909 66.948184,86.6620115 67.4583535,85.8686751 Z M69.9734754,87.537917 C69.9815361,87.5606097 69.9993903,87.5784639 69.9828609,87.5731995 L83.4409847,91.9392067 C83.4498001,91.942191 83.459509,91.9387001 83.4732744,91.9166281 C83.4782558,91.9087737 83.4771652,91.8985219 83.4611581,91.8821613 L73.8032978,81.8843718 C73.7947873,81.8755978 73.7827322,81.8711967 73.7391048,81.8752639 L69.9793561,87.4951929 C69.9713157,87.5099731 69.9697067,87.5271358 69.9734754,87.537917 Z" id="Shape"></path>
            <path d="M63.8641275,8.81848049 L69.1672197,13.1569115 C69.8829899,13.739835 70.2928499,14.6181064 70.28,15.5198259 C70.2801098,16.4658372 69.8280363,17.3549151 69.1096757,17.8771589 L58.1581342,26.5261828 C57.0641463,27.3729558 55.536396,27.3743133 54.4409052,26.5294856 C53.3454144,25.6846579 52.958477,24.2067193 53.5064958,22.9171017 L59.1920855,9.96452456 C59.5739713,9.11577088 60.3191719,8.48521652 61.2678775,8.23723049 C62.1766689,8.03088899 63.1300715,8.24433734 63.8641275,8.81848049 Z M61.9805727,11.1509185 C61.9571894,11.1570519 61.9378336,11.1734299 61.9335042,11.1828983 L56.2605671,24.1065445 C56.2534493,24.1232979 56.2585406,24.1427445 56.2729549,24.1538607 C56.2873693,24.1649768 56.3074712,24.164959 56.3103243,24.1628411 L67.2802469,15.5006307 C67.2802388,15.4953871 65.5236256,14.0543487 62.0104072,11.1775155 C61.9878296,11.1619677 61.9628844,11.1557207 61.9805727,11.1509185 Z M67.293812,15.4899192 C67.2859023,15.4966334 67.2809974,15.5049075 67.2802469,15.5006307 L67.293812,15.4899192 Z M67.2964384,15.4878454 C67.2955298,15.4885076 67.2946539,15.4892046 67.293812,15.4899192 L67.2964384,15.4878454 Z" id="Shape"></path>
            <path d="M43.6448088,-0.439330573 C44.5742702,-0.411552788 45.4391128,0.0428560733 45.969455,0.766108997 C46.5371585,1.50499112 46.7293035,2.46571647 46.4919953,3.35644324 L42.9912987,16.8591201 C42.641744,18.1972403 41.4330235,19.13077 40.05,19.13077 C38.6669765,19.13077 37.458256,18.1972403 37.1014769,16.8303003 L33.8142583,3.14351754 C33.5271675,2.20908671 33.7099824,1.19134934 34.3083109,0.41429938 C34.9191158,-0.378953784 35.8830889,-0.817669561 36.8817786,-0.757811209 L43.6448088,-0.439330573 Z M36.7294898,2.23834185 L36.7024462,2.23682439 C36.6812326,2.24986117 36.6800642,2.25682081 36.6821831,2.26314018 L36.7185231,2.38969969 L40.0112987,16.1008799 C40.0158981,16.1184867 40.0318023,16.13077 40.05,16.13077 C40.0681977,16.13077 40.0841019,16.1184867 40.0880047,16.1035568 L43.590545,2.593891 L43.5707175,2.56748847 C43.567074,2.56252386 43.5613465,2.55951453 43.5294898,2.55834185 L36.7294898,2.23834185 Z" id="Shape"></path>
            <path d="M45.252132,49.3249242 C44.432031,49.4420815 43.672233,48.872233 43.5550758,48.052132 C43.4379185,47.232031 44.007767,46.472233 44.827868,46.3550758 L48.467868,45.8350758 C49.287969,45.7179185 50.047767,46.287767 50.1649242,47.107868 C50.2820815,47.927969 49.712233,48.687767 48.892132,48.8049242 L45.252132,49.3249242 Z" id="Shape"></path>
            <path d="M64.8519142,65.7574425 C65.6707081,65.6314742 66.4365893,66.1931203 66.5625575,67.0119142 C66.6885258,67.8307081 66.1268797,68.5965893 65.3080858,68.7225575 L63.4880858,69.0025575 C62.6692919,69.1285258 61.9034107,68.5668797 61.7774425,67.7480858 C61.6514742,66.9292919 62.2131203,66.1634107 63.0319142,66.0374425 L64.8519142,65.7574425 Z" id="Shape"></path>
            <path d="M65.627868,58.2150758 C66.447969,58.0979185 67.207767,58.667767 67.3249242,59.487868 C67.4420815,60.307969 66.872233,61.067767 66.052132,61.1849242 L64.232132,61.4449242 C63.412031,61.5620815 62.652233,60.992233 62.5350758,60.172132 C62.4179185,59.352031 62.987767,58.592233 63.807868,58.4750758 L65.627868,58.2150758 Z" id="Shape"></path>
            <path d="M66.387868,50.6550758 C67.207969,50.5379185 67.967767,51.107767 68.0849242,51.927868 C68.2020815,52.747969 67.632233,53.507767 66.812132,53.6249242 L64.992132,53.8849242 C64.172031,54.0020815 63.412233,53.432233 63.2950758,52.612132 C63.1779185,51.792031 63.747767,51.032233 64.567868,50.9150758 L66.387868,50.6550758 Z" id="Shape"></path>
            <path d="M0.21719877,56.8441916 C-0.602497614,56.9641472 -1.36423603,56.3968952 -1.4841916,55.5771988 C-1.60414716,54.7575024 -1.03689515,53.995764 -0.21719877,53.8758084 L20.354036,50.8671187 C22.1580518,50.690734 23.7982409,51.9208758 24.1440914,53.7621175 L27.6444537,77.6046001 C27.7987599,78.6680195 27.5230588,79.7490987 26.878325,80.6087438 C26.2335912,81.4683888 25.2729515,82.0357641 24.2181555,82.1840513 L4.21815554,85.1240513 C3.39853665,85.2445352 2.63643271,84.6777744 2.51594873,83.8581555 C2.39546476,83.0385367 2.96222558,82.2764327 3.78184446,82.1559487 L23.7911368,79.2146125 C24.0650605,79.1760955 24.3123539,79.0300385 24.478325,78.8087438 C24.6442961,78.587449 24.7152686,78.3091514 24.6759086,78.0378825 L21.185964,54.2578813 C21.1379933,54.003418 20.9036806,53.8276835 20.7171988,53.8441916 L0.21719877,56.8441916 Z" id="Shape"></path>
            <path d="M26.511491,79.9787671 C25.6817307,80.1198829 24.8982964,79.5507993 24.7759357,78.7180666 L21.1759357,54.2180666 C21.0600824,53.429621 21.5809787,52.6882145 22.3620064,52.529898 L25.4029277,51.9157899 C27.6071388,51.5934142 29.656352,53.1160935 29.9842498,55.3231995 L32.8444537,74.9046001 C32.9987599,75.9680195 32.7230588,77.0490987 32.078325,77.9087438 C31.4335912,78.7683888 30.4729515,79.3357641 29.451491,79.4787671 L26.511491,79.9787671 Z M28.9911368,76.5146125 C29.2650605,76.4760955 29.5123539,76.3300385 29.678325,76.1087438 C29.8442961,75.887449 29.9152686,75.6091514 29.8757502,75.3368005 L27.0162849,55.7604306 C26.9320133,55.1931991 26.404493,54.8012223 25.9179936,54.870102 L24.3506419,55.1878084 L27.5210672,76.7643142 L28.9911368,76.5146125 Z" id="Shape"></path>
            <path d="M67.2244523,43.0955677 C70.0601209,42.6838131 72.6926777,44.6487837 73.1044323,47.4844523 C73.3807147,49.3871523 72.5869359,51.1984062 71.1770283,52.3088272 C71.2369381,52.3757564 71.2953075,52.4444626 71.3520555,52.5149156 C72.535918,53.9846874 72.8267375,55.9820138 72.111155,57.7283532 C71.7445511,58.6230296 71.1435251,59.3792874 70.399934,59.9322215 C70.448188,59.9876233 70.4953972,60.0442009 70.5415175,60.1019372 C71.7038014,61.5569589 71.9956002,63.5238991 71.3057873,65.2536824 C70.9478033,66.1513676 70.3540493,66.9134765 69.6083599,67.4746599 C70.2423689,68.1988153 70.6825166,69.107579 70.8338487,70.1304717 C71.2533246,72.965818 69.2948747,75.6043728 66.455249,76.0244756 L50.4578774,78.3440921 C46.0411046,78.992512 43.0759033,78.7735804 38.9978371,77.8756688 C39.0583668,77.8889963 37.823384,77.6140222 37.4979373,77.5445503 C36.9653909,77.4308696 36.532734,77.3477839 36.1233288,77.2829125 C34.9005673,77.0891623 33.871673,77.0618959 32.752831,77.2275538 L31.672831,77.3675538 C30.860128,77.4729042 30.1133001,76.9065068 29.9955616,76.0955059 L26.9555616,55.1555059 C26.8367422,54.337059 27.4027849,53.5768572 28.2209453,53.4560812 C34.8450541,52.4782366 38.2626381,43.3719235 36.7159613,32.778241 L36.516317,31.4206461 C36.0601808,28.3534642 38.1657156,25.4933446 41.2456726,25.015391 C44.9213308,24.4847502 47.1525365,27.8209268 48.5394117,33.6609205 C49.3516382,37.0811252 49.8298131,41.1302994 50.0919259,45.5978659 L67.2244523,43.0955677 Z M64.9404717,65.7561512 C62.9684309,66.0479051 63.3959747,69.0041656 65.3698716,68.7252454 L67.2098716,68.4652454 C68.0953999,68.3423858 68.9171523,67.9948418 69.6083599,67.4746599 C68.4849656,66.191536 66.7529253,65.4880074 64.9404717,65.7561512 Z M36.5928301,74.3198788 C37.061764,74.3941827 37.5438431,74.4867593 38.1242259,74.6106514 C38.4648384,74.6833607 39.7154525,74.9618152 39.6429274,74.9458466 C43.3939678,75.7717534 46.0100776,75.9649102 50.024751,75.3755244 L66.0204716,73.0561512 C67.2168038,72.8791595 68.0431427,71.7658606 67.866151,70.5695283 C67.6891594,69.3731961 66.5758605,68.5468573 65.3795283,68.7238488 L64.9501284,65.7547546 L66.7938584,65.4942323 C67.570151,65.3865262 68.2288846,64.8704064 68.519192,64.1424281 C68.8094993,63.4144498 68.6866959,62.5866641 68.1975494,61.9743191 C67.7084029,61.361974 66.9282032,61.0593223 66.1540758,61.1816236 L65.92,59.7 L65.6919142,58.2174425 L67.5679683,57.9298976 C68.3569808,57.8388064 69.0340144,57.3258063 69.3351669,56.5908603 C69.6363193,55.8559144 69.5139281,55.0153408 69.0157003,54.3967881 C68.5174725,53.7782355 67.7222612,53.4796006 66.9400335,53.6172889 L66.68,52.14 L66.467868,50.6550758 L68.2844523,50.3955677 C69.4804623,50.2219005 70.3092349,49.1115577 70.1355677,47.9155477 C69.9619005,46.7195377 68.8515577,45.8907651 67.6567831,46.0642524 L48.8967831,48.8042524 C48.0191693,48.9324326 47.2225713,48.2752685 47.1816012,47.3892901 C46.9526442,42.4380953 46.4786319,37.9672161 45.6205883,34.3540795 C44.5676291,29.9201735 43.1323657,27.7741175 41.6900598,27.9822525 C40.255742,28.2048724 39.2701725,29.5436518 39.4840387,30.981759 L39.6842641,32.3432974 C41.3371891,43.6647016 37.8420406,53.8857769 30.1251782,56.1072217 L32.7520792,74.2017306 C34.0182266,74.0548227 35.2336188,74.1045078 36.5928301,74.3198788 Z" id="Shape"></path>
            <path d="M134.032132,46.3550758 C134.852233,46.472233 135.422082,47.232031 135.304924,48.052132 C135.187767,48.872233 134.427969,49.4420815 133.607868,49.3249242 L129.967868,48.8049242 C129.147767,48.687767 128.577918,47.927969 128.695076,47.107868 C128.812233,46.287767 129.572031,45.7179185 130.392132,45.8350758 L134.032132,46.3550758 Z" id="Shape"></path>
            <path d="M113.551914,68.7225575 C112.73312,68.5965893 112.171474,67.8307081 112.297442,67.0119142 C112.423411,66.1931203 113.189292,65.6314742 114.008086,65.7574425 L115.828086,66.0374425 C116.64688,66.1634107 117.208526,66.9292919 117.082558,67.7480858 C116.956589,68.5668797 116.190708,69.1285258 115.371914,69.0025575 L113.551914,68.7225575 Z" id="Shape"></path>
            <path d="M112.807868,61.1849242 C111.987767,61.067767 111.417918,60.307969 111.535076,59.487868 C111.652233,58.667767 112.412031,58.0979185 113.232132,58.2150758 L115.052132,58.4750758 C115.872233,58.592233 116.442082,59.352031 116.324924,60.172132 C116.207767,60.992233 115.447969,61.5620815 114.627868,61.4449242 L112.807868,61.1849242 Z" id="Shape"></path>
            <path d="M112.047868,53.6249242 C111.227767,53.507767 110.657918,52.747969 110.775076,51.927868 C110.892233,51.107767 111.652031,50.5379185 112.472132,50.6550758 L114.292132,50.9150758 C115.112233,51.032233 115.682082,51.792031 115.564924,52.612132 C115.447767,53.432233 114.687969,54.0020815 113.867868,53.8849242 L112.047868,53.6249242 Z" id="Shape"></path>
            <path d="M180.21674,54.0357414 C181.036474,54.1554437 181.603961,54.9170068 181.484259,55.7367402 C181.364556,56.5564736 180.602993,57.1239609 179.78326,57.0042586 L158.216738,53.853143 C157.957414,53.8282617 157.72244,54.0066674 157.684065,54.2180616 L154.184454,78.0353999 C154.144731,78.3091514 154.215704,78.587449 154.381675,78.8087438 C154.547646,79.0300385 154.794939,79.1760955 155.076703,79.2157359 L175.076703,82.1357359 C175.896439,82.2554174 176.463946,83.0169661 176.344264,83.8367026 C176.224583,84.656439 175.463034,85.2239456 174.643297,85.1042641 L154.651137,82.1853875 C153.587048,82.0357641 152.626409,81.4683888 151.981675,80.6087438 C151.336941,79.7490987 151.06124,78.6680195 151.215935,77.6019384 L154.723262,53.736857 C155.043175,51.941528 156.687989,50.692688 158.57674,50.8757414 L180.21674,54.0357414 Z" id="Shape"></path>
            <path d="M154.509516,55.1867306 L153.022928,54.8842101 C152.455507,54.8012223 151.927987,55.1931991 151.84425,55.7568005 L148.984454,75.3353999 C148.944731,75.6091514 149.015704,75.887449 149.181675,76.1087438 C149.347646,76.3300385 149.594939,76.4760955 149.911491,76.5212329 L151.338979,76.7640028 L154.509516,55.1867306 Z M152.348509,79.9787671 L149.451137,79.4853875 C148.387048,79.3357641 147.426409,78.7683888 146.781675,77.9087438 C146.136941,77.0490987 145.86124,75.9680195 146.01575,74.9031995 L148.876285,55.3195694 C149.203648,53.1160935 151.252861,51.5934142 153.537994,51.929898 L156.497994,52.529898 C157.279021,52.6882145 157.799918,53.429621 157.684064,54.2180666 L154.084064,78.7180666 C153.961704,79.5507993 153.178269,80.1198829 152.348509,79.9787671 Z" id="Shape"></path>
            <path d="M139.215961,32.341759 L139.416002,30.9814851 C139.518118,30.2879801 139.340232,29.5823347 138.921558,29.0201162 C138.502885,28.4578977 137.877803,28.0852702 137.185673,27.984609 C135.727634,27.7741175 134.292371,29.9201735 133.239412,34.3540795 C132.381368,37.9672161 131.907356,42.4380953 131.678399,47.3892901 C131.637399,48.2759111 130.839733,48.9332358 129.961621,48.8040185 L111.344452,46.0644323 C110.148442,45.8907651 109.038099,46.7195377 108.864432,47.9155477 C108.690765,49.1115577 109.519538,50.2219005 110.712132,50.3950758 L112.532132,50.6550758 L112.32,52.14 L112.059967,53.6172889 C111.277739,53.4796006 110.482528,53.7782355 109.9843,54.3967881 C109.486072,55.0153408 109.363681,55.8559144 109.664833,56.5908603 C109.965986,57.3258063 110.643019,57.8388064 111.488086,57.9374425 L113.308086,58.2174425 C115.27027,58.5193169 114.840291,61.4585987 112.873858,61.1857677 C111.689232,61.0214077 110.59337,61.8421508 110.417866,63.0251779 C110.242362,64.2082051 111.052753,65.3117439 112.221677,65.4964706 L113.961677,65.7564706 C115.938284,66.0518258 115.497505,69.0163413 113.520472,68.7238488 C112.324139,68.5468572 111.210841,69.3731961 111.033849,70.5695283 C110.856857,71.7658606 111.683196,72.8791595 112.875249,73.0555244 L128.877877,75.3759079 C132.889922,75.9649102 135.506032,75.7717534 139.257073,74.9458466 C139.184548,74.9618152 140.435162,74.6833607 140.775774,74.6106514 C141.356157,74.4867593 141.838236,74.3941827 142.30717,74.3198788 C143.673673,74.1033523 144.894811,74.0542944 146.147985,74.2012887 L148.774822,56.1072214 C141.05796,53.8857718 137.562824,43.6646128 139.215961,32.341759 Z M130.320588,33.6609205 C131.707464,27.8209268 133.938669,24.4847502 137.615882,25.0156164 C139.097846,25.2311468 140.433249,26.0272147 141.327688,27.2283178 C142.222126,28.4294209 142.602157,29.9369361 142.384039,31.418241 L142.184264,32.7767026 C140.637362,43.3719235 144.054946,52.4782366 150.679055,53.4560812 C151.497215,53.5768572 152.063258,54.337059 151.944438,55.1555059 L148.904438,76.0955059 C148.7867,76.9065068 148.039872,77.4729042 147.227169,77.3675538 L146.119973,77.2237749 C145.028327,77.0618959 143.999433,77.0891623 142.776671,77.2829125 C142.367266,77.3477839 141.934609,77.4308696 141.402063,77.5445503 C141.076616,77.6140222 139.841633,77.8889963 139.902163,77.8756688 C135.824097,78.7735804 132.858895,78.992512 128.444751,78.3444756 L112.440472,76.0238488 C109.605125,75.6043728 107.646675,72.965818 108.066151,70.1304717 C108.222444,69.0740482 108.686798,68.1393588 109.354611,67.4040433 C107.953252,66.2904027 107.169116,64.4806196 107.450343,62.584941 C107.599712,61.5780852 108.029642,60.6816681 108.649336,59.9636933 C107.878735,59.4071492 107.262214,58.6395382 106.888845,57.7283532 C106.173263,55.9820138 106.464082,53.9846874 107.647944,52.5149156 C107.704582,52.4445993 107.762835,52.376023 107.822623,52.3092168 C106.413321,51.1989917 105.619241,49.3874598 105.895568,47.4844523 C106.307322,44.6487837 108.939879,42.6838131 111.778379,43.0959815 L128.768178,45.5960917 C129.030313,41.1292274 129.508469,37.0806724 130.320588,33.6609205 Z" id="Shape"></path>
            <path d="M95.4047038,114.283541 C96.2201298,114.429733 96.7626511,115.209278 96.6164592,116.024704 C96.4702673,116.84013 95.6907221,117.382651 94.8752962,117.236459 L89.8552962,116.336459 C89.0398702,116.190267 88.4973489,115.410722 88.6435408,114.595296 C88.7897327,113.77987 89.5692779,113.237349 90.3847038,113.383541 L95.4047038,114.283541 Z" id="Shape"></path>
            <path d="M66.3599962,143.137294 C65.5441092,142.993698 64.9991097,142.215883 65.1427058,141.399996 C65.286302,140.584109 66.0641167,140.03911 66.8800038,140.182706 L69.3800038,140.622706 C70.1958908,140.766302 70.7408903,141.544117 70.5972942,142.360004 C70.453698,143.175891 69.6758833,143.72089 68.8599962,143.577294 L66.3599962,143.137294 Z" id="Shape"></path>
            <path d="M65.6399962,132.677294 C64.8241092,132.533698 64.2791097,131.755883 64.4227058,130.939996 C64.566302,130.124109 65.3441167,129.57911 66.1600038,129.722706 L68.6600038,130.162706 C69.4758908,130.306302 70.0208903,131.084117 69.8772942,131.900004 C69.733698,132.715891 68.9558833,133.26089 68.1399962,133.117294 L65.6399962,132.677294 Z" id="Shape"></path>
            <path d="M64.9106413,122.215617 C64.0956805,122.066854 63.5556202,121.285602 63.7043829,120.470641 C63.8531456,119.65568 64.6343978,119.11562 65.4493587,119.264383 L67.9693587,119.724383 C68.7843195,119.873146 69.3243798,120.654398 69.1756171,121.469359 C69.0268544,122.28432 68.2456022,122.82438 67.4306413,122.675617 L64.9106413,122.215617 Z" id="Shape"></path>
            <path d="M161.703405,127.403308 C162.518959,127.548783 163.062166,128.327851 162.916692,129.143405 C162.771217,129.958959 161.992149,130.502166 161.176595,130.356692 L128.434409,124.5163 C127.868951,124.414572 127.325386,124.781846 127.216884,125.302324 L121.214212,159.096948 C121.108985,159.657074 121.474172,160.19755 122.003115,160.303257 L152.423115,165.723257 C153.238697,165.868571 153.782057,166.647532 153.636743,167.463115 C153.491429,168.278697 152.712468,168.822057 151.896885,168.676743 L121.446891,163.251084 C119.275634,162.818467 117.857025,160.718925 118.263116,158.557676 L124.271216,124.735575 C124.717824,122.580793 126.799782,121.174064 128.963405,121.563308 L161.703405,127.403308 Z" id="Shape"></path>
            <path d="M124.038405,126.370606 L120.525522,125.738256 C119.954842,125.640015 119.408237,126.009343 119.296812,126.522727 L114.174212,155.316948 C114.068985,155.877074 114.434172,156.41755 114.958999,156.522529 L118.507841,157.144637 L124.038405,126.370606 Z M119.461001,160.357471 L114.406891,159.471084 C112.235634,159.038467 110.817025,156.938925 111.223188,154.777273 L116.353548,125.944535 C116.813625,123.805849 118.878578,122.410611 121.045729,122.783725 L126.045729,123.683725 C126.860895,123.830455 127.402853,124.610117 127.256348,125.425322 L121.196348,159.145322 C121.050258,159.95822 120.274516,160.500079 119.461001,160.357471 Z" id="Shape"></path>
            <path d="M103.823945,94.7130538 L104.162491,92.8412206 C104.565282,90.5414728 103.033075,88.3488321 100.738674,87.9370608 C98.3174226,87.5086856 96.0818926,90.6328506 94.3600704,96.9731159 C93.0040928,101.966231 92.1465457,108.158624 91.6154699,114.976489 C91.5465471,115.861309 90.7286712,116.493149 89.8551183,116.336427 L64.2850843,111.74898 C62.4506514,111.613125 60.8040849,112.884782 60.4770802,114.701474 C60.1502569,116.517159 61.2486443,118.282209 63.0135899,118.795657 L65.4400038,119.222706 C67.3885676,119.565653 66.9074853,122.483342 64.9519681,122.182566 C63.0302214,121.886984 61.2238709,123.179321 60.8831333,125.093578 C60.5423957,127.007834 61.7918537,128.844105 63.6600038,129.222706 L66.1600038,129.662706 L65.6024413,132.61019 C64.3291531,132.352483 63.0161777,132.804777 62.1717424,133.791998 C61.3273072,134.779219 61.0839447,136.146424 61.5358559,137.364394 C61.9877671,138.582365 63.0640254,139.459942 64.3800038,139.662706 L66.8800038,140.102706 L66.3224413,143.05019 C65.0491531,142.792483 63.7361777,143.244777 62.8917424,144.231998 C62.0473072,145.219219 61.8039447,146.586424 62.2558559,147.804394 C62.7077671,149.022365 63.7840254,149.899942 65.1095139,150.104411 L87.0028947,154.103218 C92.6519908,155.108862 96.3113319,154.943147 101.696211,153.926246 C101.926905,153.882681 102.704427,153.734326 102.752181,153.725253 C103.170131,153.64585 103.487814,153.586677 103.796426,153.531265 C104.586029,153.389488 105.248996,153.285379 105.890758,153.206732 C107.862054,152.965152 109.602803,152.976996 111.439539,153.302624 L116.053712,127.399599 C105.494975,124.396135 101.042798,110.26937 103.823945,94.7130538 Z M91.4649296,96.1868841 C93.5655825,88.4516512 96.6335319,84.1641756 101.264966,84.9835877 C105.188978,85.687814 107.805294,89.4318514 107.116055,93.3669462 L106.776588,95.2439831 C104.123649,110.083187 108.541779,123.087178 118.043597,124.783343 C118.858793,124.928863 119.401852,125.707446 119.256812,126.522727 L114.136812,155.302727 C113.991934,156.117103 113.215148,156.660497 112.400461,156.517376 L110.918155,156.256969 C109.394699,155.986882 107.948183,155.977041 106.255675,156.184456 C105.246299,156.308153 105.322242,156.294517 102.252903,156.874143 C96.5393581,157.95311 92.5316352,158.134601 86.4704861,157.055589 L64.6119681,153.062566 C62.2519785,152.699578 60.2738279,151.0866 59.4432201,148.847984 C58.6126124,146.609368 59.0599099,144.096461 60.6119724,142.28196 C60.8175294,142.041646 61.0381918,141.818577 61.2717898,141.613501 C60.1223308,140.855903 59.2186463,139.743234 58.7232201,138.407984 C57.8926124,136.169368 58.3399099,133.656461 59.8919724,131.84196 C60.1195164,131.575941 60.3655703,131.331054 60.6271905,131.108313 C58.5965203,129.681733 57.4674779,127.163803 57.929559,124.567841 C58.2093706,122.995866 59.0269167,121.652073 60.1608597,120.694816 C58.1538275,119.24782 57.0625612,116.73651 57.5245302,114.170015 C58.1305312,110.803343 61.2084101,108.457664 64.6152529,108.76611 L88.7605479,113.092156 C89.3119485,106.752903 90.1608923,100.98874 91.4649296,96.1868841 Z" id="Shape"></path>
        </g>
    </g>
</svg>