<?xml version="1.0" encoding="UTF-8"?>
<svg width="184px" height="162px" viewBox="0 0 184 162" version="1.1" xmlns="http://www.w3.org/2000/svg" xmlns:xlink="http://www.w3.org/1999/xlink">
    <!-- Generator: Sketch 51.2 (57519) - http://www.bohemiancoding.com/sketch -->
    <title>ppc</title>
    <desc>Created with Sketch.</desc>
    <defs></defs>
    <g id="website" stroke="none" stroke-width="1" fill="none" fill-rule="evenodd">
        <g id="ppc" transform="translate(2.000000, 2.000000)" fill="#4A4A4A" fill-rule="nonzero">
            <path d="M162.54,143.38 C163.368427,143.38 164.04,144.051573 164.04,144.88 C164.04,145.708427 163.368427,146.38 162.54,146.38 L126.72,146.38 C125.891573,146.38 125.22,145.708427 125.22,144.88 C125.22,144.051573 125.891573,143.38 126.72,143.38 L162.54,143.38 Z" id="Shape"></path>
            <path d="M31.82,143.38 C32.6484271,143.38 33.32,144.051573 33.32,144.88 C33.32,145.708427 32.6484271,146.38 31.82,146.38 L0,146.38 C-0.828427125,146.38 -1.5,145.708427 -1.5,144.88 C-1.5,144.051573 -0.828427125,143.38 0,143.38 L31.82,143.38 Z" id="Shape"></path>
            <path d="M98.36,143.38 C99.1884271,143.38 99.86,144.051573 99.86,144.88 C99.86,145.708427 99.1884271,146.38 98.36,146.38 L60.2,146.38 C59.3715729,146.38 58.7,145.708427 58.7,144.88 C58.7,144.051573 59.3715729,143.38 60.2,143.38 L98.36,143.38 Z" id="Shape"></path>
            <path d="M22.9793923,81.7792542 C17.8527842,77.0194312 11.3668958,73.9806351 4.46749346,73.0922271 C2.71109315,72.9127219 1.16575904,71.8542739 0.370279257,70.2941489 C-0.425870869,68.7690334 -0.425870869,66.9509666 0.381314997,65.4051085 L3.34350154,59.9410898 C5.10284026,56.7193149 8.83313325,55.1133577 12.4015424,56.0547444 C19.2930133,57.9694354 25.76085,61.1685055 31.4649782,65.4837498 C32.1256489,65.9835555 32.2560558,66.9243075 31.7562502,67.5849782 C31.2564445,68.2456489 30.3156925,68.3760558 29.6550218,67.8762502 C24.252168,63.7889237 18.1259423,60.7588185 11.6174244,58.9503916 C9.40235884,58.3661149 7.07443164,59.3683288 5.978685,61.3748915 L3.02972074,66.8141489 C2.68764864,67.4694267 2.68764864,68.2505733 3.03629032,68.9185837 C3.3756189,69.5840234 4.0294141,70.0318284 4.81145768,70.1122689 C12.3700453,71.0849914 19.4357212,74.3954319 25.0607536,79.6194333 C25.5572433,80.1160105 26.2578638,80.3510287 26.9533739,80.2542996 L27.16,80.24 L27.34,80.24 C28.1684271,80.24 28.84,80.9115729 28.84,81.74 C28.84,82.5684271 28.1684271,83.24 27.34,83.24 C25.6649909,83.4265506 24.0750534,82.8765404 22.9793923,81.7792542 Z" id="Shape"></path>
            <path d="M18.7,67.68 C18.9316562,67.6796038 19.1515026,67.7821988 19.3,67.96 C19.4379921,68.1199195 19.5032061,68.3300534 19.48,68.54 C19.467936,68.7461485 19.3654649,68.936452 19.2,69.06 C19.0587123,69.1752199 18.882308,69.2387254 18.7,69.24 C18.4683438,69.2403962 18.2484974,69.1378012 18.1,68.96 C17.797443,68.6557475 17.797443,68.1642525 18.1,67.86 C18.2386309,67.7401616 18.4167953,67.6760223 18.6,67.68 L18.7,67.68 Z M18.6,65.68 C17.9557669,65.6765259 17.3315238,65.9035234 16.84,66.32 C15.9400709,67.0661882 15.6031202,68.2956634 15.9968799,69.3964007 C16.3906396,70.4971379 17.4309695,71.2339274 18.6,71.24 C19.2493207,71.2379573 19.8780436,71.0118996 20.38,70.6 C20.9725434,70.1268118 21.3460777,69.4321091 21.4140497,68.6768645 C21.4820217,67.9216198 21.2385318,67.1713849 20.74,66.6 C20.2125515,65.962836 19.4271411,65.5958218 18.6,65.6 L18.6,65.68 Z" id="Shape"></path>
            <path d="M107.004106,144.352282 L110.367209,153.300612 C110.825793,154.54308 111.762229,155.550546 112.967916,156.098586 C114.173602,156.646625 115.548391,156.689716 116.786032,156.218259 C118.03668,155.749348 119.043489,154.807862 119.591835,153.598613 C120.140182,152.389364 120.185032,151.011667 119.716036,149.768096 L118.075859,145.407625 L111.417387,127.68779 C108.708036,129.737722 105.80529,131.519633 102.750025,133.008065 L107.004106,144.352282 Z M111.726507,158.829685 C109.791574,157.95017 108.288745,156.33335 107.555894,154.347718 L104.195506,145.406685 L99.4555062,132.766685 C99.1784723,132.027928 99.5210982,131.200841 100.239395,130.874405 C104.155955,129.094494 107.823233,126.810602 111.148157,124.080692 C111.942503,123.428499 113.142618,123.750272 113.504141,124.712375 L120.883964,144.351904 L122.523505,148.710686 C123.273165,150.698451 123.201405,152.902766 122.32405,154.837565 C121.447239,156.771165 119.837797,158.276875 117.850278,159.023146 C115.865021,159.778268 113.660241,159.708656 111.726507,158.829685 Z" id="Shape"></path>
            <path d="M47.1225224,127.688027 L40.4660777,145.402442 L38.826911,149.811383 C38.1325682,151.496754 38.410409,153.426441 39.5520181,154.847468 C40.6936271,156.268494 42.5180939,156.95567 44.3134988,156.640854 C46.1089037,156.326039 47.5907293,155.05912 48.1958939,153.292282 L51.5555062,144.353315 L55.8091284,133.010322 C52.7460747,131.524247 49.8366552,129.741518 47.1225224,127.688027 Z M59.1044938,132.766685 L54.3641061,145.407718 L51.0192429,154.305541 C50.0751984,157.064998 47.7042774,159.092067 44.8316296,159.595772 C41.9589818,160.099477 39.0398349,158.999996 37.2132604,156.726354 C35.386686,154.452711 34.9421406,151.365211 36.0339223,148.717558 L37.6558591,144.352375 L45.0358591,124.712375 C45.3974389,123.750122 46.5978337,123.428437 47.3921377,124.080934 C50.7201806,126.814821 54.3937387,129.09856 58.3180791,130.87326 C59.0379517,131.198807 59.3819029,132.026927 59.1044938,132.766685 Z" id="Shape"></path>
            <path d="M27.6089002,83.1592054 C26.7919577,83.2966692 26.0182584,82.7458428 25.8807946,81.9289002 C25.7433308,81.1119577 26.2941572,80.3382584 27.1110998,80.2007946 C27.7367757,80.0955145 28.2801861,79.7104205 28.5874839,79.1538447 L32.3249162,72.3985053 C32.8176201,71.5004434 32.6253213,70.3811658 31.8309807,69.6713841 C31.2950904,69.1661161 30.802153,68.7654057 29.6411425,67.8656226 C28.9863412,67.3581516 28.8669064,66.4159438 29.3743774,65.7611425 C29.8818484,65.1063412 30.8240562,64.9869064 31.4788575,65.4943774 C32.717847,66.4545943 33.2582429,66.8938839 33.8588676,67.4609542 C35.6651322,69.0732377 36.1196567,71.7188029 34.9525161,73.8461553 L31.2131461,80.6050155 C30.4641689,81.9615609 29.1369933,82.902079 27.6089002,83.1592054 Z" id="Shape"></path>
            <path d="M25.8834305,88.6213889 C25.8274349,87.7948564 26.4520786,87.0794261 27.2786111,87.0234305 C28.1051436,86.9674349 28.8205739,87.5920786 28.8765695,88.4186111 C29.8210567,102.359884 36.5267232,115.27867 47.3921377,124.080934 C50.7201806,126.814821 54.3937387,129.09856 58.3225,130.875268 C71.6344478,136.947293 86.9255522,136.947293 100.239395,130.874405 C104.155955,129.094494 107.823233,126.810602 111.153952,124.075958 C122.39273,114.941901 129.157159,101.413044 129.721138,86.9415866 C129.753399,86.1137879 130.450615,85.468877 131.278413,85.5011378 C132.106212,85.5333986 132.751123,86.2306146 132.718862,87.0584134 C132.1213,102.391609 124.954067,116.726075 113.051843,126.399308 C109.525,129.295001 105.635013,131.717592 101.4825,133.604732 C87.3797434,140.037471 71.1802566,140.037471 57.0819209,133.60674 C52.9176085,131.723518 49.0194138,129.300129 45.4957875,126.405531 C33.9902189,117.084715 26.8842938,103.394811 25.8834305,88.6213889 Z" id="Shape"></path>
            <path d="M35.7274442,80.5107444 C35.8098758,79.6864286 36.5449398,79.0850126 37.3692556,79.1674442 C38.1935714,79.2498758 38.7949874,79.9849398 38.7125558,80.8092556 C38.57208,82.2140134 38.5,83.5787282 38.5,84.9202369 C38.4979213,98.0808669 44.8658346,110.428582 55.5895658,118.057766 C57.5332436,119.440608 59.601671,120.639136 61.7823513,121.644498 C72.8571559,126.892677 85.7028441,126.892677 96.7748848,121.645812 C98.9156876,120.625965 100.959484,119.413872 102.892909,118.016009 C112.727654,111.048947 118.948424,100.063632 119.864338,88.0460093 C119.927293,87.2199778 120.647959,86.6013822 121.473991,86.6643376 C122.300022,86.7272929 122.918618,87.4479591 122.855662,88.2739907 C121.871904,101.181808 115.190336,112.98085 104.638891,120.455545 C102.570127,121.951349 100.369839,123.256253 98.0623513,124.355502 C86.1744186,129.989009 72.3855814,129.989009 60.5120298,124.362224 C58.176312,123.285483 55.9461201,121.993223 53.8504554,120.502249 C42.3355224,112.310179 35.4977679,99.0514183 35.5,84.92 C35.5,83.4759385 35.577323,82.0119568 35.7274442,80.5107444 Z" id="Shape"></path>
            <path d="M41.7988757,68.8505098 C41.4727461,69.6120418 40.5910222,69.9650053 39.8294902,69.6388757 C39.0679582,69.3127461 38.7149947,68.4310222 39.0411243,67.6694902 C45.6114102,52.3274804 60.3296547,42.0527342 76.9961602,41.1732352 C93.6626656,40.2937362 109.38056,48.9623537 117.529068,63.5276462 C117.933535,64.2506243 117.675332,65.1645997 116.952354,65.5690676 C116.229376,65.9735354 115.3154,65.7153319 114.910932,64.9923538 C107.320542,51.4246841 92.6792155,43.3498075 77.1542515,44.1690668 C61.6292876,44.9883262 47.919142,54.5593226 41.7988757,68.8505098 Z" id="Shape"></path>
            <path d="M34.7419901,61.068761 C34.3505522,61.798876 33.441354,62.073428 32.711239,61.6819901 C31.981124,61.2905522 31.706572,60.381354 32.0980099,59.651239 C41.3346626,42.4229159 59.2323968,31.6038696 78.7798131,31.4324386 C98.3272294,31.2610077 116.411962,41.7644874 125.949356,58.8281621 C126.353539,59.5512995 126.094975,60.4651731 125.371838,60.869356 C124.648701,61.273539 123.734827,61.0149753 123.330644,60.2918379 C114.328057,44.1850049 97.2574216,34.2705052 78.8061221,34.4323233 C60.3548226,34.5941413 43.4606997,44.8065121 34.7419901,61.068761 Z" id="Shape"></path>
            <path d="M109.012564,68.4939318 C109.413561,69.218841 109.150977,70.1315679 108.426068,70.5325643 C107.701159,70.9335607 106.788432,70.6709774 106.387436,69.9460682 C99.0354648,56.6553962 83.1323137,50.6547323 68.8331013,55.7758616 C54.5338888,60.8969909 46.0561139,75.6294555 48.8133458,90.5656904 C51.5705777,105.501925 64.7495813,116.236544 79.9347699,115.914847 C95.1199584,115.59315 107.832518,104.310021 109.954714,89.2704155 C110.070464,88.4501147 110.829284,87.8789637 111.649585,87.9947141 C112.469885,88.1104644 113.041036,88.8692837 112.925286,89.6895845 C110.597583,106.185575 96.653982,118.561325 79.9983104,118.914174 C63.3426388,119.267023 48.8874243,107.4929 45.8631913,91.1102895 C42.8389582,74.7276794 52.1376926,58.5685719 67.8215931,52.9515296 C83.5054936,47.3344872 100.948653,53.9162354 109.012564,68.4939318 Z M131.5,73.5 C131.5,74.3284271 130.828427,75 130,75 C129.171573,75 128.5,74.3284271 128.5,73.5 C128.5,73.4833158 128.487344,73.4132873 128.452714,73.2920817 C128.433312,73.2241744 128.411093,73.1532855 128.371075,73.0302677 C128.300113,72.8121232 128.292175,72.7874041 128.263261,72.6910218 C128.025214,71.8975326 128.475489,71.0613074 129.268978,70.8232606 C130.062467,70.5852138 130.898693,71.0354889 131.136739,71.8289782 C131.155923,71.892922 131.162552,71.9135676 131.223925,72.1022323 C131.274418,72.2574531 131.305342,72.3561141 131.337286,72.4679183 C131.441836,72.8338439 131.5,73.1556842 131.5,73.5 Z" id="Shape"></path>
            <path d="M109.012564,68.4939318 C109.413561,69.218841 109.150977,70.1315679 108.426068,70.5325643 C107.701159,70.9335607 106.788432,70.6709774 106.387436,69.9460682 C99.0354648,56.6553962 83.1323137,50.6547323 68.8331013,55.7758616 C54.5338888,60.8969909 46.0561139,75.6294555 48.8133458,90.5656904 C51.5705777,105.501925 64.7495813,116.236544 79.9347699,115.914847 C95.1199584,115.59315 107.832518,104.310021 109.954714,89.2704155 C110.070464,88.4501147 110.829284,87.8789637 111.649585,87.9947141 C112.469885,88.1104644 113.041036,88.8692837 112.925286,89.6895845 C110.597583,106.185575 96.653982,118.561325 79.9983104,118.914174 C63.3426388,119.267023 48.8874243,107.4929 45.8631913,91.1102895 C42.8389582,74.7276794 52.1376926,58.5685719 67.8215931,52.9515296 C83.5054936,47.3344872 100.948653,53.9162354 109.012564,68.4939318 Z" id="Shape"></path>
            <path d="M41.7988757,68.8505098 C41.4727461,69.6120418 40.5910222,69.9650053 39.8294902,69.6388757 C39.0679582,69.3127461 38.7149947,68.4310222 39.0411243,67.6694902 C45.6114102,52.3274804 60.3296547,42.0527342 76.9961602,41.1732352 C93.6626656,40.2937362 109.38056,48.9623537 117.529068,63.5276462 C117.933535,64.2506243 117.675332,65.1645997 116.952354,65.5690676 C116.229376,65.9735354 115.3154,65.7153319 114.910932,64.9923538 C107.320542,51.4246841 92.6792155,43.3498075 77.1542515,44.1690668 C61.6292876,44.9883262 47.919142,54.5593226 41.7988757,68.8505098 Z" id="Shape"></path>
            <path d="M35.7274442,80.5107444 C35.8098758,79.6864286 36.5449398,79.0850126 37.3692556,79.1674442 C38.1935714,79.2498758 38.7949874,79.9849398 38.7125558,80.8092556 C38.57208,82.2140134 38.5,83.5787282 38.5,84.9202369 C38.4979213,98.0808669 44.8658346,110.428582 55.5895658,118.057766 C57.5332436,119.440608 59.601671,120.639136 61.7823513,121.644498 C72.8571559,126.892677 85.7028441,126.892677 96.7748848,121.645812 C98.9156876,120.625965 100.959484,119.413872 102.892909,118.016009 C112.727654,111.048947 118.948424,100.063632 119.864338,88.0460093 C119.927293,87.2199778 120.647959,86.6013822 121.473991,86.6643376 C122.300022,86.7272929 122.918618,87.4479591 122.855662,88.2739907 C121.871904,101.181808 115.190336,112.98085 104.638891,120.455545 C102.570127,121.951349 100.369839,123.256253 98.0623513,124.355502 C86.1744186,129.989009 72.3855814,129.989009 60.5120298,124.362224 C58.176312,123.285483 55.9461201,121.993223 53.8504554,120.502249 C42.3355224,112.310179 35.4977679,99.0514183 35.5,84.92 C35.5,83.4759385 35.577323,82.0119568 35.7274442,80.5107444 Z" id="Shape"></path>
            <path d="M109.012564,68.4939318 C109.413561,69.218841 109.150977,70.1315679 108.426068,70.5325643 C107.701159,70.9335607 106.788432,70.6709774 106.387436,69.9460682 C99.0354648,56.6553962 83.1323137,50.6547323 68.8331013,55.7758616 C54.5338888,60.8969909 46.0561139,75.6294555 48.8133458,90.5656904 C51.5705777,105.501925 64.7495813,116.236544 79.9347699,115.914847 C95.1199584,115.59315 107.832518,104.310021 109.954714,89.2704155 C110.070464,88.4501147 110.829284,87.8789637 111.649585,87.9947141 C112.469885,88.1104644 113.041036,88.8692837 112.925286,89.6895845 C110.597583,106.185575 96.653982,118.561325 79.9983104,118.914174 C63.3426388,119.267023 48.8874243,107.4929 45.8631913,91.1102895 C42.8389582,74.7276794 52.1376926,58.5685719 67.8215931,52.9515296 C83.5054936,47.3344872 100.948653,53.9162354 109.012564,68.4939318 Z" id="Shape"></path>
            <path d="M109.012564,68.4939318 C109.413561,69.218841 109.150977,70.1315679 108.426068,70.5325643 C107.701159,70.9335607 106.788432,70.6709774 106.387436,69.9460682 C99.0354648,56.6553962 83.1323137,50.6547323 68.8331013,55.7758616 C54.5338888,60.8969909 46.0561139,75.6294555 48.8133458,90.5656904 C51.5705777,105.501925 64.7495813,116.236544 79.9347699,115.914847 C95.1199584,115.59315 107.832518,104.310021 109.954714,89.2704155 C110.070464,88.4501147 110.829284,87.8789637 111.649585,87.9947141 C112.469885,88.1104644 113.041036,88.8692837 112.925286,89.6895845 C110.597583,106.185575 96.653982,118.561325 79.9983104,118.914174 C63.3426388,119.267023 48.8874243,107.4929 45.8631913,91.1102895 C42.8389582,74.7276794 52.1376926,58.5685719 67.8215931,52.9515296 C83.5054936,47.3344872 100.948653,53.9162354 109.012564,68.4939318 Z" id="Shape"></path>
            <path d="M99.8099336,90.3961936 C100.021904,89.595344 100.842957,89.1179631 101.643806,89.3299336 C102.444656,89.541904 102.922037,90.3629569 102.710066,91.1638064 C99.7188184,102.465098 89.1210418,110.047989 77.4591499,109.23127 C65.797258,108.414552 56.3598533,99.4285353 54.973007,87.8206324 C53.5861608,76.2127295 60.6409576,65.2563183 71.7822013,61.7152109 C82.923445,58.1741036 95.0093535,63.0468769 100.578833,73.3253812 C100.973506,74.0537525 100.70299,74.9641598 99.9746188,75.3588328 C99.2462475,75.7535059 98.3358402,75.48299 97.9411672,74.7546188 C93.0575843,65.74194 82.4600882,61.469262 72.6909189,64.5742724 C62.9217495,67.6792828 56.73577,77.2863823 57.9518224,87.4647405 C59.1678748,97.6430987 67.4430375,105.522463 77.6687358,106.2386 C87.8944342,106.954738 97.1870659,100.3057 99.8099336,90.3961936 Z" id="Shape"></path>
            <path d="M87.6443245,1.72237936 L90.0331944,7.50411398 C91.3966707,10.9213389 90.2471003,14.8278437 87.2383106,16.9701637 C80.5300496,21.650656 72.8757229,24.8007868 64.7926895,26.201842 C62.38837,26.5793856 60.0454609,25.2322128 59.1656792,22.9730546 L56.3231959,15.8067526 C55.7254195,14.2795966 55.8800898,12.5602929 56.7408314,11.1643466 C57.601573,9.76840036 59.0683082,8.85811695 60.6457189,8.71263493 C67.6062304,7.80344594 74.1071989,4.73707773 79.2249697,-0.0456851547 C80.4691135,-1.23178095 82.2174392,-1.72934162 83.8996751,-1.37607207 C85.5819111,-1.02280252 86.9823986,0.136008914 87.6443245,1.72237936 Z M83.2831234,1.55988842 C82.5676898,1.40964735 81.824149,1.62125361 81.2841956,2.13591208 C75.6976789,7.35684741 68.6162669,10.6969985 60.9787396,11.69357 C60.2842656,11.7580805 59.6604817,12.1452126 59.2944192,12.7388909 C58.9283566,13.3325692 58.8625773,14.0637673 59.1143208,14.7069454 L61.9577453,21.875658 C62.3294421,22.8300902 63.315454,23.397047 64.3037865,23.2420438 C71.9304543,21.9199103 79.1737001,18.9389594 85.5099537,14.5181082 C87.3802957,13.1863339 88.0976968,10.7484399 87.2536817,8.63281901 L84.8748015,2.87552912 C84.5929353,2.20193889 83.9978176,1.7099742 83.2831234,1.55988842 Z" id="Shape"></path>
            <path d="M73.6,13.1 C74.0307821,13.1 74.38,13.4492179 74.38,13.88 C74.3855637,14.0885247 74.3051732,14.2901698 74.1576715,14.4376715 C74.0101698,14.5851732 73.8085247,14.6655637 73.6,14.66 C73.1692179,14.66 72.82,14.3107821 72.82,13.88 C72.8305318,13.4536565 73.1736565,13.1105318 73.6,13.1 Z M73.6,11.1 C72.0646484,11.1 70.82,12.3446484 70.82,13.88 C70.82,15.4153516 72.0646484,16.66 73.6,16.66 C75.1353516,16.66 76.38,15.4153516 76.38,13.88 C76.3691041,12.3491843 75.1308157,11.1108959 73.6,11.1 Z" id="Shape"></path>
            <path d="M170.417066,108.001295 C169.773457,111.639535 166.716517,114.360211 163.022642,114.577722 C154.856023,115.028341 146.690005,113.681369 139.058183,110.613978 C136.878198,109.659122 135.620067,107.350624 136.003576,104.975101 L137.36444,97.3903308 C137.659523,95.7757098 138.696854,94.3939099 140.164935,93.6598697 C141.633015,92.9258295 143.360854,92.9250444 144.77891,93.6336362 C151.174866,96.530758 158.320492,97.3410868 165.167966,95.9572103 C166.86875,95.5711552 168.650301,96.0532217 169.933767,97.2531115 C171.200616,98.4580436 171.780102,100.217177 171.477452,101.939109 L170.417066,108.001295 Z M168.522434,101.421548 C168.651531,100.687693 168.40509,99.939408 167.875651,99.4357684 C167.328246,98.9240417 166.562789,98.7169181 165.797232,98.8902562 C158.297526,100.406421 150.510845,99.5233949 143.490399,96.3422498 C142.86576,96.0306393 142.130932,96.0309732 141.506576,96.3431513 C140.88222,96.6553293 140.441056,97.2429913 140.316424,97.9248993 L138.960849,105.478925 C138.79963,106.478159 139.334697,107.459933 140.21927,107.848161 C147.401249,110.73403 155.12902,112.008714 162.851823,111.582594 C165.153568,111.447052 167.061283,109.749186 167.462434,107.481548 L168.522434,101.421548 Z" id="Shape"></path>
            <path d="M153.12,104.1 C153.26226,104.099605 153.40145,104.141361 153.52,104.22 C153.702392,104.321992 153.833157,104.496346 153.88,104.7 C153.96,104.892 153.96,105.108 153.88,105.3 C153.7336,105.522337 153.486194,105.657285 153.22,105.66 C153.071867,105.657737 152.926968,105.616338 152.8,105.54 C152.621679,105.437691 152.497348,105.262165 152.46,105.06 C152.412669,104.828658 152.469959,104.588224 152.616528,104.403085 C152.763097,104.217945 152.98397,104.107015 153.22,104.1 L153.12,104.1 Z M153.22,102.1 C152.258925,102.105808 151.367989,102.604128 150.86,103.42 C150.463166,104.043347 150.334928,104.800553 150.504386,105.519804 C150.673843,106.239056 151.126627,106.859372 151.76,107.24 C152.194506,107.521121 152.702534,107.667266 153.22,107.66 C154.459365,107.655871 155.546307,106.831826 155.884951,105.639616 C156.223594,104.447407 155.732136,103.175022 154.68,102.52 C154.241339,102.248126 153.736073,102.102775 153.22,102.1 Z" id="Shape"></path>
            <path d="M173.298536,48.1941285 C174.146256,48.8507437 174.051219,50.1589735 173.1175,50.6861751 L167.232552,54.0089569 C160.524073,57.7633247 152.624846,58.7818497 145.183441,56.8519654 C144.380874,56.6438243 143.899392,55.8240498 144.10848,55.0217285 C146.045855,47.5875461 150.890686,41.2443922 157.553126,37.4191622 L163.413879,34.0587299 C164.329544,33.5337074 165.486687,34.0935127 165.643379,35.1373218 L166.854083,43.2024712 L173.298536,48.1941285 Z M147.446692,54.2934978 C153.687529,55.5327557 160.185401,54.5150102 165.7625,51.3938249 L169.676934,49.1836343 L164.541464,45.2058715 C164.236246,44.9694599 164.033933,44.6244684 163.976621,44.2426782 L163.002394,37.752827 L159.046503,40.021051 C153.53128,43.1877302 149.407502,48.2819223 147.446692,54.2934978 Z" id="Shape"></path>
            <path d="M181.302576,81.4561608 C181.835033,82.3885745 181.244003,83.5621173 180.177841,83.6894202 L173.477848,84.4894193 C165.824657,85.40327 158.117742,83.28557 152.006063,78.5894193 C151.351919,78.0867819 151.226432,77.1502499 151.725179,76.4931353 C156.363851,70.3815497 163.257937,66.3834359 170.866283,65.3925613 L177.483952,64.6103667 C178.517677,64.4881993 179.358537,65.4303109 179.120126,66.443559 L177.25535,74.368854 L181.302576,81.4561608 Z M155.079657,77.1115849 C160.351665,80.6965798 166.75759,82.270559 173.122159,81.5105798 L177.575317,80.9788594 L174.357424,75.3438392 C174.169266,75.0143457 174.112969,74.6257876 174.199874,74.256441 L175.709398,67.8409646 L171.245014,68.3685736 C164.945235,69.1912131 159.192949,72.3165495 155.079657,77.1115849 Z" id="Shape"></path>
            <path d="M77.78,95.74 C77.78,94.9115729 78.4515729,94.24 79.28,94.24 C80.1084271,94.24 80.78,94.9115729 80.78,95.74 L80.78,98.44 C80.78,99.2684271 80.1084271,99.94 79.28,99.94 C78.4515729,99.94 77.78,99.2684271 77.78,98.44 L77.78,95.74 Z" id="Shape"></path>
            <path d="M77.78,71.36 C77.78,70.5315729 78.4515729,69.86 79.28,69.86 C80.1084271,69.86 80.78,70.5315729 80.78,71.36 L80.78,74.06 C80.78,74.8884271 80.1084271,75.56 79.28,75.56 C78.4515729,75.56 77.78,74.8884271 77.78,74.06 L77.78,71.36 Z" id="Shape"></path>
            <path d="M72.3602553,90.2923247 C72.3755399,89.4640386 73.0593891,88.8049707 73.8876753,88.8202553 C74.7159614,88.8355399 75.3750293,89.5193891 75.3597447,90.3476753 C75.3303717,91.9394198 76.2666007,93.3908412 77.7288331,94.0204364 C79.1910654,94.6500315 80.8888509,94.332741 82.0250082,93.217546 C83.1611656,92.1023509 83.5100145,90.4107679 82.9077557,88.9370658 C82.305497,87.4633636 80.8717602,86.500271 79.2855351,86.4999898 C76.4843558,86.5103263 73.9532463,84.8308918 72.8741115,82.2459005 C71.7949768,79.6609091 72.3807031,76.6803152 74.3577848,74.695911 C76.3348665,72.7115068 79.3132746,72.1147657 81.9022377,73.1843368 C84.4912008,74.2539079 86.1799809,76.7787914 86.18,79.5799898 C86.1800056,80.4084169 85.5084373,81.0799944 84.6800102,81.08 C83.8515831,81.0800056 83.1800056,80.4084373 83.18,79.5800102 C83.1799892,77.9932042 82.2233392,76.5629234 80.7567589,75.9570392 C79.2901787,75.351155 77.6029879,75.6891933 76.4830226,76.8133066 C75.3630572,77.93742 75.0312585,79.6258489 75.6425603,81.0901793 C76.2538621,82.5545096 77.6876697,83.5058656 79.2802553,83.5 C82.0906501,83.5004784 84.6216344,85.2006318 85.6848055,87.8021672 C86.7479765,90.4037026 86.1321515,93.3898644 84.1264859,95.3585251 C82.1208203,97.3271858 79.1237093,97.8873006 76.5424216,96.7758724 C73.9611338,95.6644442 72.3084031,93.1022412 72.3602553,90.2923247 Z" id="Shape"></path>
            <path d="M111.867566,84.1282268 C111.045641,84.2318165 110.295363,83.6494908 110.191773,82.8275658 C110.088183,82.0056408 110.670509,81.2553629 111.492434,81.1517732 L121.172815,79.9317252 L130.872815,78.7117252 C131.694766,78.6083458 132.444895,79.1908635 132.548275,80.0128149 C132.651654,80.8347664 132.069137,81.5848953 131.247185,81.6882748 L121.547566,82.9082268 L111.867566,84.1282268 Z" id="Shape"></path>
            <path d="M126.815792,64.3776353 C127.535068,63.9666203 128.45135,64.2165154 128.862365,64.9357916 C129.27338,65.6550678 129.023485,66.5713498 128.304208,66.9823647 L119.762258,71.8634773 L111.122258,76.7834773 C110.402367,77.1934151 109.48646,76.9421486 109.076523,76.2222579 C108.666585,75.5023673 108.917851,74.5864604 109.637742,74.1765227 L118.275792,69.2576353 L126.815792,64.3776353 Z" id="Shape"></path>
            <path d="M118.277742,69.2565227 C118.997633,68.8465849 119.91354,69.0978514 120.323477,69.8177421 C120.733415,70.5376327 120.482149,71.4535396 119.762258,71.8634773 L111.122258,76.7834773 C110.402367,77.1934151 109.48646,76.9421486 109.076523,76.2222579 C108.666585,75.5023673 108.917851,74.5864604 109.637742,74.1765227 L118.277742,69.2565227 Z" id="Shape"></path>
            <path d="M111.867566,84.1282268 C111.045641,84.2318165 110.295363,83.6494908 110.191773,82.8275658 C110.088183,82.0056408 110.670509,81.2553629 111.492434,81.1517732 L121.172434,79.9317732 C121.994359,79.8281835 122.744637,80.4105092 122.848227,81.2324342 C122.951817,82.0543592 122.369491,82.8046371 121.547566,82.9082268 L111.867566,84.1282268 Z" id="Shape"></path>
            <path d="M101.78851,82.392273 C102.610159,82.2865162 103.36197,82.8668614 103.467727,83.6885104 C103.573484,84.5101593 102.993139,85.2619702 102.17149,85.367727 L94.0914896,86.407727 C92.4631956,86.6173094 91.7298282,84.4345924 93.154332,83.6184704 L100.834332,79.2184704 C101.553147,78.8066494 102.469709,79.0555171 102.88153,79.774332 C103.293351,80.4931469 103.044483,81.4097085 102.325668,81.8215296 L101.196447,82.4684792 L101.78851,82.392273 Z" id="Shape"></path>
            <path d="M109.634518,74.1783641 C110.353391,73.7666455 111.269917,74.015644 111.681636,74.7345176 C112.093354,75.4533913 111.844356,76.3699174 111.125482,76.7816359 L102.325482,81.8216359 C101.606609,82.2333545 100.690083,81.984356 100.278364,81.2654824 C99.8666455,80.5466087 100.115644,79.6300826 100.834518,79.2183641 L109.634518,74.1783641 Z" id="Shape"></path>
            <path d="M128.304364,66.9822758 C127.585137,67.3933767 126.668825,67.1435911 126.257724,66.4243641 C125.846623,65.705137 126.096409,64.7888252 126.815636,64.3777242 L144.83678,54.077071 L164.71678,42.737071 C165.436368,42.3266019 166.35246,42.5771921 166.762929,43.2967799 C167.173398,44.0163678 166.922808,44.9324599 166.20322,45.342929 L146.324364,56.6822758 L128.304364,66.9822758 Z" id="Shape"></path>
            <path d="M111.489795,81.1521081 C112.311535,81.047061 113.062845,81.6280553 113.167892,82.4497953 C113.272939,83.2715352 112.691945,84.0228447 111.870205,84.1278919 L102.170205,85.3678919 C101.348465,85.472939 100.597155,84.8919447 100.492108,84.0702047 C100.387061,83.2484648 100.968055,82.4971553 101.789795,82.3921081 L111.489795,81.1521081 Z" id="Shape"></path>
            <path d="M131.06,81.7 C130.231573,81.7 129.56,81.0284271 129.56,80.2 C129.56,79.4247373 130.121536,78.7872661 130.870765,78.6919845 L152.731695,75.9118665 L175.491695,73.0318665 C176.313568,72.9278685 177.064135,73.5098215 177.168133,74.3316949 C177.272131,75.1535683 176.690179,75.9041354 175.868305,76.0081335 L153.109235,78.8880155 L131.490352,81.6373519 C131.354035,81.6781075 131.209574,81.7 131.06,81.7 Z" id="Shape"></path>
        </g>
    </g>
</svg>