<?xml version="1.0" encoding="UTF-8"?>
<svg width="181px" height="194px" viewBox="0 0 181 194" version="1.1" xmlns="http://www.w3.org/2000/svg" xmlns:xlink="http://www.w3.org/1999/xlink">
    <!-- Generator: Sketch 51.3 (57544) - http://www.bohemiancoding.com/sketch -->
    <title>alex</title>
    <desc>Created with Sketch.</desc>
    <defs></defs>
    <g id="logo" stroke="none" stroke-width="1" fill="none" fill-rule="evenodd">
        <g id="batjko-1" transform="translate(-228.000000, -222.000000)" fill="#00E676" fill-rule="nonzero">
            <g id="alex" transform="translate(228.000000, 222.000000)">
                <g id="noun_Smile_482602">
                    <path d="M110.691824,0 L152.201258,0 C160.503145,0 166.037736,5.53459119 166.037736,13.836478 C166.037736,22.1383648 160.503145,27.672956 152.201258,27.672956 L110.691824,27.672956 C102.389937,27.672956 96.8553459,22.1383648 96.8553459,13.836478 C96.8553459,5.53459119 102.389937,0 110.691824,0 Z M152.201258,62.2641509 C152.201258,73.3333333 142.515723,83.0188679 131.446541,83.0188679 C120.377358,83.0188679 110.691824,73.3333333 110.691824,62.2641509 C110.691824,51.1949686 120.377358,41.509434 131.446541,41.509434 C142.515723,41.509434 152.201258,51.1949686 152.201258,62.2641509 Z M34.591195,83.0188679 C23.5220126,83.0188679 13.836478,73.3333333 13.836478,62.2641509 C13.836478,51.1949686 23.5220126,41.509434 34.591195,41.509434 C45.6603774,41.509434 55.3459119,51.1949686 55.3459119,62.2641509 C55.3459119,73.3333333 45.6603774,83.0188679 34.591195,83.0188679 Z M55.3459119,27.672956 L13.836478,27.672956 C5.53459119,27.672956 0,22.1383648 0,13.836478 C0,5.53459119 5.53459119,0 13.836478,0 L55.3459119,0 C63.6477987,0 69.1823899,5.53459119 69.1823899,13.836478 C69.1823899,22.1383648 63.6477987,27.672956 55.3459119,27.672956 Z M178.490566,131.446541 C172.955975,142.515723 166.037736,152.201258 157.735849,160.503145 C136.981132,181.257862 109.308176,192.327044 80.2515723,193.710692 C80.2515723,193.710692 80.2515723,193.710692 80.2515723,193.710692 C73.3333333,193.710692 66.4150943,188.176101 66.4150943,179.874214 C66.4150943,171.572327 71.9496855,166.037736 80.2515723,166.037736 C102.389937,166.037736 123.144654,156.352201 138.36478,141.132075 C145.283019,134.213836 149.433962,127.295597 153.584906,118.993711 C157.735849,112.075472 166.037736,109.308176 171.572327,113.459119 C179.874214,116.226415 182.641509,124.528302 178.490566,131.446541 Z" id="Shape"></path>
                </g>
            </g>
        </g>
    </g>
</svg>