<?xml version="1.0" encoding="UTF-8"?>
<svg width="194px" height="180px" viewBox="0 0 194 180" version="1.1" xmlns="http://www.w3.org/2000/svg" xmlns:xlink="http://www.w3.org/1999/xlink">
    <!-- Generator: Sketch 51.3 (57544) - http://www.bohemiancoding.com/sketch -->
    <title>bokta</title>
    <desc>Created with Sketch.</desc>
    <defs></defs>
    <g id="logo" stroke="none" stroke-width="1" fill="none" fill-rule="evenodd">
        <g id="batjko-1" transform="translate(-222.000000, -229.000000)" fill="#00E676" fill-rule="nonzero">
            <g id="bokta" transform="translate(222.000000, 229.000000)">
                <g id="noun_Smile_482600">
                    <path d="M0,41.509434 C0,33.2075472 5.53459119,27.672956 13.836478,27.672956 L27.672956,27.672956 L27.672956,13.836478 C27.672956,5.53459119 33.2075472,0 41.509434,0 C49.8113208,0 55.3459119,5.53459119 55.3459119,13.836478 L55.3459119,27.672956 L69.1823899,27.672956 C77.4842767,27.672956 83.0188679,33.2075472 83.0188679,41.509434 C83.0188679,49.8113208 77.4842767,55.3459119 69.1823899,55.3459119 L55.3459119,55.3459119 L55.3459119,69.1823899 C55.3459119,77.4842767 49.8113208,83.0188679 41.509434,83.0188679 C33.2075472,83.0188679 27.672956,77.4842767 27.672956,69.1823899 L27.672956,55.3459119 L13.836478,55.3459119 C5.53459119,55.3459119 0,49.8113208 0,41.509434 Z M175.72327,148.050314 C153.584906,170.188679 124.528302,179.874214 96.8553459,179.874214 C69.1823899,179.874214 38.7421384,168.805031 17.9874214,148.050314 C12.4528302,142.515723 12.4528302,134.213836 17.9874214,128.679245 C23.5220126,123.144654 31.8238994,123.144654 37.3584906,128.679245 C69.1823899,160.503145 123.144654,160.503145 156.352201,128.679245 C161.886792,123.144654 170.188679,123.144654 175.72327,128.679245 C181.257862,134.213836 181.257862,142.515723 175.72327,148.050314 Z M179.874214,55.3459119 L166.037736,55.3459119 L166.037736,69.1823899 C166.037736,77.4842767 160.503145,83.0188679 152.201258,83.0188679 C143.899371,83.0188679 138.36478,77.4842767 138.36478,69.1823899 L138.36478,55.3459119 L124.528302,55.3459119 C116.226415,55.3459119 110.691824,49.8113208 110.691824,41.509434 C110.691824,33.2075472 116.226415,27.672956 124.528302,27.672956 L138.36478,27.672956 L138.36478,13.836478 C138.36478,5.53459119 143.899371,0 152.201258,0 C160.503145,0 166.037736,5.53459119 166.037736,13.836478 L166.037736,27.672956 L179.874214,27.672956 C188.176101,27.672956 193.710692,33.2075472 193.710692,41.509434 C193.710692,49.8113208 188.176101,55.3459119 179.874214,55.3459119 Z" id="Shape"></path>
                </g>
            </g>
        </g>
    </g>
</svg>