<?xml version="1.0" encoding="UTF-8"?>
<svg width="194px" height="167px" viewBox="0 0 194 167" version="1.1" xmlns="http://www.w3.org/2000/svg" xmlns:xlink="http://www.w3.org/1999/xlink">
    <!-- Generator: Sketch 51.3 (57544) - http://www.bohemiancoding.com/sketch -->
    <title>kolpakov</title>
    <desc>Created with Sketch.</desc>
    <defs></defs>
    <g id="logo" stroke="none" stroke-width="1" fill="none" fill-rule="evenodd">
        <g id="batjko-1" transform="translate(-222.000000, -235.000000)" fill="#00E676">
            <g id="kolpakov" transform="translate(222.000000, 235.000000)">
                <path d="M0,41.509434 C0,17.9874214 17.9874214,0 41.509434,0 C65.0314465,0 83.0188679,17.9874214 83.0188679,41.509434 C83.0188679,65.0314465 65.0314465,83.0188679 41.509434,83.0188679 C17.9874214,83.0188679 0,65.0314465 0,41.509434 Z M41.509434,55.3459119 C49.1511097,55.3459119 55.3459119,49.1511097 55.3459119,41.509434 C55.3459119,33.8677582 49.1511097,27.672956 41.509434,27.672956 C33.8677582,27.672956 27.672956,33.8677582 27.672956,41.509434 C27.672956,49.1511097 33.8677582,55.3459119 41.509434,55.3459119 Z" id="Combined-Shape"></path>
                <path d="M124.528302,166.037736 L69.1823899,166.037736 C60.8805031,166.037736 55.3459119,160.503145 55.3459119,152.201258 C55.3459119,143.899371 60.8805031,138.36478 69.1823899,138.36478 L124.528302,138.36478 C132.830189,138.36478 138.36478,143.899371 138.36478,152.201258 C138.36478,160.503145 132.830189,166.037736 124.528302,166.037736 Z M152.201258,83.0188679 C128.679245,83.0188679 110.691824,65.0314465 110.691824,41.509434 L138.36478,41.509434 C138.36478,49.8113208 143.899371,55.3459119 152.201258,55.3459119 C160.503145,55.3459119 166.037736,49.8113208 166.037736,41.509434 L193.710692,41.509434 C193.710692,65.0314465 175.72327,83.0188679 152.201258,83.0188679 Z" id="Shape" fill-rule="nonzero"></path>
            </g>
        </g>
    </g>
</svg>