<?xml version="1.0" encoding="UTF-8"?>
<svg width="194px" height="140px" viewBox="0 0 194 140" version="1.1" xmlns="http://www.w3.org/2000/svg" xmlns:xlink="http://www.w3.org/1999/xlink">
    <!-- Generator: Sketch 51.3 (57544) - http://www.bohemiancoding.com/sketch -->
    <title>trafimaf</title>
    <desc>Created with Sketch.</desc>
    <defs></defs>
    <g id="logo" stroke="none" stroke-width="1" fill="none" fill-rule="evenodd">
        <g id="batjko-1" transform="translate(-222.000000, -249.000000)" fill="#00E676" fill-rule="nonzero">
            <g id="trafimaf" transform="translate(222.000000, 249.000000)">
                <g id="noun_Smile_482596">
                    <path d="M0,0 L83.0188679,0 C83.0188679,23.5220126 65.0314465,41.509434 41.509434,41.509434 C17.9874214,41.509434 0,23.5220126 0,0 Z M175.72327,106.540881 C154.968553,128.679245 125.91195,139.748428 95.4716981,139.748428 C66.4150943,139.748428 38.7421384,128.679245 17.9874214,107.924528 C12.4528302,102.389937 12.4528302,94.0880503 17.9874214,88.5534591 C23.5220126,83.0188679 31.8238994,83.0188679 37.3584906,88.5534591 C52.5786164,103.773585 73.3333333,112.075472 95.4716981,112.075472 C118.993711,112.075472 139.748428,102.389937 154.968553,87.1698113 C160.503145,81.6352201 168.805031,81.6352201 174.339623,87.1698113 C181.257862,92.7044025 181.257862,101.006289 175.72327,106.540881 Z M152.201258,41.509434 C128.679245,41.509434 110.691824,23.5220126 110.691824,0 L193.710692,0 C193.710692,23.5220126 175.72327,41.509434 152.201258,41.509434 Z" id="Shape"></path>
                </g>
            </g>
        </g>
    </g>
</svg>