<svg width="181" height="194" xmlns="http://www.w3.org/2000/svg"><path d="M110.692 0h41.51c8.301 0 13.836 5.535 13.836 13.836 0 8.302-5.535 13.837-13.837 13.837h-41.51c-8.301 0-13.836-5.535-13.836-13.837C96.855 5.535 102.39 0 110.692 0zm41.51 62.264c0 11.07-9.686 20.755-20.755 20.755-11.07 0-20.755-9.686-20.755-20.755 0-11.069 9.685-20.755 20.755-20.755 11.069 0 20.754 9.686 20.754 20.755zM34.591 83.02c-11.07 0-20.756-9.686-20.756-20.755 0-11.069 9.686-20.755 20.755-20.755 11.07 0 20.755 9.686 20.755 20.755 0 11.07-9.686 20.755-20.755 20.755zm20.754-55.346h-41.51C5.535 27.673 0 22.138 0 13.836 0 5.535 5.535 0 13.836 0h41.51c8.302 0 13.836 5.535 13.836 13.836 0 8.302-5.534 13.837-13.836 13.837zM178.49 131.447c-5.535 11.069-12.453 20.754-20.755 29.056-20.755 20.755-48.428 31.824-77.484 33.208-6.919 0-13.837-5.535-13.837-13.837s5.535-13.836 13.837-13.836c22.138 0 42.893-9.686 58.113-24.906 6.918-6.918 11.069-13.836 15.22-22.138 4.15-6.919 12.453-9.686 17.987-5.535 8.302 2.767 11.07 11.07 6.919 17.988z" fill="#00E676"/></svg>