<svg height="180" viewBox="0 0 194 180" xmlns="http://www.w3.org/2000/svg"><path d="M0 41.51c0-8.302 5.535-13.837 13.836-13.837h13.837V13.836C27.673 5.535 33.208 0 41.509 0c8.302 0 13.837 5.535 13.837 13.836v13.837h13.836c8.302 0 13.837 5.535 13.837 13.836 0 8.302-5.535 13.837-13.837 13.837H55.346v13.836c0 8.302-5.535 13.837-13.837 13.837-8.301 0-13.836-5.535-13.836-13.837V55.346H13.836C5.535 55.346 0 49.81 0 41.509zm175.723 106.54c-22.138 22.139-51.195 31.824-78.868 31.824-27.673 0-58.113-11.069-78.868-31.824-5.534-5.534-5.534-13.836 0-19.37 5.535-5.535 13.837-5.535 19.371 0 31.824 31.823 85.787 31.823 118.994 0 5.535-5.535 13.837-5.535 19.371 0 5.535 5.534 5.535 13.836 0 19.37zm4.151-92.704h-13.836v13.836c0 8.302-5.535 13.837-13.837 13.837s-13.836-5.535-13.836-13.837V55.346h-13.837c-8.302 0-13.836-5.535-13.836-13.837 0-8.301 5.534-13.836 13.836-13.836h13.837V13.836C138.365 5.535 143.899 0 152.2 0s13.837 5.535 13.837 13.836v13.837h13.836c8.302 0 13.837 5.535 13.837 13.836 0 8.302-5.535 13.837-13.837 13.837z" fill="#00E676"/></svg>