<svg width="194" height="167" xmlns="http://www.w3.org/2000/svg"><g fill="#00E676" fill-rule="evenodd"><path d="M0 41.51C0 17.986 17.987 0 41.51 0c23.52 0 41.508 17.987 41.508 41.51 0 23.521-17.988 41.509-41.51 41.509S0 65.03 0 41.509zm41.51 13.836c7.641 0 13.836-6.195 13.836-13.837 0-7.641-6.195-13.836-13.837-13.836-7.641 0-13.836 6.195-13.836 13.836 0 7.642 6.195 13.837 13.836 13.837z"/><path d="M124.528 166.038H69.182c-8.301 0-13.836-5.535-13.836-13.837s5.535-13.836 13.836-13.836h55.346c8.302 0 13.837 5.534 13.837 13.836s-5.535 13.837-13.837 13.837zm27.673-83.02c-23.522 0-41.51-17.987-41.51-41.509h27.674c0 8.302 5.534 13.837 13.836 13.837s13.837-5.535 13.837-13.837h27.673c0 23.522-17.988 41.51-41.51 41.51z" fill-rule="nonzero"/></g></svg>