<svg width="194" viewBox="0 0 194 140" xmlns="http://www.w3.org/2000/svg"><path d="M0 0h83.019c0 23.522-17.988 41.51-41.51 41.51S0 23.521 0 0zm175.723 106.54c-20.754 22.14-49.811 33.208-80.251 33.208-29.057 0-56.73-11.069-77.485-31.823-5.534-5.535-5.534-13.837 0-19.372 5.535-5.534 13.837-5.534 19.371 0 15.22 15.22 35.975 23.522 58.114 23.522 23.522 0 44.276-9.685 59.497-24.905 5.534-5.535 13.836-5.535 19.37 0 6.919 5.534 6.919 13.836 1.384 19.37zm-23.522-65.03c-23.522 0-41.51-17.988-41.51-41.51h83.02c0 23.522-17.988 41.51-41.51 41.51z" fill="#00E676"/></svg>